ISO-10303-21;
HEADER;
FILE_DESCRIPTION (( 'STEP AP203' ),
    '1' );
FILE_NAME ('PH-MVS-5370.step',
    '2021-10-18T06:42:08',
    ( '' ),
    ( '' ),
    'SwSTEP 2.0',
    'SolidWorks 2021',
    '' );
FILE_SCHEMA (( 'CONFIG_CONTROL_DESIGN' ));
ENDSEC;

DATA;
#1 = CARTESIAN_POINT ( 'NONE',  ( 0.000000000000000000, 2.000000000000000000, 0.000000000000000000 ) ) ;
#2 = CARTESIAN_POINT ( 'NONE',  ( 4.218184327704250734E-16, -2.793095335300976867, -0.5000000000000000000 ) ) ;
#3 = DIRECTION ( 'NONE',  ( 0.000000000000000000, 1.000000000000000000, 0.000000000000000000 ) ) ;
#4 = CARTESIAN_POINT ( 'NONE',  ( 0.000000000000000000, 5.299999999999999822, -0.5000000000000000000 ) ) ;
#5 = DIRECTION ( 'NONE',  ( 0.000000000000000000, 1.000000000000000000, 0.000000000000000000 ) ) ;
#6 = CARTESIAN_POINT ( 'NONE',  ( 0.000000000000000000, 12.69303607231218045, -0.7399999999999999911 ) ) ;
#7 = ORIENTED_EDGE ( 'NONE', *, *, #137, .T. ) ;
#8 = DIRECTION ( 'NONE',  ( 1.000000000000000000, -0.000000000000000000, 1.224646799147353207E-16 ) ) ;
#9 = VECTOR ( 'NONE', #15, 1000.000000000000000 ) ;
#10 = VECTOR ( 'NONE', #557, 1000.000000000000000 ) ;
#11 = DIRECTION ( 'NONE',  ( 0.000000000000000000, 0.000000000000000000, 1.000000000000000000 ) ) ;
#12 = ORIENTED_EDGE ( 'NONE', *, *, #764, .T. ) ;
#13 = ADVANCED_FACE ( 'NONE', ( #126 ), #613, .T. ) ;
#14 = EDGE_CURVE ( 'NONE', #364, #588, #715, .T. ) ;
#15 = DIRECTION ( 'NONE',  ( -0.9805806756909202226, -0.1961161351381839890, 1.200864985790634159E-16 ) ) ;
#16 = ORIENTED_EDGE ( 'NONE', *, *, #856, .T. ) ;
#17 = CARTESIAN_POINT ( 'NONE',  ( 0.000000000000000000, 6.500000000000000888, 0.000000000000000000 ) ) ;
#18 = ORIENTED_EDGE ( 'NONE', *, *, #690, .F. ) ;
#19 = DIRECTION ( 'NONE',  ( 0.000000000000000000, 1.000000000000000000, 0.000000000000000000 ) ) ;
#20 = ORIENTED_EDGE ( 'NONE', *, *, #590, .T. ) ;
#21 = FACE_BOUND ( 'NONE', #323, .T. ) ;
#22 = PERSON_AND_ORGANIZATION ( #877, #529 ) ;
#23 = EDGE_CURVE ( 'NONE', #588, #364, #290, .T. ) ;
#24 = ORIENTED_EDGE ( 'NONE', *, *, #300, .F. ) ;
#25 = CONICAL_SURFACE ( 'NONE', #57, 5000.000000000001819, 1.373400766945015894 ) ;
#26 = CIRCLE ( 'NONE', #42, 0.5000000000000000000 ) ;
#27 = DIRECTION ( 'NONE',  ( 0.000000000000000000, 0.000000000000000000, 1.000000000000000000 ) ) ;
#28 = ORIENTED_EDGE ( 'NONE', *, *, #175, .F. ) ;
#29 = CARTESIAN_POINT ( 'NONE',  ( 0.1505141668842011893, -2.315011517668375429, 0.4824145391601329935 ) ) ;
#30 = CALENDAR_DATE ( 2021, 18, 10 ) ;
#31 = ORIENTED_EDGE ( 'NONE', *, *, #706, .F. ) ;
#32 = CARTESIAN_POINT ( 'NONE',  ( 0.000000000000000000, 5.100000000000000533, 0.000000000000000000 ) ) ;
#33 =( NAMED_UNIT ( * ) SI_UNIT ( $, .STERADIAN. ) SOLID_ANGLE_UNIT ( ) );
#34 = ORIENTED_EDGE ( 'NONE', *, *, #548, .F. ) ;
#35 = CARTESIAN_POINT ( 'NONE',  ( 0.000000000000000000, 5.299999999999999822, 0.000000000000000000 ) ) ;
#36 = EDGE_CURVE ( 'NONE', #812, #53, #695, .T. ) ;
#37 = EDGE_LOOP ( 'NONE', ( #168, #82, #12, #342 ) ) ;
#38 = CARTESIAN_POINT ( 'NONE',  ( 0.2817898493017304551, -2.174500923271069475, -0.4194064685038372819 ) ) ;
#39 = CYLINDRICAL_SURFACE ( 'NONE', #907, 0.7650000000000000133 ) ;
#40 = ORIENTED_EDGE ( 'NONE', *, *, #854, .F. ) ;
#41 = EDGE_CURVE ( 'NONE', #511, #196, #905, .T. ) ;
#42 = AXIS2_PLACEMENT_3D ( 'NONE', #842, #766, #846 ) ;
#43 = EDGE_LOOP ( 'NONE', ( #711, #724 ) ) ;
#44 = ADVANCED_FACE ( 'NONE', ( #394 ), #899, .T. ) ;
#45 = DIRECTION ( 'NONE',  ( -0.000000000000000000, -1.000000000000000000, -0.000000000000000000 ) ) ;
#46 = EDGE_CURVE ( 'NONE', #801, #303, #790, .T. ) ;
#47 = DIRECTION ( 'NONE',  ( 0.000000000000000000, 1.000000000000000000, 0.000000000000000000 ) ) ;
#48 = DIRECTION ( 'NONE',  ( -0.000000000000000000, -1.000000000000000000, -0.000000000000000000 ) ) ;
#49 = ORIENTED_EDGE ( 'NONE', *, *, #769, .F. ) ;
#50 = DIRECTION ( 'NONE',  ( 0.000000000000000000, 0.000000000000000000, 1.000000000000000000 ) ) ;
#51 = DIRECTION ( 'NONE',  ( 0.000000000000000000, 0.000000000000000000, -1.000000000000000000 ) ) ;
#52 = FACE_OUTER_BOUND ( 'NONE', #679, .T. ) ;
#53 = VERTEX_POINT ( 'NONE', #554 ) ;
#54 = EDGE_CURVE ( 'NONE', #546, #801, #296, .T. ) ;
#55 = AXIS2_PLACEMENT_3D ( 'NONE', #647, #19, #304 ) ;
#56 = CARTESIAN_POINT ( 'NONE',  ( 0.5090591107041438912, -2.042479816429793704, -0.4600798040995565663 ) ) ;
#57 = AXIS2_PLACEMENT_3D ( 'NONE', #563, #209, #78 ) ;
#58 = EDGE_LOOP ( 'NONE', ( #236, #658, #49, #741, #16, #98 ) ) ;
#59 = AXIS2_PLACEMENT_3D ( 'NONE', #773, #293, #902 ) ;
#60 = CARTESIAN_POINT ( 'NONE',  ( 0.000000000000000000, 5.299999999999999822, 0.000000000000000000 ) ) ;
#61 = LINE ( 'NONE', #667, #655 ) ;
#62 = CARTESIAN_POINT ( 'NONE',  ( 0.000000000000000000, -2.793095335300976867, 0.6750000000000000444 ) ) ;
#63 = DIRECTION ( 'NONE',  ( 0.000000000000000000, 0.000000000000000000, 1.000000000000000000 ) ) ;
#64 = DIRECTION ( 'NONE',  ( 0.000000000000000000, 0.000000000000000000, 1.000000000000000000 ) ) ;
#65 = CARTESIAN_POINT ( 'NONE',  ( 0.000000000000000000, 1.400000000000000133, -0.9000000000000000222 ) ) ;
#66 = ORIENTED_EDGE ( 'NONE', *, *, #856, .F. ) ;
#67 = EDGE_LOOP ( 'NONE', ( #735, #760 ) ) ;
#68 = DIRECTION ( 'NONE',  ( 0.000000000000000000, 0.000000000000000000, -1.000000000000000000 ) ) ;
#69 = DIRECTION ( 'NONE',  ( 3.401796664298201641E-18, 1.000000000000000000, -0.000000000000000000 ) ) ;
#70 = ADVANCED_FACE ( 'NONE', ( #419 ), #144, .T. ) ;
#71 = DESIGN_CONTEXT ( 'detailed design', #415, 'design' ) ;
#72 = CIRCLE ( 'NONE', #833, 0.7399999999999999911 ) ;
#73 = DIRECTION ( 'NONE',  ( -0.000000000000000000, -1.000000000000000000, -0.000000000000000000 ) ) ;
#74 = CIRCLE ( 'NONE', #835, 0.1999999999999999833 ) ;
#75 = DIRECTION ( 'NONE',  ( -0.000000000000000000, 1.000000000000000000, -0.000000000000000000 ) ) ;
#76 = CARTESIAN_POINT ( 'NONE',  ( -0.5000000000000000000, -0.4000000000000000222, 0.000000000000000000 ) ) ;
#77 = DIRECTION ( 'NONE',  ( -0.000000000000000000, 1.000000000000000000, -0.000000000000000000 ) ) ;
#78 = DIRECTION ( 'NONE',  ( 1.000000000000000000, 0.000000000000000000, 0.000000000000000000 ) ) ;
#79 = DIRECTION ( 'NONE',  ( 0.000000000000000000, 0.000000000000000000, 1.000000000000000000 ) ) ;
#80 = CARTESIAN_POINT ( 'NONE',  ( 1.224646799147353207E-16, 0.4000000000000000222, 1.000000000000000000 ) ) ;
#81 = ADVANCED_FACE ( 'NONE', ( #361 ), #784, .T. ) ;
#82 = ORIENTED_EDGE ( 'NONE', *, *, #36, .T. ) ;
#83 = EDGE_CURVE ( 'NONE', #732, #812, #397, .T. ) ;
#84 = FACE_OUTER_BOUND ( 'NONE', #496, .T. ) ;
#85 = DATE_AND_TIME ( #569, #99 ) ;
#86 = CIRCLE ( 'NONE', #847, 0.7650000000000000133 ) ;
#87 = CYLINDRICAL_SURFACE ( 'NONE', #171, 1.000000000000000000 ) ;
#88 = ORIENTED_EDGE ( 'NONE', *, *, #149, .T. ) ;
#89 = CARTESIAN_POINT ( 'NONE',  ( 0.000000000000000000, 1.400000000000000133, 0.000000000000000000 ) ) ;
#90 = PERSON_AND_ORGANIZATION_ROLE ( 'design_supplier' ) ;
#91 = VERTEX_POINT ( 'NONE', #644 ) ;
#92 = FACE_BOUND ( 'NONE', #606, .T. ) ;
#93 = CARTESIAN_POINT ( 'NONE',  ( 0.000000000000000000, 6.500000000000000888, 0.000000000000000000 ) ) ;
#94 = EDGE_LOOP ( 'NONE', ( #753, #315, #501, #906 ) ) ;
#95 = B_SPLINE_CURVE_WITH_KNOTS ( 'NONE', 3,
 ( #62, #537, #755, #460, #194, #890, #129, #405, #746, #346, #120, #56, #337, #897, #471, #181, #258, #474 ),
 .UNSPECIFIED., .F., .F.,
 ( 4, 2, 2, 2, 2, 2, 2, 2, 4 ),
 ( 3.015889898752892387E-21, 0.0003738810022310287912, 0.0007477620044620575824, 0.001121643006693086482, 0.001495524008924115165, 0.001869405011155143848, 0.002243286013386172964, 0.002617167015617201647, 0.002991048017848230330 ),
 .UNSPECIFIED. ) ;
#96 = CARTESIAN_POINT ( 'NONE',  ( 0.2827093022957220536, -2.173650308723759306, 0.4188720000446374270 ) ) ;
#97 = CALENDAR_DATE ( 2021, 18, 10 ) ;
#98 = ORIENTED_EDGE ( 'NONE', *, *, #41, .T. ) ;
#99 = LOCAL_TIME ( 14, 42, 8.000000000000000000, #375 ) ;
#100 = AXIS2_PLACEMENT_3D ( 'NONE', #852, #5, #11 ) ;
#101 = FACE_OUTER_BOUND ( 'NONE', #313, .T. ) ;
#102 = CARTESIAN_POINT ( 'NONE',  ( 0.09427719091391675854, -2.402158957928874461, -0.4924709959581941021 ) ) ;
#103 = MECHANICAL_CONTEXT ( 'NONE', #334, 'mechanical' ) ;
#104 = ORIENTED_EDGE ( 'NONE', *, *, #687, .F. ) ;
#105 = ADVANCED_FACE ( 'NONE', ( #855, #844 ), #561, .F. ) ;
#106 = CARTESIAN_POINT ( 'NONE',  ( 0.000000000000000000, 0.4000000000000000222, 0.000000000000000000 ) ) ;
#107 = DIRECTION ( 'NONE',  ( -0.000000000000000000, -1.000000000000000000, -0.000000000000000000 ) ) ;
#108 = EDGE_CURVE ( 'NONE', #567, #859, #495, .T. ) ;
#109 = DIRECTION ( 'NONE',  ( 0.000000000000000000, 0.000000000000000000, -1.000000000000000000 ) ) ;
#110 = ADVANCED_FACE ( 'NONE', ( #84 ), #142, .T. ) ;
#111 = FACE_OUTER_BOUND ( 'NONE', #771, .T. ) ;
#112 = EDGE_CURVE ( 'NONE', #91, #222, #632, .T. ) ;
#113 = ORIENTED_EDGE ( 'NONE', *, *, #297, .T. ) ;
#114 = CARTESIAN_POINT ( 'NONE',  ( 0.01950985543380425596, -2.590120581727663129, -0.5010341666270144989 ) ) ;
#115 = AXIS2_PLACEMENT_3D ( 'NONE', #490, #705, #79 ) ;
#116 = DIRECTION ( 'NONE',  ( -1.000000000000000000, 0.000000000000000000, 0.000000000000000000 ) ) ;
#117 = VECTOR ( 'NONE', #700, 1000.000000000000000 ) ;
#118 = ORIENTED_EDGE ( 'NONE', *, *, #620, .T. ) ;
#119 = CARTESIAN_POINT ( 'NONE',  ( 0.000000000000000000, 6.500000000000000888, 0.000000000000000000 ) ) ;
#120 = CARTESIAN_POINT ( 'NONE',  ( 0.6388008403669946933, -2.003808251401026475, -0.2504956899381736157 ) ) ;
#121 = EDGE_LOOP ( 'NONE', ( #163, #28, #654, #662 ) ) ;
#122 = EDGE_CURVE ( 'NONE', #191, #775, #652, .T. ) ;
#123 = DIRECTION ( 'NONE',  ( 0.000000000000000000, -1.000000000000000000, 0.000000000000000000 ) ) ;
#124 = CARTESIAN_POINT ( 'NONE',  ( 9.062386313690413388E-17, 2.000000000000000000, 0.7399999999999999911 ) ) ;
#125 = ORIENTED_EDGE ( 'NONE', *, *, #531, .F. ) ;
#126 = FACE_OUTER_BOUND ( 'NONE', #704, .T. ) ;
#127 = DIRECTION ( 'NONE',  ( 0.000000000000000000, 1.000000000000000000, 0.000000000000000000 ) ) ;
#128 = AXIS2_PLACEMENT_3D ( 'NONE', #234, #728, #740 ) ;
#129 = CARTESIAN_POINT ( 'NONE',  ( 0.5062580671045592284, -2.043463599030280964, 0.4635472393005861114 ) ) ;
#130 = LOCAL_TIME ( 14, 42, 8.000000000000000000, #450 ) ;
#131 = VERTEX_POINT ( 'NONE', #4 ) ;
#132 = DIRECTION ( 'NONE',  ( -0.000000000000000000, -1.000000000000000000, -0.000000000000000000 ) ) ;
#133 = CARTESIAN_POINT ( 'NONE',  ( 0.000000000000000000, 5.299999999999999822, 0.000000000000000000 ) ) ;
#134 = PRODUCT_DEFINITION ( 'UNKNOWN', '', #386, #71 ) ;
#135 = DIRECTION ( 'NONE',  ( 1.000000000000000000, 0.000000000000000000, 0.000000000000000000 ) ) ;
#136 =( LENGTH_UNIT ( ) NAMED_UNIT ( * ) SI_UNIT ( .MILLI., .METRE. ) );
#137 = EDGE_CURVE ( 'NONE', #506, #539, #558, .T. ) ;
#138 = LINE ( 'NONE', #76, #448 ) ;
#139 = CARTESIAN_POINT ( 'NONE',  ( 0.000000000000000000, -4.000000000000000000, 0.000000000000000000 ) ) ;
#140 = LINE ( 'NONE', #146, #117 ) ;
#141 = ORIENTED_EDGE ( 'NONE', *, *, #14, .F. ) ;
#142 = CONICAL_SURFACE ( 'NONE', #893, 0.7399999999999999911, 0.2449786631268651704 ) ;
#143 = VECTOR ( 'NONE', #341, 999.9999999999998863 ) ;
#144 = CYLINDRICAL_SURFACE ( 'NONE', #115, 0.6750000000000000444 ) ;
#145 = LOCAL_TIME ( 14, 42, 8.000000000000000000, #729 ) ;
#146 = CARTESIAN_POINT ( 'NONE',  ( 9.062386313690413388E-17, 12.69303607231218045, 0.7399999999999999911 ) ) ;
#147 = DIRECTION ( 'NONE',  ( 0.000000000000000000, 0.000000000000000000, 1.000000000000000000 ) ) ;
#148 = DIRECTION ( 'NONE',  ( 1.000000000000000000, -0.000000000000000000, 1.224646799147353207E-16 ) ) ;
#149 = EDGE_CURVE ( 'NONE', #468, #446, #683, .T. ) ;
#150 = CARTESIAN_POINT ( 'NONE',  ( 0.000000000000000000, 5.100000000000000533, 0.5400000000000000355 ) ) ;
#151 = LINE ( 'NONE', #6, #10 ) ;
#152 = DIRECTION ( 'NONE',  ( -0.000000000000000000, -1.000000000000000000, -0.000000000000000000 ) ) ;
#153 = PERSON_AND_ORGANIZATION ( #877, #529 ) ;
#154 = ORIENTED_EDGE ( 'NONE', *, *, #502, .F. ) ;
#155 = CONICAL_SURFACE ( 'NONE', #366, 0.7399999999999999911, 0.2449786631268651704 ) ;
#156 = DIRECTION ( 'NONE',  ( -0.000000000000000000, 1.000000000000000000, -0.000000000000000000 ) ) ;
#157 = VECTOR ( 'NONE', #516, 1000.000000000000000 ) ;
#158 = APPROVAL_PERSON_ORGANIZATION ( #170, #197, #645 ) ;
#159 = ORIENTED_EDGE ( 'NONE', *, *, #23, .F. ) ;
#160 = ORIENTED_EDGE ( 'NONE', *, *, #830, .T. ) ;
#161 = LINE ( 'NONE', #504, #805 ) ;
#162 = CALENDAR_DATE ( 2021, 18, 10 ) ;
#163 = ORIENTED_EDGE ( 'NONE', *, *, #633, .T. ) ;
#164 = FACE_OUTER_BOUND ( 'NONE', #299, .T. ) ;
#165 = DATE_AND_TIME ( #505, #145 ) ;
#166 = ORIENTED_EDGE ( 'NONE', *, *, #794, .T. ) ;
#167 = AXIS2_PLACEMENT_3D ( 'NONE', #659, #250, #583 ) ;
#168 = ORIENTED_EDGE ( 'NONE', *, *, #83, .T. ) ;
#169 = CARTESIAN_POINT ( 'NONE',  ( 0.5000000000000000000, -0.5000000000000000000, 6.123233995736766036E-17 ) ) ;
#170 = PERSON_AND_ORGANIZATION ( #877, #529 ) ;
#171 = AXIS2_PLACEMENT_3D ( 'NONE', #626, #356, #909 ) ;
#172 = AXIS2_PLACEMENT_3D ( 'NONE', #89, #374, #772 ) ;
#173 = ORIENTED_EDGE ( 'NONE', *, *, #175, .T. ) ;
#174 = CARTESIAN_POINT ( 'NONE',  ( 1.102182119232617541E-16, 5.345584412271571217, 0.9000000000000000222 ) ) ;
#175 = EDGE_CURVE ( 'NONE', #692, #863, #357, .T. ) ;
#176 = ORIENTED_EDGE ( 'NONE', *, *, #455, .F. ) ;
#177 = EDGE_CURVE ( 'NONE', #539, #903, #709, .T. ) ;
#178 = FACE_OUTER_BOUND ( 'NONE', #339, .T. ) ;
#179 = FACE_OUTER_BOUND ( 'NONE', #255, .T. ) ;
#180 = FACE_OUTER_BOUND ( 'NONE', #94, .T. ) ;
#181 = CARTESIAN_POINT ( 'NONE',  ( 0.03006401965693189168, -2.541655722707600873, -0.6767682482360296570 ) ) ;
#182 = VERTEX_POINT ( 'NONE', #353 ) ;
#183 = LINE ( 'NONE', #887, #200 ) ;
#184 = DIRECTION ( 'NONE',  ( 0.000000000000000000, 0.000000000000000000, -1.000000000000000000 ) ) ;
#185 = DIRECTION ( 'NONE',  ( 0.000000000000000000, 1.000000000000000000, 0.000000000000000000 ) ) ;
#186 = AXIS2_PLACEMENT_3D ( 'NONE', #266, #185, #464 ) ;
#187 = EDGE_CURVE ( 'NONE', #732, #182, #219, .T. ) ;
#188 = CC_DESIGN_APPROVAL ( #883, ( #386 ) ) ;
#189 = DIRECTION ( 'NONE',  ( -0.000000000000000000, -0.000000000000000000, 1.000000000000000000 ) ) ;
#190 = CARTESIAN_POINT ( 'NONE',  ( 0.000000000000000000, -4.000000000000000000, 0.000000000000000000 ) ) ;
#191 = VERTEX_POINT ( 'NONE', #210 ) ;
#192 = EDGE_LOOP ( 'NONE', ( #533, #166, #470, #275 ) ) ;
#193 = CARTESIAN_POINT ( 'NONE',  ( 0.000000000000000000, 1.399999999999999911, 0.000000000000000000 ) ) ;
#194 = CARTESIAN_POINT ( 'NONE',  ( 0.2262713958367468248, -2.222191820342232393, 0.6446178133086227779 ) ) ;
#195 = EDGE_LOOP ( 'NONE', ( #104, #621, #688, #452 ) ) ;
#196 = VERTEX_POINT ( 'NONE', #777 ) ;
#197 = APPROVAL ( #734, 'UNSPECIFIED' ) ;
#198 = CARTESIAN_POINT ( 'NONE',  ( 1.102182119232617541E-16, 1.400000000000000133, 0.9000000000000000222 ) ) ;
#199 = CLOSED_SHELL ( 'NONE', ( #110, #888, #434, #664, #13, #44, #596, #442, #70, #521, #694, #622, #272, #105, #493, #693, #81, #469, #802, #373, #789, #432, #407, #725, #354, #206, #385, #461, #231, #243 ) ) ;
#200 = VECTOR ( 'NONE', #256, 999.9999999999998863 ) ;
#201 = ORIENTED_EDGE ( 'NONE', *, *, #560, .F. ) ;
#202 = EDGE_CURVE ( 'NONE', #380, #364, #595, .T. ) ;
#203 = DIRECTION ( 'NONE',  ( -0.000000000000000000, -0.000000000000000000, 1.000000000000000000 ) ) ;
#204 = EDGE_CURVE ( 'NONE', #360, #303, #430, .T. ) ;
#205 = DIRECTION ( 'NONE',  ( 0.000000000000000000, 1.000000000000000000, 0.000000000000000000 ) ) ;
#206 = ADVANCED_FACE ( 'NONE', ( #179 ), #318, .T. ) ;
#207 = DIRECTION ( 'NONE',  ( 0.000000000000000000, -0.000000000000000000, 1.000000000000000000 ) ) ;
#208 = DIRECTION ( 'NONE',  ( -0.000000000000000000, -1.000000000000000000, -0.000000000000000000 ) ) ;
#209 = DIRECTION ( 'NONE',  ( -3.401796664298201641E-18, -1.000000000000000000, 0.000000000000000000 ) ) ;
#210 = CARTESIAN_POINT ( 'NONE',  ( 0.000000000000000000, 2.000000000000000000, -0.7399999999999999911 ) ) ;
#211 = CARTESIAN_POINT ( 'NONE',  ( -2.168404344971008868E-16, -4.000000000000000000, 0.5000000000000000000 ) ) ;
#212 = CARTESIAN_POINT ( 'NONE',  ( -2.168404344971008868E-16, -4.000000000000000000, 0.6750000000000000444 ) ) ;
#213 = EDGE_CURVE ( 'NONE', #468, #131, #344, .T. ) ;
#214 = AXIS2_PLACEMENT_3D ( 'NONE', #254, #522, #413 ) ;
#215 = AXIS2_PLACEMENT_3D ( 'NONE', #810, #454, #109 ) ;
#216 = CARTESIAN_POINT ( 'NONE',  ( -2.168404344971008868E-16, -4.000000000000000000, -0.6750000000000000444 ) ) ;
#217 = DIRECTION ( 'NONE',  ( 1.000000000000000000, 0.000000000000000000, 0.000000000000000000 ) ) ;
#218 = LINE ( 'NONE', #603, #291 ) ;
#219 = LINE ( 'NONE', #282, #322 ) ;
#220 = CARTESIAN_POINT ( 'NONE',  ( -2.168404344971008868E-16, -4.000000000000000000, -1.000000000000000000 ) ) ;
#221 = CARTESIAN_POINT ( 'NONE',  ( 0.000000000000000000, 0.4000000000000000222, 0.000000000000000000 ) ) ;
#222 = VERTEX_POINT ( 'NONE', #648 ) ;
#223 = DIRECTION ( 'NONE',  ( -1.000000000000000000, 0.000000000000000000, 0.000000000000000000 ) ) ;
#224 = APPROVAL_DATE_TIME ( #235, #785 ) ;
#225 = CC_DESIGN_PERSON_AND_ORGANIZATION_ASSIGNMENT ( #153, #431, ( #134 ) ) ;
#226 = ORIENTED_EDGE ( 'NONE', *, *, #343, .F. ) ;
#227 = DIRECTION ( 'NONE',  ( -0.000000000000000000, -1.000000000000000000, -0.000000000000000000 ) ) ;
#228 = AXIS2_PLACEMENT_3D ( 'NONE', #565, #436, #568 ) ;
#229 = AXIS2_PLACEMENT_3D ( 'NONE', #190, #614, #751 ) ;
#230 = DIRECTION ( 'NONE',  ( 1.000000000000000000, 0.000000000000000000, 0.000000000000000000 ) ) ;
#231 = ADVANCED_FACE ( 'NONE', ( #383 ), #882, .T. ) ;
#232 = CIRCLE ( 'NONE', #262, 1.000000000000000000 ) ;
#233 = ORIENTED_EDGE ( 'NONE', *, *, #177, .T. ) ;
#234 = CARTESIAN_POINT ( 'NONE',  ( 0.000000000000000000, 6.500000000000000888, 0.000000000000000000 ) ) ;
#235 = DATE_AND_TIME ( #162, #765 ) ;
#236 = ORIENTED_EDGE ( 'NONE', *, *, #620, .F. ) ;
#237 = PLANE ( 'NONE',  #352 ) ;
#238 = CARTESIAN_POINT ( 'NONE',  ( 0.000000000000000000, 0.000000000000000000, 0.000000000000000000 ) ) ;
#239 = PERSON_AND_ORGANIZATION_ROLE ( 'classification_officer' ) ;
#240 = ORIENTED_EDGE ( 'NONE', *, *, #204, .F. ) ;
#241 = CARTESIAN_POINT ( 'NONE',  ( 0.000000000000000000, -2.793095335300976867, -1.000000000000000000 ) ) ;
#242 = VECTOR ( 'NONE', #368, 1000.000000000000000 ) ;
#243 = ADVANCED_FACE ( 'NONE', ( #580 ), #155, .T. ) ;
#244 = CARTESIAN_POINT ( 'NONE',  ( 0.000000000000000000, 12.69303607231218045, 0.000000000000000000 ) ) ;
#245 = EDGE_CURVE ( 'NONE', #506, #638, #809, .T. ) ;
#246 = CIRCLE ( 'NONE', #276, 0.5000000000000000000 ) ;
#247 = AXIS2_PLACEMENT_3D ( 'NONE', #32, #227, #500 ) ;
#248 = DIRECTION ( 'NONE',  ( 0.000000000000000000, 0.000000000000000000, 1.000000000000000000 ) ) ;
#249 = VECTOR ( 'NONE', #203, 1000.000000000000000 ) ;
#250 = DIRECTION ( 'NONE',  ( -3.401796664298201641E-18, -1.000000000000000000, 0.000000000000000000 ) ) ;
#251 = ORIENTED_EDGE ( 'NONE', *, *, #502, .T. ) ;
#252 = DIRECTION ( 'NONE',  ( 0.000000000000000000, 0.000000000000000000, -1.000000000000000000 ) ) ;
#253 = DIRECTION ( 'NONE',  ( 0.000000000000000000, 1.000000000000000000, 0.000000000000000000 ) ) ;
#254 = CARTESIAN_POINT ( 'NONE',  ( 0.000000000000000000, 2.000000000000000000, 0.000000000000000000 ) ) ;
#255 = EDGE_LOOP ( 'NONE', ( #684, #838, #758, #445 ) ) ;
#256 = DIRECTION ( 'NONE',  ( 0.000000000000000000, -0.9701425001453317654, -0.2425356250363339683 ) ) ;
#257 = FACE_OUTER_BOUND ( 'NONE', #617, .T. ) ;
#258 = CARTESIAN_POINT ( 'NONE',  ( -7.115076756936135174E-17, -2.666531775160388307, -0.6750000000000000444 ) ) ;
#259 = ORIENTED_EDGE ( 'NONE', *, *, #371, .T. ) ;
#260 = LINE ( 'NONE', #124, #143 ) ;
#261 = CIRCLE ( 'NONE', #864, 0.7650000000000000133 ) ;
#262 = AXIS2_PLACEMENT_3D ( 'NONE', #362, #348, #908 ) ;
#263 = ORIENTED_EDGE ( 'NONE', *, *, #769, .T. ) ;
#264 = UNCERTAINTY_MEASURE_WITH_UNIT (LENGTH_MEASURE( 1.000000000000000082E-05 ), #136, 'distance_accuracy_value', 'NONE');
#265 = CARTESIAN_POINT ( 'NONE',  ( 0.000000000000000000, 4.063746750430836663, 0.000000000000000000 ) ) ;
#266 = CARTESIAN_POINT ( 'NONE',  ( 0.000000000000000000, 0.4000000000000000222, 0.000000000000000000 ) ) ;
#267 = EDGE_CURVE ( 'NONE', #468, #615, #421, .T. ) ;
#268 = DIRECTION ( 'NONE',  ( 0.000000000000000000, 0.000000000000000000, -1.000000000000000000 ) ) ;
#269 = DIRECTION ( 'NONE',  ( 0.000000000000000000, 0.000000000000000000, -1.000000000000000000 ) ) ;
#270 = EDGE_CURVE ( 'NONE', #665, #271, #161, .T. ) ;
#271 = VERTEX_POINT ( 'NONE', #586 ) ;
#272 = ADVANCED_FACE ( 'NONE', ( #21, #164 ), #737, .T. ) ;
#273 = CARTESIAN_POINT ( 'NONE',  ( 0.8034260821304952671, -2.793095335300976867, -1.000000000000000000 ) ) ;
#274 = VECTOR ( 'NONE', #813, 1000.000000000000000 ) ;
#275 = ORIENTED_EDGE ( 'NONE', *, *, #213, .F. ) ;
#276 = AXIS2_PLACEMENT_3D ( 'NONE', #759, #831, #116 ) ;
#277 = CC_DESIGN_SECURITY_CLASSIFICATION ( #367, ( #386 ) ) ;
#278 = ORIENTED_EDGE ( 'NONE', *, *, #371, .F. ) ;
#279 = CYLINDRICAL_SURFACE ( 'NONE', #449, 0.8034260821304954892 ) ;
#280 = DIRECTION ( 'NONE',  ( -0.000000000000000000, -0.000000000000000000, 1.000000000000000000 ) ) ;
#281 = ORIENTED_EDGE ( 'NONE', *, *, #898, .F. ) ;
#282 = CARTESIAN_POINT ( 'NONE',  ( 0.000000000000000000, 4.063746750430836663, -0.7650000000000000133 ) ) ;
#283 = DIRECTION ( 'NONE',  ( -3.401796664298201641E-18, -1.000000000000000000, 0.000000000000000000 ) ) ;
#284 = EDGE_CURVE ( 'NONE', #615, #446, #904, .T. ) ;
#285 = DIRECTION ( 'NONE',  ( 0.000000000000000000, 1.000000000000000000, 0.000000000000000000 ) ) ;
#286 = DIRECTION ( 'NONE',  ( 0.000000000000000000, 0.000000000000000000, 1.000000000000000000 ) ) ;
#287 = LINE ( 'NONE', #476, #559 ) ;
#288 = DIRECTION ( 'NONE',  ( 0.000000000000000000, -1.000000000000000000, 0.000000000000000000 ) ) ;
#289 = AXIS2_PLACEMENT_3D ( 'NONE', #774, #288, #425 ) ;
#290 = CIRCLE ( 'NONE', #542, 0.5400000000000000355 ) ;
#291 = VECTOR ( 'NONE', #818, 1000.000000000000000 ) ;
#292 = DIRECTION ( 'NONE',  ( 1.224646799147353454E-16, 0.000000000000000000, -1.000000000000000000 ) ) ;
#293 = DIRECTION ( 'NONE',  ( 3.401796664298201641E-18, 1.000000000000000000, -0.000000000000000000 ) ) ;
#294 = DIRECTION ( 'NONE',  ( 0.000000000000000000, 0.000000000000000000, 1.000000000000000000 ) ) ;
#295 = ORIENTED_EDGE ( 'NONE', *, *, #851, .F. ) ;
#296 = LINE ( 'NONE', #478, #9 ) ;
#297 = EDGE_CURVE ( 'NONE', #196, #511, #305, .T. ) ;
#298 = PERSON_AND_ORGANIZATION ( #877, #529 ) ;
#299 = EDGE_LOOP ( 'NONE', ( #792, #509 ) ) ;
#300 = EDGE_CURVE ( 'NONE', #360, #612, #727, .T. ) ;
#301 = CARTESIAN_POINT ( 'NONE',  ( 0.000000000000000000, 5.345584412271571217, -0.9000000000000000222 ) ) ;
#302 = APPLICATION_PROTOCOL_DEFINITION ( 'international standard', 'config_control_design', 1994, #334 ) ;
#303 = VERTEX_POINT ( 'NONE', #169 ) ;
#304 = DIRECTION ( 'NONE',  ( 0.000000000000000000, -0.000000000000000000, 1.000000000000000000 ) ) ;
#305 = CIRCLE ( 'NONE', #639, 0.6750000000000000444 ) ;
#306 = ORIENTED_EDGE ( 'NONE', *, *, #519, .T. ) ;
#307 = DIRECTION ( 'NONE',  ( 0.000000000000000000, 0.000000000000000000, 1.000000000000000000 ) ) ;
#308 = AXIS2_PLACEMENT_3D ( 'NONE', #879, #135, #63 ) ;
#309 = PERSON_AND_ORGANIZATION ( #877, #529 ) ;
#310 = AXIS2_PLACEMENT_3D ( 'NONE', #193, #127, #889 ) ;
#311 = EDGE_LOOP ( 'NONE', ( #31, #24, #820, #840, #154 ) ) ;
#312 = CYLINDRICAL_SURFACE ( 'NONE', #718, 0.5000000000000000000 ) ;
#313 = EDGE_LOOP ( 'NONE', ( #400, #477, #631 ) ) ;
#314 = CARTESIAN_POINT ( 'NONE',  ( 0.000000000000000000, -2.793095335300976867, 0.5000000000000000000 ) ) ;
#315 = ORIENTED_EDGE ( 'NONE', *, *, #663, .T. ) ;
#316 = EDGE_CURVE ( 'NONE', #863, #360, #757, .T. ) ;
#317 = EDGE_LOOP ( 'NONE', ( #404, #886, #332, #414 ) ) ;
#318 = CYLINDRICAL_SURFACE ( 'NONE', #540, 0.5000000000000000000 ) ;
#319 = SECURITY_CLASSIFICATION_LEVEL ( 'unclassified' ) ;
#320 = ORIENTED_EDGE ( 'NONE', *, *, #898, .T. ) ;
#321 = FACE_OUTER_BOUND ( 'NONE', #121, .T. ) ;
#322 = VECTOR ( 'NONE', #152, 1000.000000000000000 ) ;
#323 = EDGE_LOOP ( 'NONE', ( #201, #538 ) ) ;
#324 = CARTESIAN_POINT ( 'NONE',  ( 0.3573485783300344720, -2.121932098484049511, 0.3629307730078977223 ) ) ;
#325 = CIRCLE ( 'NONE', #247, 0.7399999999999999911 ) ;
#326 = CARTESIAN_POINT ( 'NONE',  ( 0.000000000000000000, 4.063746750430836663, 0.000000000000000000 ) ) ;
#327 = LOCAL_TIME ( 14, 42, 8.000000000000000000, #874 ) ;
#328 = DIRECTION ( 'NONE',  ( -1.000000000000000000, 0.000000000000000000, 0.000000000000000000 ) ) ;
#329 = FACE_OUTER_BOUND ( 'NONE', #582, .T. ) ;
#330 = ORIENTED_EDGE ( 'NONE', *, *, #459, .F. ) ;
#331 = DIRECTION ( 'NONE',  ( -0.000000000000000000, -1.000000000000000000, -0.000000000000000000 ) ) ;
#332 = ORIENTED_EDGE ( 'NONE', *, *, #677, .T. ) ;
#333 = DIRECTION ( 'NONE',  ( 0.000000000000000000, 1.000000000000000000, 0.000000000000000000 ) ) ;
#334 = APPLICATION_CONTEXT ( 'configuration controlled 3d designs of mechanical parts and assemblies' ) ;
#335 = CIRCLE ( 'NONE', #821, 1.000000000000000000 ) ;
#336 = AXIS2_PLACEMENT_3D ( 'NONE', #536, #423, #223 ) ;
#337 = CARTESIAN_POINT ( 'NONE',  ( 0.4135865334288973960, -2.081179772392521166, -0.5436726075144500125 ) ) ;
#338 = VECTOR ( 'NONE', #208, 1000.000000000000000 ) ;
#339 = EDGE_LOOP ( 'NONE', ( #226, #739, #159, #40 ) ) ;
#340 = ORIENTED_EDGE ( 'NONE', *, *, #14, .T. ) ;
#341 = DIRECTION ( 'NONE',  ( 2.970204768799490475E-17, -0.9701425001453317654, 0.2425356250363339683 ) ) ;
#342 = ORIENTED_EDGE ( 'NONE', *, *, #187, .F. ) ;
#343 = EDGE_CURVE ( 'NONE', #380, #475, #325, .T. ) ;
#344 = LINE ( 'NONE', #439, #669 ) ;
#345 = CYLINDRICAL_SURFACE ( 'NONE', #895, 0.7399999999999999911 ) ;
#346 = CARTESIAN_POINT ( 'NONE',  ( 0.6752597246919850305, -1.999957942236521458, -0.1239852538863382564 ) ) ;
#347 = CARTESIAN_POINT ( 'NONE',  ( 9.368548013477252244E-17, 4.063746750430836663, 0.7650000000000000133 ) ) ;
#348 = DIRECTION ( 'NONE',  ( 0.000000000000000000, 1.000000000000000000, 0.000000000000000000 ) ) ;
#349 = AXIS2_PLACEMENT_3D ( 'NONE', #635, #8, #292 ) ;
#350 = FACE_OUTER_BOUND ( 'NONE', #660, .T. ) ;
#351 = AXIS2_PLACEMENT_3D ( 'NONE', #551, #841, #207 ) ;
#352 = AXIS2_PLACEMENT_3D ( 'NONE', #241, #589, #742 ) ;
#353 = CARTESIAN_POINT ( 'NONE',  ( 0.000000000000000000, 1.399999999999999911, -0.7650000000000000133 ) ) ;
#354 = ADVANCED_FACE ( 'NONE', ( #795 ), #747, .T. ) ;
#355 = CARTESIAN_POINT ( 'NONE',  ( 4.299592564993995338E-16, -0.4000000000000000222, 0.5000000000000000000 ) ) ;
#356 = DIRECTION ( 'NONE',  ( -0.000000000000000000, -1.000000000000000000, -0.000000000000000000 ) ) ;
#357 = LINE ( 'NONE', #850, #242 ) ;
#358 = CARTESIAN_POINT ( 'NONE',  ( -2.168404344971008868E-16, -4.000000000000000000, -0.6750000000000000444 ) ) ;
#359 = DIRECTION ( 'NONE',  ( 0.000000000000000000, 0.000000000000000000, -1.000000000000000000 ) ) ;
#360 = VERTEX_POINT ( 'NONE', #676 ) ;
#361 = FACE_OUTER_BOUND ( 'NONE', #58, .T. ) ;
#362 = CARTESIAN_POINT ( 'NONE',  ( 0.000000000000000000, 0.4000000000000000222, 0.000000000000000000 ) ) ;
#363 = DIRECTION ( 'NONE',  ( 0.000000000000000000, 1.000000000000000000, 0.000000000000000000 ) ) ;
#364 = VERTEX_POINT ( 'NONE', #599 ) ;
#365 = CC_DESIGN_DATE_AND_TIME_ASSIGNMENT ( #85, #581, ( #367 ) ) ;
#366 = AXIS2_PLACEMENT_3D ( 'NONE', #656, #873, #518 ) ;
#367 = SECURITY_CLASSIFICATION ( '', '', #319 ) ;
#368 = DIRECTION ( 'NONE',  ( 3.401796664298201641E-18, 1.000000000000000000, -0.000000000000000000 ) ) ;
#369 = SHAPE_DEFINITION_REPRESENTATION ( #412, #618 ) ;
#370 = ORIENTED_EDGE ( 'NONE', *, *, #491, .F. ) ;
#371 = EDGE_CURVE ( 'NONE', #191, #732, #183, .T. ) ;
#372 = EDGE_CURVE ( 'NONE', #770, #377, #523, .T. ) ;
#373 = ADVANCED_FACE ( 'NONE', ( #101 ), #555, .F. ) ;
#374 = DIRECTION ( 'NONE',  ( 0.000000000000000000, 1.000000000000000000, 0.000000000000000000 ) ) ;
#375 = COORDINATED_UNIVERSAL_TIME_OFFSET ( 8, 0, .AHEAD. ) ;
#376 = EDGE_LOOP ( 'NONE', ( #756, #160, #550, #387 ) ) ;
#377 = VERTEX_POINT ( 'NONE', #726 ) ;
#378 = DIRECTION ( 'NONE',  ( -0.000000000000000000, -1.000000000000000000, -0.000000000000000000 ) ) ;
#379 = DATE_AND_TIME ( #30, #327 ) ;
#380 = VERTEX_POINT ( 'NONE', #391 ) ;
#381 = DIRECTION ( 'NONE',  ( 0.000000000000000000, 1.000000000000000000, 0.000000000000000000 ) ) ;
#382 = ORIENTED_EDGE ( 'NONE', *, *, #767, .F. ) ;
#383 = FACE_OUTER_BOUND ( 'NONE', #317, .T. ) ;
#384 = AXIS2_PLACEMENT_3D ( 'NONE', #265, #825, #268 ) ;
#385 = ADVANCED_FACE ( 'NONE', ( #731, #92 ), #880, .T. ) ;
#386 = PRODUCT_DEFINITION_FORMATION_WITH_SPECIFIED_SOURCE ( 'ANY', '', #752, .NOT_KNOWN. ) ;
#387 = ORIENTED_EDGE ( 'NONE', *, *, #677, .F. ) ;
#388 = CARTESIAN_POINT ( 'NONE',  ( 0.5000000000000245359, -2.049169208504350248, -8.989362750738699701E-14 ) ) ;
#389 = DATE_AND_TIME ( #97, #130 ) ;
#390 = EDGE_LOOP ( 'NONE', ( #598, #340 ) ) ;
#391 = CARTESIAN_POINT ( 'NONE',  ( 9.062386313690413388E-17, 5.100000000000000533, -0.7399999999999999911 ) ) ;
#392 = DIRECTION ( 'NONE',  ( 0.000000000000000000, 1.000000000000000000, 0.000000000000000000 ) ) ;
#393 = CYLINDRICAL_SURFACE ( 'NONE', #627, 1.000000000000000000 ) ;
#394 = FACE_OUTER_BOUND ( 'NONE', #37, .T. ) ;
#395 = CARTESIAN_POINT ( 'NONE',  ( 1.224646799147352653E-17, -0.4000000000000000222, 0.000000000000000000 ) ) ;
#396 = CARTESIAN_POINT ( 'NONE',  ( 0.3568100244503847884, -2.122274984110582352, -0.3634641008016286090 ) ) ;
#397 = CIRCLE ( 'NONE', #228, 0.7650000000000000133 ) ;
#398 = EDGE_CURVE ( 'NONE', #472, #131, #670, .T. ) ;
#399 = MANIFOLD_SOLID_BREP ( '¶ñ®Æ-¦ùªø6', #199 ) ;
#400 = ORIENTED_EDGE ( 'NONE', *, *, #54, .F. ) ;
#401 = DIRECTION ( 'NONE',  ( 1.000000000000000000, 0.000000000000000000, 0.000000000000000000 ) ) ;
#402 = CARTESIAN_POINT ( 'NONE',  ( 0.000000000000000000, 1.399999999999999911, 0.000000000000000000 ) ) ;
#403 = CARTESIAN_POINT ( 'NONE',  ( 0.000000000000000000, 5.100000000000000533, 0.7399999999999999911 ) ) ;
#404 = ORIENTED_EDGE ( 'NONE', *, *, #830, .F. ) ;
#405 = CARTESIAN_POINT ( 'NONE',  ( 0.6384566186132951682, -2.003765464280298669, 0.2520841520614035547 ) ) ;
#406 = ORIENTED_EDGE ( 'NONE', *, *, #122, .F. ) ;
#407 = ADVANCED_FACE ( 'NONE', ( #321 ), #237, .F. ) ;
#408 = FACE_OUTER_BOUND ( 'NONE', #507, .T. ) ;
#409 = CIRCLE ( 'NONE', #100, 1.000000000000000000 ) ;
#410 = ORIENTED_EDGE ( 'NONE', *, *, #112, .T. ) ;
#411 = DIRECTION ( 'NONE',  ( 0.000000000000000000, 0.000000000000000000, -1.000000000000000000 ) ) ;
#412 = PRODUCT_DEFINITION_SHAPE ( 'NONE', 'NONE',  #134 ) ;
#413 = DIRECTION ( 'NONE',  ( 0.000000000000000000, 0.000000000000000000, 1.000000000000000000 ) ) ;
#414 = ORIENTED_EDGE ( 'NONE', *, *, #122, .T. ) ;
#415 = APPLICATION_CONTEXT ( 'configuration controlled 3d designs of mechanical parts and assemblies' ) ;
#416 = DIRECTION ( 'NONE',  ( 0.000000000000000000, 0.000000000000000000, 1.000000000000000000 ) ) ;
#417 = CARTESIAN_POINT ( 'NONE',  ( 0.000000000000000000, 0.000000000000000000, 0.000000000000000000 ) ) ;
#418 = ORIENTED_EDGE ( 'NONE', *, *, #663, .F. ) ;
#419 = FACE_OUTER_BOUND ( 'NONE', #824, .T. ) ;
#420 = LINE ( 'NONE', #427, #463 ) ;
#421 = CIRCLE ( 'NONE', #128, 0.5000000000000000000 ) ;
#422 = CIRCLE ( 'NONE', #462, 0.9000000000000000222 ) ;
#423 = DIRECTION ( 'NONE',  ( 3.401796664298201641E-18, 1.000000000000000000, -0.000000000000000000 ) ) ;
#424 = DIRECTION ( 'NONE',  ( -1.000000000000000000, 0.000000000000000000, 0.000000000000000000 ) ) ;
#425 = DIRECTION ( 'NONE',  ( 0.000000000000000000, 0.000000000000000000, -1.000000000000000000 ) ) ;
#426 = DIRECTION ( 'NONE',  ( 1.224646799147353207E-16, 0.000000000000000000, -1.000000000000000000 ) ) ;
#427 = CARTESIAN_POINT ( 'NONE',  ( 0.000000000000000000, -4.000000000000000000, 0.6750000000000000444 ) ) ;
#428 = CC_DESIGN_DATE_AND_TIME_ASSIGNMENT ( #165, #738, ( #134 ) ) ;
#429 = CARTESIAN_POINT ( 'NONE',  ( 0.000000000000000000, -2.793095335300976867, -0.6750000000000000444 ) ) ;
#430 = LINE ( 'NONE', #712, #861 ) ;
#431 = PERSON_AND_ORGANIZATION_ROLE ( 'creator' ) ;
#432 = ADVANCED_FACE ( 'NONE', ( #517 ), #811, .F. ) ;
#433 = ORIENTED_EDGE ( 'NONE', *, *, #398, .F. ) ;
#434 = ADVANCED_FACE ( 'NONE', ( #178 ), #594, .T. ) ;
#435 = AXIS2_PLACEMENT_3D ( 'NONE', #566, #878, #230 ) ;
#436 = DIRECTION ( 'NONE',  ( 0.000000000000000000, -1.000000000000000000, 0.000000000000000000 ) ) ;
#437 = APPLICATION_PROTOCOL_DEFINITION ( 'international standard', 'config_control_design', 1994, #415 ) ;
#438 = EDGE_LOOP ( 'NONE', ( #370, #406, #259, #418 ) ) ;
#439 = CARTESIAN_POINT ( 'NONE',  ( 0.000000000000000000, 15.41421356237309581, -0.5000000000000000000 ) ) ;
#440 = ORIENTED_EDGE ( 'NONE', *, *, #204, .T. ) ;
#441 = CARTESIAN_POINT ( 'NONE',  ( 0.000000000000000000, 5.100000000000000533, 0.000000000000000000 ) ) ;
#442 = ADVANCED_FACE ( 'NONE', ( #111 ), #312, .F. ) ;
#443 = ORIENTED_EDGE ( 'NONE', *, *, #54, .T. ) ;
#444 = DIRECTION ( 'NONE',  ( 0.000000000000000000, 0.000000000000000000, -1.000000000000000000 ) ) ;
#445 = ORIENTED_EDGE ( 'NONE', *, *, #531, .T. ) ;
#446 = VERTEX_POINT ( 'NONE', #900 ) ;
#447 = CARTESIAN_POINT ( 'NONE',  ( 4.218184327704250734E-16, -2.793095335300976867, -0.5000000000000000000 ) ) ;
#448 = VECTOR ( 'NONE', #69, 1000.000000000000000 ) ;
#449 = AXIS2_PLACEMENT_3D ( 'NONE', #273, #549, #217 ) ;
#450 = COORDINATED_UNIVERSAL_TIME_OFFSET ( 8, 0, .AHEAD. ) ;
#451 = ORIENTED_EDGE ( 'NONE', *, *, #112, .F. ) ;
#452 = ORIENTED_EDGE ( 'NONE', *, *, #270, .F. ) ;
#453 = DIRECTION ( 'NONE',  ( -0.000000000000000000, 1.000000000000000000, -0.000000000000000000 ) ) ;
#454 = DIRECTION ( 'NONE',  ( 0.000000000000000000, -1.000000000000000000, 0.000000000000000000 ) ) ;
#455 = EDGE_CURVE ( 'NONE', #91, #770, #807, .T. ) ;
#456 = CARTESIAN_POINT ( 'NONE',  ( 0.000000000000000000, -2.793095335300976867, -1.000000000000000000 ) ) ;
#457 = DIRECTION ( 'NONE',  ( -0.000000000000000000, -1.000000000000000000, -0.000000000000000000 ) ) ;
#458 = DIRECTION ( 'NONE',  ( 0.000000000000000000, 0.000000000000000000, 1.000000000000000000 ) ) ;
#459 = EDGE_CURVE ( 'NONE', #775, #191, #701, .T. ) ;
#460 = CARTESIAN_POINT ( 'NONE',  ( 0.1422520526055186529, -2.320016887512466486, 0.6622549194928387672 ) ) ;
#461 = ADVANCED_FACE ( 'NONE', ( #329 ), #485, .T. ) ;
#462 = AXIS2_PLACEMENT_3D ( 'NONE', #221, #205, #294 ) ;
#463 = VECTOR ( 'NONE', #75, 1000.000000000000000 ) ;
#464 = DIRECTION ( 'NONE',  ( 0.000000000000000000, 0.000000000000000000, 1.000000000000000000 ) ) ;
#465 = ORIENTED_EDGE ( 'NONE', *, *, #149, .F. ) ;
#466 = FACE_BOUND ( 'NONE', #473, .T. ) ;
#467 = CARTESIAN_POINT ( 'NONE',  ( 1.224646799147352653E-17, -0.4000000000000000222, 0.000000000000000000 ) ) ;
#468 = VERTEX_POINT ( 'NONE', #678 ) ;
#469 = ADVANCED_FACE ( 'NONE', ( #816 ), #680, .T. ) ;
#470 = ORIENTED_EDGE ( 'NONE', *, *, #398, .T. ) ;
#471 = CARTESIAN_POINT ( 'NONE',  ( 0.1438956430611855464, -2.317353432169126926, -0.6619766997458477187 ) ) ;
#472 = VERTEX_POINT ( 'NONE', #535 ) ;
#473 = EDGE_LOOP ( 'NONE', ( #34, #585 ) ) ;
#474 = CARTESIAN_POINT ( 'NONE',  ( 0.000000000000000000, -2.793095335300976867, -0.6750000000000000444 ) ) ;
#475 = VERTEX_POINT ( 'NONE', #403 ) ;
#476 = CARTESIAN_POINT ( 'NONE',  ( 1.224646799147352653E-17, -0.4000000000000000222, 0.000000000000000000 ) ) ;
#477 = ORIENTED_EDGE ( 'NONE', *, *, #851, .T. ) ;
#478 = CARTESIAN_POINT ( 'NONE',  ( 1.224646799147352653E-17, -0.4000000000000000222, 0.000000000000000000 ) ) ;
#479 = CYLINDRICAL_SURFACE ( 'NONE', #59, 0.5000000000000000000 ) ;
#480 = CARTESIAN_POINT ( 'NONE',  ( 1.102182119232617541E-16, 0.4000000000000000222, 0.9000000000000000222 ) ) ;
#481 = DIRECTION ( 'NONE',  ( 0.000000000000000000, -1.000000000000000000, 0.000000000000000000 ) ) ;
#482 = CARTESIAN_POINT ( 'NONE',  ( 9.062386313690413388E-17, 2.000000000000000000, 0.7399999999999999911 ) ) ;
#483 = DIRECTION ( 'NONE',  ( -0.000000000000000000, -1.000000000000000000, -0.000000000000000000 ) ) ;
#484 = AXIS2_PLACEMENT_3D ( 'NONE', #1, #156, #722 ) ;
#485 = TOROIDAL_SURFACE ( 'NONE', #761, 0.5400000000000000355, 0.2000000000000000111 ) ;
#486 = AXIS2_PLACEMENT_3D ( 'NONE', #744, #47, #600 ) ;
#487 = DIRECTION ( 'NONE',  ( 0.000000000000000000, -1.000000000000000000, 0.000000000000000000 ) ) ;
#488 = CARTESIAN_POINT ( 'NONE',  ( 0.000000000000000000, 12.69303607231218045, 0.000000000000000000 ) ) ;
#489 = DIRECTION ( 'NONE',  ( -0.000000000000000000, 1.000000000000000000, -0.000000000000000000 ) ) ;
#490 = CARTESIAN_POINT ( 'NONE',  ( 0.000000000000000000, -4.000000000000000000, 0.000000000000000000 ) ) ;
#491 = EDGE_CURVE ( 'NONE', #775, #812, #260, .T. ) ;
#492 = COORDINATED_UNIVERSAL_TIME_OFFSET ( 8, 0, .AHEAD. ) ;
#493 = ADVANCED_FACE ( 'NONE', ( #52 ), #674, .T. ) ;
#494 = EDGE_LOOP ( 'NONE', ( #681, #176, #410, #571 ) ) ;
#495 = LINE ( 'NONE', #216, #862 ) ;
#496 = EDGE_LOOP ( 'NONE', ( #330, #730, #591, #278 ) ) ;
#497 = DIRECTION ( 'NONE',  ( -0.000000000000000000, -1.000000000000000000, -0.000000000000000000 ) ) ;
#498 = AXIS2_PLACEMENT_3D ( 'NONE', #35, #865, #572 ) ;
#499 = AXIS2_PLACEMENT_3D ( 'NONE', #528, #123, #68 ) ;
#500 = DIRECTION ( 'NONE',  ( 0.000000000000000000, 0.000000000000000000, 1.000000000000000000 ) ) ;
#501 = ORIENTED_EDGE ( 'NONE', *, *, #187, .T. ) ;
#502 = EDGE_CURVE ( 'NONE', #271, #567, #95, .T. ) ;
#503 = ORIENTED_EDGE ( 'NONE', *, *, #372, .T. ) ;
#504 = CARTESIAN_POINT ( 'NONE',  ( -2.168404344971008868E-16, -4.000000000000000000, 0.6750000000000000444 ) ) ;
#505 = CALENDAR_DATE ( 2021, 18, 10 ) ;
#506 = VERTEX_POINT ( 'NONE', #198 ) ;
#507 = EDGE_LOOP ( 'NONE', ( #646, #853, #20, #564 ) ) ;
#508 = CARTESIAN_POINT ( 'NONE',  ( -1.177375796683477225E-16, -2.690950466766479199, 0.5000000000000000000 ) ) ;
#509 = ORIENTED_EDGE ( 'NONE', *, *, #776, .T. ) ;
#510 = AXIS2_PLACEMENT_3D ( 'NONE', #106, #392, #661 ) ;
#511 = VERTEX_POINT ( 'NONE', #885 ) ;
#512 = CARTESIAN_POINT ( 'NONE',  ( 0.000000000000000000, 15.41421356237309581, 0.000000000000000000 ) ) ;
#513 = AXIS2_PLACEMENT_3D ( 'NONE', #843, #483, #359 ) ;
#514 = CC_DESIGN_APPROVAL ( #785, ( #134 ) ) ;
#515 = CC_DESIGN_PERSON_AND_ORGANIZATION_ASSIGNMENT ( #804, #239, ( #367 ) ) ;
#516 = DIRECTION ( 'NONE',  ( -0.000000000000000000, -1.000000000000000000, -0.000000000000000000 ) ) ;
#517 = FACE_OUTER_BOUND ( 'NONE', #195, .T. ) ;
#518 = DIRECTION ( 'NONE',  ( 0.000000000000000000, 0.000000000000000000, -1.000000000000000000 ) ) ;
#519 = EDGE_CURVE ( 'NONE', #869, #896, #246, .T. ) ;
#520 = EDGE_CURVE ( 'NONE', #475, #380, #72, .T. ) ;
#521 = ADVANCED_FACE ( 'NONE', ( #408 ), #686, .T. ) ;
#522 = DIRECTION ( 'NONE',  ( -0.000000000000000000, 1.000000000000000000, -0.000000000000000000 ) ) ;
#523 = LINE ( 'NONE', #817, #834 ) ;
#524 = CARTESIAN_POINT ( 'NONE',  ( 0.000000000000000000, 0.4000000000000000222, 0.000000000000000000 ) ) ;
#525 = DIRECTION ( 'NONE',  ( -0.000000000000000000, -1.000000000000000000, -0.000000000000000000 ) ) ;
#526 = ORIENTED_EDGE ( 'NONE', *, *, #604, .T. ) ;
#527 = VECTOR ( 'NONE', #788, 1000.000000000000000 ) ;
#528 = CARTESIAN_POINT ( 'NONE',  ( 0.000000000000000000, -4.000000000000000000, 0.000000000000000000 ) ) ;
#529 = ORGANIZATION ( 'UNSPECIFIED', 'UNSPECIFIED', '' ) ;
#530 = DIRECTION ( 'NONE',  ( 0.000000000000000000, 1.000000000000000000, 0.000000000000000000 ) ) ;
#531 = EDGE_CURVE ( 'NONE', #131, #472, #653, .T. ) ;
#532 = ORIENTED_EDGE ( 'NONE', *, *, #267, .F. ) ;
#533 = ORIENTED_EDGE ( 'NONE', *, *, #267, .T. ) ;
#534 = DIRECTION ( 'NONE',  ( -1.000000000000000000, 0.000000000000000000, 0.000000000000000000 ) ) ;
#535 = CARTESIAN_POINT ( 'NONE',  ( 6.123233995736766036E-17, 5.299999999999999822, 0.5000000000000000000 ) ) ;
#536 = CARTESIAN_POINT ( 'NONE',  ( 1.190628832504370574E-17, -0.5000000000000000000, 0.000000000000000000 ) ) ;
#537 = CARTESIAN_POINT ( 'NONE',  ( -9.910285482875310269E-17, -2.666695972113223068, 0.6750000000000001554 ) ) ;
#538 = ORIENTED_EDGE ( 'NONE', *, *, #590, .F. ) ;
#539 = VERTEX_POINT ( 'NONE', #65 ) ;
#540 = AXIS2_PLACEMENT_3D ( 'NONE', #512, #457, #444 ) ;
#541 = DIRECTION ( 'NONE',  ( 0.000000000000000000, 1.000000000000000000, 0.000000000000000000 ) ) ;
#542 = AXIS2_PLACEMENT_3D ( 'NONE', #608, #541, #248 ) ;
#543 = LINE ( 'NONE', #355, #720 ) ;
#544 = AXIS2_PLACEMENT_3D ( 'NONE', #837, #3, #780 ) ;
#545 = CARTESIAN_POINT ( 'NONE',  ( 0.000000000000000000, 1.399999999999999911, 0.000000000000000000 ) ) ;
#546 = VERTEX_POINT ( 'NONE', #467 ) ;
#547 = ORIENTED_EDGE ( 'NONE', *, *, #791, .T. ) ;
#548 = EDGE_CURVE ( 'NONE', #182, #53, #261, .T. ) ;
#549 = DIRECTION ( 'NONE',  ( -0.000000000000000000, -0.000000000000000000, 1.000000000000000000 ) ) ;
#550 = ORIENTED_EDGE ( 'NONE', *, *, #459, .T. ) ;
#551 = CARTESIAN_POINT ( 'NONE',  ( 0.000000000000000000, 0.000000000000000000, 0.000000000000000000 ) ) ;
#552 = CARTESIAN_POINT ( 'NONE',  ( -0.5000000000000000000, -4.000000000000000000, 0.000000000000000000 ) ) ;
#553 = CYLINDRICAL_SURFACE ( 'NONE', #513, 0.5000000000000000000 ) ;
#554 = CARTESIAN_POINT ( 'NONE',  ( 9.368548013477252244E-17, 1.399999999999999911, 0.7650000000000000133 ) ) ;
#555 = CONICAL_SURFACE ( 'NONE', #167, 5000.000000000001819, 1.373400766945015894 ) ;
#556 = FACE_OUTER_BOUND ( 'NONE', #376, .T. ) ;
#557 = DIRECTION ( 'NONE',  ( -0.000000000000000000, -1.000000000000000000, -0.000000000000000000 ) ) ;
#558 = CIRCLE ( 'NONE', #172, 0.9000000000000000222 ) ;
#559 = VECTOR ( 'NONE', #710, 1000.000000000000000 ) ;
#560 = EDGE_CURVE ( 'NONE', #903, #638, #736, .T. ) ;
#561 = PLANE ( 'NONE',  #351 ) ;
#562 = LINE ( 'NONE', #839, #338 ) ;
#563 = CARTESIAN_POINT ( 'NONE',  ( -3.389550196306727964E-15, -1000.399999999999977, 0.000000000000000000 ) ) ;
#564 = ORIENTED_EDGE ( 'NONE', *, *, #177, .F. ) ;
#565 = CARTESIAN_POINT ( 'NONE',  ( 0.000000000000000000, 1.900000000000000133, 0.000000000000000000 ) ) ;
#566 = CARTESIAN_POINT ( 'NONE',  ( 0.000000000000000000, 0.000000000000000000, 0.000000000000000000 ) ) ;
#567 = VERTEX_POINT ( 'NONE', #429 ) ;
#568 = DIRECTION ( 'NONE',  ( 0.000000000000000000, 0.000000000000000000, -1.000000000000000000 ) ) ;
#569 = CALENDAR_DATE ( 2021, 18, 10 ) ;
#570 = AXIS2_PLACEMENT_3D ( 'NONE', #93, #328, #307 ) ;
#571 = ORIENTED_EDGE ( 'NONE', *, *, #828, .T. ) ;
#572 = DIRECTION ( 'NONE',  ( 0.000000000000000000, 0.000000000000000000, 1.000000000000000000 ) ) ;
#573 = AXIS2_PLACEMENT_3D ( 'NONE', #441, #381, #27 ) ;
#574 = ORIENTED_EDGE ( 'NONE', *, *, #592, .T. ) ;
#575 = APPROVAL_PERSON_ORGANIZATION ( #577, #883, #723 ) ;
#576 = DIRECTION ( 'NONE',  ( 0.000000000000000000, 0.000000000000000000, -1.000000000000000000 ) ) ;
#577 = PERSON_AND_ORGANIZATION ( #877, #529 ) ;
#578 = ORIENTED_EDGE ( 'NONE', *, *, #858, .T. ) ;
#579 = DIRECTION ( 'NONE',  ( 3.401796664298201641E-18, 1.000000000000000000, -0.000000000000000000 ) ) ;
#580 = FACE_OUTER_BOUND ( 'NONE', #438, .T. ) ;
#581 = DATE_TIME_ROLE ( 'classification_date' ) ;
#582 = EDGE_LOOP ( 'NONE', ( #894, #829, #872, #141 ) ) ;
#583 = DIRECTION ( 'NONE',  ( 1.000000000000000000, 0.000000000000000000, 0.000000000000000000 ) ) ;
#584 = CC_DESIGN_PERSON_AND_ORGANIZATION_ASSIGNMENT ( #800, #90, ( #386 ) ) ;
#585 = ORIENTED_EDGE ( 'NONE', *, *, #764, .F. ) ;
#586 = CARTESIAN_POINT ( 'NONE',  ( 0.000000000000000000, -2.793095335300976867, 0.6750000000000000444 ) ) ;
#587 = APPROVAL_DATE_TIME ( #389, #197 ) ;
#588 = VERTEX_POINT ( 'NONE', #630 ) ;
#589 = DIRECTION ( 'NONE',  ( -1.000000000000000000, 1.796665808323612280E-16, 0.000000000000000000 ) ) ;
#590 = EDGE_CURVE ( 'NONE', #638, #903, #422, .T. ) ;
#591 = ORIENTED_EDGE ( 'NONE', *, *, #83, .F. ) ;
#592 = EDGE_CURVE ( 'NONE', #869, #801, #138, .T. ) ;
#593 = CARTESIAN_POINT ( 'NONE',  ( 0.4668780364467113864, -2.060837689731227496, -0.2035790883256035355 ) ) ;
#594 = TOROIDAL_SURFACE ( 'NONE', #573, 0.5400000000000000355, 0.2000000000000000111 ) ;
#595 = CIRCLE ( 'NONE', #349, 0.1999999999999999833 ) ;
#596 = ADVANCED_FACE ( 'NONE', ( #350 ), #25, .F. ) ;
#597 = DIRECTION ( 'NONE',  ( -0.000000000000000000, -1.000000000000000000, -0.000000000000000000 ) ) ;
#598 = ORIENTED_EDGE ( 'NONE', *, *, #23, .T. ) ;
#599 = CARTESIAN_POINT ( 'NONE',  ( 7.837739514543060427E-17, 5.299999999999999822, -0.5400000000000000355 ) ) ;
#600 = DIRECTION ( 'NONE',  ( 0.000000000000000000, 0.000000000000000000, 1.000000000000000000 ) ) ;
#601 = DIRECTION ( 'NONE',  ( 0.000000000000000000, 0.000000000000000000, 1.000000000000000000 ) ) ;
#602 = ORIENTED_EDGE ( 'NONE', *, *, #690, .T. ) ;
#603 = CARTESIAN_POINT ( 'NONE',  ( -2.168404344971008868E-16, -4.000000000000000000, -1.000000000000000000 ) ) ;
#604 = EDGE_CURVE ( 'NONE', #377, #222, #335, .T. ) ;
#605 = DIRECTION ( 'NONE',  ( 0.000000000000000000, 1.000000000000000000, 0.000000000000000000 ) ) ;
#606 = EDGE_LOOP ( 'NONE', ( #125, #433 ) ) ;
#607 = AXIS2_PLACEMENT_3D ( 'NONE', #60, #333, #416 ) ;
#608 = CARTESIAN_POINT ( 'NONE',  ( 0.000000000000000000, 5.299999999999999822, 0.000000000000000000 ) ) ;
#609 = CIRCLE ( 'NONE', #749, 0.5000000000000000000 ) ;
#610 = CIRCLE ( 'NONE', #640, 0.5000000000000000000 ) ;
#611 = CARTESIAN_POINT ( 'NONE',  ( 0.000000000000000000, 5.345584412271571217, 0.000000000000000000 ) ) ;
#612 = VERTEX_POINT ( 'NONE', #697 ) ;
#613 = SPHERICAL_SURFACE ( 'NONE', #308, 0.5000000000000000000 ) ;
#614 = DIRECTION ( 'NONE',  ( 0.000000000000000000, -1.000000000000000000, 0.000000000000000000 ) ) ;
#615 = VERTEX_POINT ( 'NONE', #786 ) ;
#616 = PRODUCT_RELATED_PRODUCT_CATEGORY ( 'detail', '', ( #752 ) ) ;
#617 = EDGE_LOOP ( 'NONE', ( #650, #503, #526, #451 ) ) ;
#618 = ADVANCED_BREP_SHAPE_REPRESENTATION ( 'PH-MVS-5370', ( #399, #435 ), #703 ) ;
#619 = DIRECTION ( 'NONE',  ( 3.401796664298201641E-18, 1.000000000000000000, -0.000000000000000000 ) ) ;
#620 = EDGE_CURVE ( 'NONE', #567, #196, #708, .T. ) ;
#621 = ORIENTED_EDGE ( 'NONE', *, *, #791, .F. ) ;
#622 = ADVANCED_FACE ( 'NONE', ( #783 ), #87, .T. ) ;
#623 = AXIS2_PLACEMENT_3D ( 'NONE', #139, #77, #286 ) ;
#624 = FACE_OUTER_BOUND ( 'NONE', #311, .T. ) ;
#625 = AXIS2_PLACEMENT_3D ( 'NONE', #456, #798, #651 ) ;
#626 = CARTESIAN_POINT ( 'NONE',  ( 0.000000000000000000, 0.4000000000000000222, 0.000000000000000000 ) ) ;
#627 = AXIS2_PLACEMENT_3D ( 'NONE', #524, #107, #51 ) ;
#628 = DIRECTION ( 'NONE',  ( 0.000000000000000000, 0.000000000000000000, -1.000000000000000000 ) ) ;
#629 = CARTESIAN_POINT ( 'NONE',  ( -0.5000000000000000000, -0.5000000000000000000, 0.000000000000000000 ) ) ;
#630 = CARTESIAN_POINT ( 'NONE',  ( 0.000000000000000000, 5.299999999999999822, 0.5400000000000000355 ) ) ;
#631 = ORIENTED_EDGE ( 'NONE', *, *, #46, .F. ) ;
#632 = LINE ( 'NONE', #699, #527 ) ;
#633 = EDGE_CURVE ( 'NONE', #567, #863, #634, .T. ) ;
#634 = LINE ( 'NONE', #716, #845 ) ;
#635 = CARTESIAN_POINT ( 'NONE',  ( 6.613092715395707467E-17, 5.100000000000000533, -0.5400000000000000355 ) ) ;
#636 = FACE_OUTER_BOUND ( 'NONE', #797, .T. ) ;
#637 = DIRECTION ( 'NONE',  ( 0.000000000000000000, 0.000000000000000000, 1.000000000000000000 ) ) ;
#638 = VERTEX_POINT ( 'NONE', #480 ) ;
#639 = AXIS2_PLACEMENT_3D ( 'NONE', #238, #799, #576 ) ;
#640 = AXIS2_PLACEMENT_3D ( 'NONE', #750, #814, #534 ) ;
#641 = DIRECTION ( 'NONE',  ( 3.401796664298201641E-18, 1.000000000000000000, -0.000000000000000000 ) ) ;
#642 = ORIENTED_EDGE ( 'NONE', *, *, #519, .F. ) ;
#643 = ORIENTED_EDGE ( 'NONE', *, *, #767, .T. ) ;
#644 = CARTESIAN_POINT ( 'NONE',  ( 0.000000000000000000, 0.4000000000000000222, -1.000000000000000000 ) ) ;
#645 = APPROVAL_ROLE ( '' ) ;
#646 = ORIENTED_EDGE ( 'NONE', *, *, #137, .F. ) ;
#647 = CARTESIAN_POINT ( 'NONE',  ( 0.000000000000000000, 5.299999999999999822, 0.000000000000000000 ) ) ;
#648 = CARTESIAN_POINT ( 'NONE',  ( 0.000000000000000000, 0.000000000000000000, -1.000000000000000000 ) ) ;
#649 = APPROVAL_DATE_TIME ( #379, #883 ) ;
#650 = ORIENTED_EDGE ( 'NONE', *, *, #776, .F. ) ;
#651 = DIRECTION ( 'NONE',  ( -1.796665808323612280E-16, -1.000000000000000000, 0.000000000000000000 ) ) ;
#652 = CIRCLE ( 'NONE', #484, 0.7399999999999999911 ) ;
#653 = CIRCLE ( 'NONE', #748, 0.5000000000000000000 ) ;
#654 = ORIENTED_EDGE ( 'NONE', *, *, #858, .F. ) ;
#655 = VECTOR ( 'NONE', #189, 1000.000000000000000 ) ;
#656 = CARTESIAN_POINT ( 'NONE',  ( 0.000000000000000000, 2.000000000000000000, 0.000000000000000000 ) ) ;
#657 = APPROVAL_STATUS ( 'not_yet_approved' ) ;
#658 = ORIENTED_EDGE ( 'NONE', *, *, #108, .T. ) ;
#659 = CARTESIAN_POINT ( 'NONE',  ( -3.389550196306727964E-15, -1000.399999999999977, 0.000000000000000000 ) ) ;
#660 = EDGE_LOOP ( 'NONE', ( #295, #443, #18 ) ) ;
#661 = DIRECTION ( 'NONE',  ( 0.000000000000000000, -0.000000000000000000, 1.000000000000000000 ) ) ;
#662 = ORIENTED_EDGE ( 'NONE', *, *, #108, .F. ) ;
#663 = EDGE_CURVE ( 'NONE', #812, #732, #682, .T. ) ;
#664 = ADVANCED_FACE ( 'NONE', ( #702 ), #553, .T. ) ;
#665 = VERTEX_POINT ( 'NONE', #212 ) ;
#666 = CARTESIAN_POINT ( 'NONE',  ( 0.1503976986129293147, -2.315269701502573163, -0.4823772768739078010 ) ) ;
#667 = CARTESIAN_POINT ( 'NONE',  ( 0.000000000000000000, -2.793095335300976867, -1.000000000000000000 ) ) ;
#668 = ORIENTED_EDGE ( 'NONE', *, *, #592, .F. ) ;
#669 = VECTOR ( 'NONE', #45, 1000.000000000000000 ) ;
#670 = CIRCLE ( 'NONE', #498, 0.5000000000000000000 ) ;
#671 = ORIENTED_EDGE ( 'NONE', *, *, #687, .T. ) ;
#672 = CARTESIAN_POINT ( 'NONE',  ( 0.4999999999999805156, -2.049169208504449280, -0.1018627253772864533 ) ) ;
#673 = AXIS2_PLACEMENT_3D ( 'NONE', #611, #331, #891 ) ;
#674 = CYLINDRICAL_SURFACE ( 'NONE', #892, 0.9000000000000000222 ) ;
#675 = ORIENTED_EDGE ( 'NONE', *, *, #560, .T. ) ;
#676 = CARTESIAN_POINT ( 'NONE',  ( 0.5000000000000245359, -2.049169208504350248, -8.989362750738699701E-14 ) ) ;
#677 = EDGE_CURVE ( 'NONE', #380, #191, #151, .T. ) ;
#678 = CARTESIAN_POINT ( 'NONE',  ( 6.123233995736766036E-17, 6.500000000000000888, -0.5000000000000000000 ) ) ;
#679 = EDGE_LOOP ( 'NONE', ( #849, #382, #233, #675 ) ) ;
#680 = PLANE ( 'NONE',  #229 ) ;
#681 = ORIENTED_EDGE ( 'NONE', *, *, #372, .F. ) ;
#682 = CIRCLE ( 'NONE', #289, 0.7650000000000000133 ) ;
#683 = CIRCLE ( 'NONE', #745, 0.5000000000000000000 ) ;
#684 = ORIENTED_EDGE ( 'NONE', *, *, #794, .F. ) ;
#685 = PLANE ( 'NONE',  #310 ) ;
#686 = CYLINDRICAL_SURFACE ( 'NONE', #673, 0.9000000000000000222 ) ;
#687 = EDGE_CURVE ( 'NONE', #896, #665, #218, .T. ) ;
#688 = ORIENTED_EDGE ( 'NONE', *, *, #706, .T. ) ;
#689 = CARTESIAN_POINT ( 'NONE',  ( 9.368548013477252244E-17, 1.900000000000000133, 0.7650000000000000133 ) ) ;
#690 = EDGE_CURVE ( 'NONE', #303, #801, #610, .T. ) ;
#691 = DIRECTION ( 'NONE',  ( 0.000000000000000000, 0.000000000000000000, 1.000000000000000000 ) ) ;
#692 = VERTEX_POINT ( 'NONE', #754 ) ;
#693 = ADVANCED_FACE ( 'NONE', ( #466, #826 ), #685, .T. ) ;
#694 = ADVANCED_FACE ( 'NONE', ( #257 ), #393, .T. ) ;
#695 = LINE ( 'NONE', #347, #157 ) ;
#696 =( NAMED_UNIT ( * ) PLANE_ANGLE_UNIT ( ) SI_UNIT ( $, .RADIAN. ) );
#697 = CARTESIAN_POINT ( 'NONE',  ( 0.000000000000000000, -2.793095335300976867, 0.5000000000000000000 ) ) ;
#698 = ORIENTED_EDGE ( 'NONE', *, *, #284, .T. ) ;
#699 = CARTESIAN_POINT ( 'NONE',  ( 0.000000000000000000, 0.4000000000000000222, -1.000000000000000000 ) ) ;
#700 = DIRECTION ( 'NONE',  ( -0.000000000000000000, -1.000000000000000000, -0.000000000000000000 ) ) ;
#701 = CIRCLE ( 'NONE', #214, 0.7399999999999999911 ) ;
#702 = FACE_OUTER_BOUND ( 'NONE', #192, .T. ) ;
#703 =( GEOMETRIC_REPRESENTATION_CONTEXT ( 3 ) GLOBAL_UNCERTAINTY_ASSIGNED_CONTEXT ( ( #264 ) ) GLOBAL_UNIT_ASSIGNED_CONTEXT ( ( #136, #696, #33 ) ) REPRESENTATION_CONTEXT ( 'NONE', 'WORKASPACE' ) );
#704 = EDGE_LOOP ( 'NONE', ( #532, #88, #717 ) ) ;
#705 = DIRECTION ( 'NONE',  ( -0.000000000000000000, 1.000000000000000000, -0.000000000000000000 ) ) ;
#706 = EDGE_CURVE ( 'NONE', #612, #271, #61, .T. ) ;
#707 = DIRECTION ( 'NONE',  ( -1.000000000000000000, 0.000000000000000000, 0.000000000000000000 ) ) ;
#708 = LINE ( 'NONE', #848, #779 ) ;
#709 = LINE ( 'NONE', #301, #713 ) ;
#710 = DIRECTION ( 'NONE',  ( 0.9805806756909202226, -0.1961161351381839890, 0.000000000000000000 ) ) ;
#711 = ORIENTED_EDGE ( 'NONE', *, *, #828, .F. ) ;
#712 = CARTESIAN_POINT ( 'NONE',  ( 0.5000000000000000000, -0.4000000000000000222, 6.123233995736766036E-17 ) ) ;
#713 = VECTOR ( 'NONE', #73, 1000.000000000000000 ) ;
#714 = PERSON_AND_ORGANIZATION_ROLE ( 'creator' ) ;
#715 = CIRCLE ( 'NONE', #607, 0.5400000000000000355 ) ;
#716 = CARTESIAN_POINT ( 'NONE',  ( 0.000000000000000000, -2.793095335300976867, -1.000000000000000000 ) ) ;
#717 = ORIENTED_EDGE ( 'NONE', *, *, #284, .F. ) ;
#718 = AXIS2_PLACEMENT_3D ( 'NONE', #395, #579, #871 ) ;
#719 = AXIS2_PLACEMENT_3D ( 'NONE', #244, #378, #252 ) ;
#720 = VECTOR ( 'NONE', #283, 1000.000000000000000 ) ;
#721 = CC_DESIGN_PERSON_AND_ORGANIZATION_ASSIGNMENT ( #22, #714, ( #386 ) ) ;
#722 = DIRECTION ( 'NONE',  ( 0.000000000000000000, 0.000000000000000000, 1.000000000000000000 ) ) ;
#723 = APPROVAL_ROLE ( '' ) ;
#724 = ORIENTED_EDGE ( 'NONE', *, *, #604, .F. ) ;
#725 = ADVANCED_FACE ( 'NONE', ( #180 ), #39, .T. ) ;
#726 = CARTESIAN_POINT ( 'NONE',  ( 1.224646799147353207E-16, 0.000000000000000000, 1.000000000000000000 ) ) ;
#727 = B_SPLINE_CURVE_WITH_KNOTS ( 'NONE', 3,
 ( #867, #733, #876, #324, #96, #29, #860, #803, #508, #314 ),
 .UNSPECIFIED., .F., .F.,
 ( 4, 2, 2, 2, 4 ),
 ( 0.001211064006283509280, 0.001513120746987513688, 0.001815177487691518095, 0.002117234228395522503, 0.002419290969099526910 ),
 .UNSPECIFIED. ) ;
#728 = DIRECTION ( 'NONE',  ( -0.000000000000000000, -1.000000000000000000, -0.000000000000000000 ) ) ;
#729 = COORDINATED_UNIVERSAL_TIME_OFFSET ( 8, 0, .AHEAD. ) ;
#730 = ORIENTED_EDGE ( 'NONE', *, *, #491, .T. ) ;
#731 = FACE_OUTER_BOUND ( 'NONE', #390, .T. ) ;
#732 = VERTEX_POINT ( 'NONE', #884 ) ;
#733 = CARTESIAN_POINT ( 'NONE',  ( 0.5000000000000194289, -2.049169208504432849, 0.1016241013422691519 ) ) ;
#734 = APPROVAL_STATUS ( 'not_yet_approved' ) ;
#735 = ORIENTED_EDGE ( 'NONE', *, *, #41, .F. ) ;
#736 = CIRCLE ( 'NONE', #544, 0.9000000000000000222 ) ;
#737 = PLANE ( 'NONE',  #510 ) ;
#738 = DATE_TIME_ROLE ( 'creation_date' ) ;
#739 = ORIENTED_EDGE ( 'NONE', *, *, #202, .T. ) ;
#740 = DIRECTION ( 'NONE',  ( 0.000000000000000000, 0.000000000000000000, -1.000000000000000000 ) ) ;
#741 = ORIENTED_EDGE ( 'NONE', *, *, #270, .T. ) ;
#742 = DIRECTION ( 'NONE',  ( -1.796665808323612280E-16, -1.000000000000000000, 0.000000000000000000 ) ) ;
#743 = CARTESIAN_POINT ( 'NONE',  ( -1.067261513540418057E-16, -2.690894933421329682, -0.4999999999999998890 ) ) ;
#744 = CARTESIAN_POINT ( 'NONE',  ( 0.000000000000000000, 1.400000000000000133, 0.000000000000000000 ) ) ;
#745 = AXIS2_PLACEMENT_3D ( 'NONE', #17, #148, #426 ) ;
#746 = CARTESIAN_POINT ( 'NONE',  ( 0.6747373465891186584, -2.000042532014273622, 0.1267972873930300615 ) ) ;
#747 = SPHERICAL_SURFACE ( 'NONE', #762, 0.5000000000000000000 ) ;
#748 = AXIS2_PLACEMENT_3D ( 'NONE', #133, #530, #691 ) ;
#749 = AXIS2_PLACEMENT_3D ( 'NONE', #778, #619, #707 ) ;
#750 = CARTESIAN_POINT ( 'NONE',  ( 1.190628832504370574E-17, -0.5000000000000000000, 0.000000000000000000 ) ) ;
#751 = DIRECTION ( 'NONE',  ( 0.000000000000000000, -0.000000000000000000, -1.000000000000000000 ) ) ;
#752 = PRODUCT ( 'PH-MVS-5370', 'PH-MVS-5370', '', ( #103 ) ) ;
#753 = ORIENTED_EDGE ( 'NONE', *, *, #36, .F. ) ;
#754 = CARTESIAN_POINT ( 'NONE',  ( -2.168404344971008868E-16, -4.000000000000000000, -0.5000000000000000000 ) ) ;
#755 = CARTESIAN_POINT ( 'NONE',  ( 0.03017802095632078976, -2.542014171191319338, 0.6766878984540140030 ) ) ;
#756 = ORIENTED_EDGE ( 'NONE', *, *, #343, .T. ) ;
#757 = B_SPLINE_CURVE_WITH_KNOTS ( 'NONE', 3,
 ( #447, #743, #114, #102, #666, #38, #396, #593, #672, #388 ),
 .UNSPECIFIED., .F., .F.,
 ( 4, 2, 2, 2, 4 ),
 ( 1.316129581856326913E-20, 0.0003027660015708773201, 0.0006055320031417546402, 0.0009082980047126319604, 0.001211064006283509280 ),
 .UNSPECIFIED. ) ;
#758 = ORIENTED_EDGE ( 'NONE', *, *, #213, .T. ) ;
#759 = CARTESIAN_POINT ( 'NONE',  ( 1.504632769052528010E-33, -4.000000000000000000, 0.000000000000000000 ) ) ;
#760 = ORIENTED_EDGE ( 'NONE', *, *, #297, .F. ) ;
#761 = AXIS2_PLACEMENT_3D ( 'NONE', #823, #605, #601 ) ;
#762 = AXIS2_PLACEMENT_3D ( 'NONE', #119, #401, #50 ) ;
#763 = ORIENTED_EDGE ( 'NONE', *, *, #46, .T. ) ;
#764 = EDGE_CURVE ( 'NONE', #53, #182, #86, .T. ) ;
#765 = LOCAL_TIME ( 14, 42, 8.000000000000000000, #492 ) ;
#766 = DIRECTION ( 'NONE',  ( -0.000000000000000000, -1.000000000000000000, -0.000000000000000000 ) ) ;
#767 = EDGE_CURVE ( 'NONE', #539, #506, #808, .T. ) ;
#768 = CARTESIAN_POINT ( 'NONE',  ( 0.000000000000000000, 5.100000000000000533, 0.000000000000000000 ) ) ;
#769 = EDGE_CURVE ( 'NONE', #665, #859, #793, .T. ) ;
#770 = VERTEX_POINT ( 'NONE', #80 ) ;
#771 = EDGE_LOOP ( 'NONE', ( #866, #440, #602, #668, #281, #173 ) ) ;
#772 = DIRECTION ( 'NONE',  ( 0.000000000000000000, 0.000000000000000000, 1.000000000000000000 ) ) ;
#773 = CARTESIAN_POINT ( 'NONE',  ( 1.224646799147352653E-17, -0.4000000000000000222, 0.000000000000000000 ) ) ;
#774 = CARTESIAN_POINT ( 'NONE',  ( 0.000000000000000000, 1.900000000000000133, 0.000000000000000000 ) ) ;
#775 = VERTEX_POINT ( 'NONE', #482 ) ;
#776 = EDGE_CURVE ( 'NONE', #770, #91, #232, .T. ) ;
#777 = CARTESIAN_POINT ( 'NONE',  ( 8.266365894244634333E-17, 0.000000000000000000, -0.6750000000000000444 ) ) ;
#778 = CARTESIAN_POINT ( 'NONE',  ( 1.504632769052528010E-33, -4.000000000000000000, 0.000000000000000000 ) ) ;
#779 = VECTOR ( 'NONE', #489, 1000.000000000000000 ) ;
#780 = DIRECTION ( 'NONE',  ( 0.000000000000000000, 0.000000000000000000, 1.000000000000000000 ) ) ;
#781 = CARTESIAN_POINT ( 'NONE',  ( 0.000000000000000000, 2.000000000000000000, 0.000000000000000000 ) ) ;
#782 = CARTESIAN_POINT ( 'NONE',  ( 0.000000000000000000, 0.4000000000000000222, -0.9000000000000000222 ) ) ;
#783 = FACE_OUTER_BOUND ( 'NONE', #494, .T. ) ;
#784 = CYLINDRICAL_SURFACE ( 'NONE', #623, 0.6750000000000000444 ) ;
#785 = APPROVAL ( #868, 'UNSPECIFIED' ) ;
#786 = CARTESIAN_POINT ( 'NONE',  ( 0.000000000000000000, 6.500000000000000888, 0.5000000000000000000 ) ) ;
#787 = ORIENTED_EDGE ( 'NONE', *, *, #300, .T. ) ;
#788 = DIRECTION ( 'NONE',  ( -0.000000000000000000, -1.000000000000000000, -0.000000000000000000 ) ) ;
#789 = ADVANCED_FACE ( 'NONE', ( #624 ), #279, .F. ) ;
#790 = CIRCLE ( 'NONE', #336, 0.5000000000000000000 ) ;
#791 = EDGE_CURVE ( 'NONE', #612, #896, #543, .T. ) ;
#792 = ORIENTED_EDGE ( 'NONE', *, *, #455, .T. ) ;
#793 = CIRCLE ( 'NONE', #499, 0.6750000000000000444 ) ;
#794 = EDGE_CURVE ( 'NONE', #615, #472, #562, .T. ) ;
#795 = FACE_OUTER_BOUND ( 'NONE', #901, .T. ) ;
#796 = PERSON_AND_ORGANIZATION_ROLE ( 'design_owner' ) ;
#797 = EDGE_LOOP ( 'NONE', ( #240, #787, #547, #642, #574, #763 ) ) ;
#798 = DIRECTION ( 'NONE',  ( -1.000000000000000000, 1.796665808323612280E-16, 0.000000000000000000 ) ) ;
#799 = DIRECTION ( 'NONE',  ( 0.000000000000000000, -1.000000000000000000, 0.000000000000000000 ) ) ;
#800 = PERSON_AND_ORGANIZATION ( #877, #529 ) ;
#801 = VERTEX_POINT ( 'NONE', #629 ) ;
#802 = ADVANCED_FACE ( 'NONE', ( #636 ), #479, .F. ) ;
#803 = CARTESIAN_POINT ( 'NONE',  ( 0.01961699641334671562, -2.589788057425977730, 0.5010271274529346508 ) ) ;
#804 = PERSON_AND_ORGANIZATION ( #877, #529 ) ;
#805 = VECTOR ( 'NONE', #453, 1000.000000000000000 ) ;
#806 = ORIENTED_EDGE ( 'NONE', *, *, #870, .F. ) ;
#807 = CIRCLE ( 'NONE', #186, 1.000000000000000000 ) ;
#808 = CIRCLE ( 'NONE', #486, 0.9000000000000000222 ) ;
#809 = LINE ( 'NONE', #174, #274 ) ;
#810 = CARTESIAN_POINT ( 'NONE',  ( 0.000000000000000000, 0.000000000000000000, 0.000000000000000000 ) ) ;
#811 = PLANE ( 'NONE',  #625 ) ;
#812 = VERTEX_POINT ( 'NONE', #689 ) ;
#813 = DIRECTION ( 'NONE',  ( -0.000000000000000000, -1.000000000000000000, -0.000000000000000000 ) ) ;
#814 = DIRECTION ( 'NONE',  ( 3.401796664298201641E-18, 1.000000000000000000, -0.000000000000000000 ) ) ;
#815 = CC_DESIGN_PERSON_AND_ORGANIZATION_ASSIGNMENT ( #298, #796, ( #752 ) ) ;
#816 = FACE_OUTER_BOUND ( 'NONE', #875, .T. ) ;
#817 = CARTESIAN_POINT ( 'NONE',  ( 1.224646799147353207E-16, 0.4000000000000000222, 1.000000000000000000 ) ) ;
#818 = DIRECTION ( 'NONE',  ( -0.000000000000000000, -0.000000000000000000, 1.000000000000000000 ) ) ;
#819 = DIRECTION ( 'NONE',  ( 0.000000000000000000, 0.000000000000000000, 1.000000000000000000 ) ) ;
#820 = ORIENTED_EDGE ( 'NONE', *, *, #316, .F. ) ;
#821 = AXIS2_PLACEMENT_3D ( 'NONE', #417, #285, #147 ) ;
#822 = APPROVAL_PERSON_ORGANIZATION ( #309, #785, #857 ) ;
#823 = CARTESIAN_POINT ( 'NONE',  ( 0.000000000000000000, 5.100000000000000533, 0.000000000000000000 ) ) ;
#824 = EDGE_LOOP ( 'NONE', ( #251, #118, #113, #66 ) ) ;
#825 = DIRECTION ( 'NONE',  ( -0.000000000000000000, -1.000000000000000000, -0.000000000000000000 ) ) ;
#826 = FACE_OUTER_BOUND ( 'NONE', #832, .T. ) ;
#827 = CARTESIAN_POINT ( 'NONE',  ( 0.000000000000000000, 5.345584412271571217, 0.000000000000000000 ) ) ;
#828 = EDGE_CURVE ( 'NONE', #222, #377, #409, .T. ) ;
#829 = ORIENTED_EDGE ( 'NONE', *, *, #520, .F. ) ;
#830 = EDGE_CURVE ( 'NONE', #475, #775, #140, .T. ) ;
#831 = DIRECTION ( 'NONE',  ( 3.401796664298201641E-18, 1.000000000000000000, -0.000000000000000000 ) ) ;
#832 = EDGE_LOOP ( 'NONE', ( #643, #7 ) ) ;
#833 = AXIS2_PLACEMENT_3D ( 'NONE', #768, #525, #819 ) ;
#834 = VECTOR ( 'NONE', #497, 1000.000000000000000 ) ;
#835 = AXIS2_PLACEMENT_3D ( 'NONE', #150, #424, #64 ) ;
#836 = LINE ( 'NONE', #220, #249 ) ;
#837 = CARTESIAN_POINT ( 'NONE',  ( 0.000000000000000000, 0.4000000000000000222, 0.000000000000000000 ) ) ;
#838 = ORIENTED_EDGE ( 'NONE', *, *, #870, .T. ) ;
#839 = CARTESIAN_POINT ( 'NONE',  ( 6.123233995736766036E-17, 15.41421356237309581, 0.5000000000000000000 ) ) ;
#840 = ORIENTED_EDGE ( 'NONE', *, *, #633, .F. ) ;
#841 = DIRECTION ( 'NONE',  ( 0.000000000000000000, 1.000000000000000000, 0.000000000000000000 ) ) ;
#842 = CARTESIAN_POINT ( 'NONE',  ( 0.000000000000000000, 6.500000000000000888, 0.000000000000000000 ) ) ;
#843 = CARTESIAN_POINT ( 'NONE',  ( 0.000000000000000000, 15.41421356237309581, 0.000000000000000000 ) ) ;
#844 = FACE_OUTER_BOUND ( 'NONE', #43, .T. ) ;
#845 = VECTOR ( 'NONE', #280, 1000.000000000000000 ) ;
#846 = DIRECTION ( 'NONE',  ( 0.000000000000000000, 0.000000000000000000, -1.000000000000000000 ) ) ;
#847 = AXIS2_PLACEMENT_3D ( 'NONE', #402, #253, #458 ) ;
#848 = CARTESIAN_POINT ( 'NONE',  ( 8.266365894244634333E-17, -4.000000000000000000, -0.6750000000000000444 ) ) ;
#849 = ORIENTED_EDGE ( 'NONE', *, *, #245, .F. ) ;
#850 = CARTESIAN_POINT ( 'NONE',  ( 4.299592564993995338E-16, -0.4000000000000000222, -0.5000000000000000000 ) ) ;
#851 = EDGE_CURVE ( 'NONE', #546, #303, #287, .T. ) ;
#852 = CARTESIAN_POINT ( 'NONE',  ( 0.000000000000000000, 0.000000000000000000, 0.000000000000000000 ) ) ;
#853 = ORIENTED_EDGE ( 'NONE', *, *, #245, .T. ) ;
#854 = EDGE_CURVE ( 'NONE', #475, #588, #74, .T. ) ;
#855 = FACE_BOUND ( 'NONE', #67, .T. ) ;
#856 = EDGE_CURVE ( 'NONE', #271, #511, #420, .T. ) ;
#857 = APPROVAL_ROLE ( '' ) ;
#858 = EDGE_CURVE ( 'NONE', #859, #692, #836, .T. ) ;
#859 = VERTEX_POINT ( 'NONE', #358 ) ;
#860 = CARTESIAN_POINT ( 'NONE',  ( 0.09430755342285278287, -2.402145921267392570, 0.4924622770927905013 ) ) ;
#861 = VECTOR ( 'NONE', #641, 1000.000000000000000 ) ;
#862 = VECTOR ( 'NONE', #487, 1000.000000000000000 ) ;
#863 = VERTEX_POINT ( 'NONE', #2 ) ;
#864 = AXIS2_PLACEMENT_3D ( 'NONE', #545, #363, #637 ) ;
#865 = DIRECTION ( 'NONE',  ( 0.000000000000000000, 1.000000000000000000, 0.000000000000000000 ) ) ;
#866 = ORIENTED_EDGE ( 'NONE', *, *, #316, .T. ) ;
#867 = CARTESIAN_POINT ( 'NONE',  ( 0.5000000000000245359, -2.049169208504350248, -8.989362750738699701E-14 ) ) ;
#868 = APPROVAL_STATUS ( 'not_yet_approved' ) ;
#869 = VERTEX_POINT ( 'NONE', #552 ) ;
#870 = EDGE_CURVE ( 'NONE', #615, #468, #26, .T. ) ;
#871 = DIRECTION ( 'NONE',  ( -1.000000000000000000, 0.000000000000000000, 0.000000000000000000 ) ) ;
#872 = ORIENTED_EDGE ( 'NONE', *, *, #854, .T. ) ;
#873 = DIRECTION ( 'NONE',  ( 0.000000000000000000, -1.000000000000000000, 0.000000000000000000 ) ) ;
#874 = COORDINATED_UNIVERSAL_TIME_OFFSET ( 8, 0, .AHEAD. ) ;
#875 = EDGE_LOOP ( 'NONE', ( #671, #263, #578, #320, #306 ) ) ;
#876 = CARTESIAN_POINT ( 'NONE',  ( 0.4671666938210762843, -2.060719165818928111, 0.2029089268979854255 ) ) ;
#877 = PERSON ( 'UNSPECIFIED', 'UNSPECIFIED', 'UNSPECIFIED', ('UNSPECIFIED'), ('UNSPECIFIED'), ('UNSPECIFIED') ) ;
#878 = DIRECTION ( 'NONE',  ( 0.000000000000000000, 0.000000000000000000, 1.000000000000000000 ) ) ;
#879 = CARTESIAN_POINT ( 'NONE',  ( 0.000000000000000000, 6.500000000000000888, 0.000000000000000000 ) ) ;
#880 = PLANE ( 'NONE',  #55 ) ;
#881 = CC_DESIGN_APPROVAL ( #197, ( #367 ) ) ;
#882 = CYLINDRICAL_SURFACE ( 'NONE', #719, 0.7399999999999999911 ) ;
#883 = APPROVAL ( #657, 'UNSPECIFIED' ) ;
#884 = CARTESIAN_POINT ( 'NONE',  ( 0.000000000000000000, 1.900000000000000133, -0.7650000000000000133 ) ) ;
#885 = CARTESIAN_POINT ( 'NONE',  ( 0.000000000000000000, 0.000000000000000000, 0.6750000000000000444 ) ) ;
#886 = ORIENTED_EDGE ( 'NONE', *, *, #520, .T. ) ;
#887 = CARTESIAN_POINT ( 'NONE',  ( 0.000000000000000000, 2.000000000000000000, -0.7399999999999999911 ) ) ;
#888 = ADVANCED_FACE ( 'NONE', ( #556 ), #345, .T. ) ;
#889 = DIRECTION ( 'NONE',  ( 0.000000000000000000, -0.000000000000000000, 1.000000000000000000 ) ) ;
#890 = CARTESIAN_POINT ( 'NONE',  ( 0.4119955662614359637, -2.081884743036233498, 0.5449683689808236808 ) ) ;
#891 = DIRECTION ( 'NONE',  ( 0.000000000000000000, 0.000000000000000000, -1.000000000000000000 ) ) ;
#892 = AXIS2_PLACEMENT_3D ( 'NONE', #827, #48, #269 ) ;
#893 = AXIS2_PLACEMENT_3D ( 'NONE', #781, #481, #628 ) ;
#894 = ORIENTED_EDGE ( 'NONE', *, *, #202, .F. ) ;
#895 = AXIS2_PLACEMENT_3D ( 'NONE', #488, #132, #411 ) ;
#896 = VERTEX_POINT ( 'NONE', #211 ) ;
#897 = CARTESIAN_POINT ( 'NONE',  ( 0.2290417722590120941, -2.219613594513540900, -0.6435631991931672902 ) ) ;
#898 = EDGE_CURVE ( 'NONE', #692, #869, #609, .T. ) ;
#899 = CYLINDRICAL_SURFACE ( 'NONE', #384, 0.7650000000000000133 ) ;
#900 = CARTESIAN_POINT ( 'NONE',  ( 0.000000000000000000, 7.000000000000000888, 3.061616997868383018E-17 ) ) ;
#901 = EDGE_LOOP ( 'NONE', ( #465, #806, #698 ) ) ;
#902 = DIRECTION ( 'NONE',  ( -1.000000000000000000, 0.000000000000000000, 0.000000000000000000 ) ) ;
#903 = VERTEX_POINT ( 'NONE', #782 ) ;
#904 = CIRCLE ( 'NONE', #570, 0.5000000000000000000 ) ;
#905 = CIRCLE ( 'NONE', #215, 0.6750000000000000444 ) ;
#906 = ORIENTED_EDGE ( 'NONE', *, *, #548, .T. ) ;
#907 = AXIS2_PLACEMENT_3D ( 'NONE', #326, #597, #184 ) ;
#908 = DIRECTION ( 'NONE',  ( 0.000000000000000000, 0.000000000000000000, 1.000000000000000000 ) ) ;
#909 = DIRECTION ( 'NONE',  ( 0.000000000000000000, 0.000000000000000000, -1.000000000000000000 ) ) ;
ENDSEC;
END-ISO-10303-21;
