G04*
G04 #@! TF.GenerationSoftware,Altium Limited,Altium Designer,24.6.1 (21)*
G04*
G04 Layer_Color=65535*
%FSLAX44Y44*%
%MOMM*%
G71*
G04*
G04 #@! TF.SameCoordinates,FAE5DF41-9D52-4216-B69B-A7CA1AB885FC*
G04*
G04*
G04 #@! TF.FilePolarity,Positive*
G04*
G01*
G75*
%ADD10C,0.1500*%
%ADD11C,0.2000*%
G36*
X113806Y19877D02*
X111942D01*
Y21601D01*
X113806D01*
Y19877D01*
D02*
G37*
G36*
X234928Y21756D02*
X234984D01*
X235054Y21749D01*
X235209Y21742D01*
X235385Y21721D01*
X235575Y21693D01*
X235786Y21665D01*
X236004Y21622D01*
X236229Y21566D01*
X236462Y21503D01*
X236694Y21425D01*
X236912Y21327D01*
X237130Y21221D01*
X237327Y21095D01*
X237510Y20954D01*
X237524Y20947D01*
X237552Y20919D01*
X237594Y20869D01*
X237658Y20806D01*
X237728Y20729D01*
X237805Y20630D01*
X237890Y20518D01*
X237981Y20384D01*
X238073Y20243D01*
X238157Y20081D01*
X238242Y19906D01*
X238312Y19716D01*
X238382Y19511D01*
X238431Y19293D01*
X238467Y19061D01*
X238488Y18815D01*
X236525Y18730D01*
Y18738D01*
X236518Y18766D01*
X236511Y18801D01*
X236497Y18850D01*
X236483Y18914D01*
X236462Y18984D01*
X236440Y19061D01*
X236412Y19146D01*
X236335Y19322D01*
X236243Y19497D01*
X236124Y19666D01*
X236061Y19744D01*
X235983Y19807D01*
X235976Y19814D01*
X235962Y19821D01*
X235941Y19835D01*
X235906Y19856D01*
X235863Y19884D01*
X235807Y19913D01*
X235744Y19941D01*
X235674Y19976D01*
X235589Y20004D01*
X235498Y20032D01*
X235392Y20060D01*
X235280Y20089D01*
X235160Y20110D01*
X235033Y20124D01*
X234886Y20138D01*
X234653D01*
X234597Y20131D01*
X234527Y20124D01*
X234442Y20117D01*
X234351Y20110D01*
X234245Y20096D01*
X234034Y20053D01*
X233809Y19990D01*
X233696Y19948D01*
X233591Y19899D01*
X233492Y19842D01*
X233394Y19779D01*
X233380Y19772D01*
X233345Y19737D01*
X233295Y19687D01*
X233239Y19617D01*
X233183Y19533D01*
X233134Y19434D01*
X233098Y19315D01*
X233091Y19251D01*
X233084Y19181D01*
Y19174D01*
Y19167D01*
X233091Y19124D01*
X233098Y19061D01*
X233120Y18977D01*
X233155Y18885D01*
X233204Y18787D01*
X233274Y18688D01*
X233373Y18590D01*
X233380D01*
X233394Y18576D01*
X233415Y18562D01*
X233457Y18534D01*
X233507Y18505D01*
X233570Y18470D01*
X233647Y18435D01*
X233739Y18393D01*
X233851Y18344D01*
X233978Y18294D01*
X234126Y18238D01*
X234294Y18182D01*
X234484Y18118D01*
X234688Y18062D01*
X234928Y17999D01*
X235181Y17936D01*
X235188D01*
X235195Y17929D01*
X235216D01*
X235244Y17921D01*
X235315Y17900D01*
X235413Y17879D01*
X235533Y17844D01*
X235674Y17809D01*
X235821Y17767D01*
X235983Y17724D01*
X236152Y17668D01*
X236328Y17619D01*
X236680Y17499D01*
X236849Y17436D01*
X237010Y17366D01*
X237165Y17302D01*
X237299Y17232D01*
X237306Y17225D01*
X237327Y17218D01*
X237362Y17197D01*
X237411Y17169D01*
X237468Y17126D01*
X237538Y17084D01*
X237608Y17035D01*
X237693Y16972D01*
X237777Y16908D01*
X237862Y16831D01*
X237953Y16753D01*
X238045Y16662D01*
X238221Y16465D01*
X238298Y16352D01*
X238375Y16240D01*
X238382Y16233D01*
X238389Y16212D01*
X238410Y16177D01*
X238439Y16127D01*
X238467Y16064D01*
X238502Y15994D01*
X238537Y15909D01*
X238572Y15811D01*
X238607Y15705D01*
X238643Y15586D01*
X238678Y15459D01*
X238706Y15325D01*
X238734Y15178D01*
X238755Y15023D01*
X238762Y14861D01*
X238769Y14692D01*
Y14685D01*
Y14657D01*
Y14608D01*
X238762Y14551D01*
X238755Y14474D01*
X238741Y14389D01*
X238727Y14291D01*
X238713Y14185D01*
X238685Y14066D01*
X238657Y13939D01*
X238615Y13813D01*
X238572Y13679D01*
X238516Y13538D01*
X238453Y13397D01*
X238382Y13264D01*
X238298Y13123D01*
X238291Y13116D01*
X238277Y13095D01*
X238249Y13053D01*
X238213Y13003D01*
X238164Y12947D01*
X238108Y12877D01*
X238037Y12799D01*
X237960Y12715D01*
X237869Y12630D01*
X237770Y12539D01*
X237665Y12448D01*
X237545Y12363D01*
X237418Y12272D01*
X237285Y12187D01*
X237137Y12110D01*
X236982Y12040D01*
X236975Y12033D01*
X236947Y12025D01*
X236898Y12004D01*
X236827Y11983D01*
X236750Y11955D01*
X236651Y11927D01*
X236532Y11899D01*
X236405Y11864D01*
X236257Y11828D01*
X236096Y11800D01*
X235920Y11772D01*
X235737Y11744D01*
X235540Y11723D01*
X235329Y11702D01*
X235104Y11695D01*
X234871Y11688D01*
X234745D01*
X234695Y11695D01*
X234632D01*
X234569Y11702D01*
X234414Y11716D01*
X234231Y11730D01*
X234034Y11758D01*
X233823Y11793D01*
X233598Y11842D01*
X233366Y11899D01*
X233127Y11962D01*
X232894Y12047D01*
X232662Y12145D01*
X232437Y12258D01*
X232226Y12391D01*
X232029Y12539D01*
X232015Y12546D01*
X231987Y12581D01*
X231938Y12630D01*
X231874Y12701D01*
X231797Y12785D01*
X231705Y12898D01*
X231614Y13024D01*
X231515Y13172D01*
X231410Y13334D01*
X231311Y13524D01*
X231213Y13728D01*
X231121Y13946D01*
X231030Y14193D01*
X230959Y14453D01*
X230896Y14734D01*
X230854Y15030D01*
X232768Y15213D01*
Y15199D01*
X232775Y15170D01*
X232789Y15121D01*
X232803Y15058D01*
X232824Y14973D01*
X232852Y14882D01*
X232880Y14784D01*
X232915Y14678D01*
X233014Y14446D01*
X233070Y14326D01*
X233134Y14207D01*
X233204Y14094D01*
X233281Y13988D01*
X233373Y13890D01*
X233464Y13798D01*
X233471Y13791D01*
X233492Y13777D01*
X233521Y13756D01*
X233563Y13728D01*
X233612Y13693D01*
X233682Y13658D01*
X233753Y13615D01*
X233844Y13573D01*
X233936Y13531D01*
X234048Y13489D01*
X234161Y13454D01*
X234287Y13419D01*
X234428Y13390D01*
X234576Y13369D01*
X234731Y13355D01*
X234893Y13348D01*
X234984D01*
X235047Y13355D01*
X235125Y13362D01*
X235216Y13369D01*
X235322Y13383D01*
X235427Y13397D01*
X235659Y13447D01*
X235779Y13482D01*
X235899Y13517D01*
X236011Y13566D01*
X236124Y13615D01*
X236229Y13679D01*
X236321Y13749D01*
X236328Y13756D01*
X236342Y13770D01*
X236363Y13791D01*
X236398Y13820D01*
X236433Y13862D01*
X236476Y13904D01*
X236518Y13960D01*
X236567Y14017D01*
X236651Y14157D01*
X236729Y14312D01*
X236764Y14404D01*
X236785Y14488D01*
X236799Y14586D01*
X236806Y14685D01*
Y14692D01*
Y14699D01*
Y14741D01*
X236799Y14805D01*
X236778Y14889D01*
X236757Y14980D01*
X236722Y15079D01*
X236673Y15178D01*
X236602Y15269D01*
X236595Y15283D01*
X236560Y15311D01*
X236511Y15353D01*
X236440Y15417D01*
X236342Y15480D01*
X236215Y15557D01*
X236068Y15628D01*
X235983Y15663D01*
X235892Y15698D01*
X235885D01*
X235877Y15705D01*
X235849Y15712D01*
X235821Y15719D01*
X235772Y15733D01*
X235716Y15754D01*
X235645Y15776D01*
X235568Y15797D01*
X235469Y15825D01*
X235357Y15853D01*
X235230Y15888D01*
X235082Y15930D01*
X234921Y15972D01*
X234738Y16015D01*
X234534Y16064D01*
X234316Y16120D01*
X234308D01*
X234294Y16127D01*
X234273D01*
X234245Y16141D01*
X234210Y16148D01*
X234168Y16163D01*
X234062Y16191D01*
X233929Y16226D01*
X233781Y16275D01*
X233619Y16331D01*
X233450Y16388D01*
X233267Y16458D01*
X233084Y16528D01*
X232894Y16606D01*
X232719Y16690D01*
X232543Y16782D01*
X232381Y16880D01*
X232233Y16979D01*
X232099Y17084D01*
X232092Y17091D01*
X232064Y17119D01*
X232015Y17169D01*
X231959Y17225D01*
X231895Y17302D01*
X231818Y17401D01*
X231733Y17506D01*
X231656Y17633D01*
X231572Y17767D01*
X231487Y17914D01*
X231410Y18076D01*
X231346Y18245D01*
X231290Y18428D01*
X231241Y18625D01*
X231213Y18829D01*
X231206Y19040D01*
Y19047D01*
Y19075D01*
Y19110D01*
X231213Y19167D01*
X231220Y19230D01*
X231227Y19308D01*
X231241Y19399D01*
X231255Y19497D01*
X231283Y19596D01*
X231304Y19708D01*
X231339Y19821D01*
X231382Y19941D01*
X231431Y20067D01*
X231487Y20187D01*
X231551Y20314D01*
X231621Y20433D01*
X231628Y20440D01*
X231642Y20461D01*
X231663Y20496D01*
X231698Y20539D01*
X231740Y20595D01*
X231797Y20658D01*
X231860Y20722D01*
X231930Y20799D01*
X232015Y20877D01*
X232106Y20961D01*
X232205Y21038D01*
X232310Y21123D01*
X232430Y21200D01*
X232557Y21277D01*
X232690Y21355D01*
X232838Y21418D01*
X232845Y21425D01*
X232873Y21432D01*
X232922Y21453D01*
X232979Y21474D01*
X233056Y21496D01*
X233148Y21531D01*
X233253Y21559D01*
X233373Y21594D01*
X233507Y21622D01*
X233654Y21657D01*
X233809Y21686D01*
X233978Y21707D01*
X234161Y21735D01*
X234351Y21749D01*
X234548Y21756D01*
X234752Y21763D01*
X234878D01*
X234928Y21756D01*
D02*
G37*
G36*
X225859D02*
X225915D01*
X225985Y21749D01*
X226140Y21742D01*
X226316Y21721D01*
X226506Y21693D01*
X226717Y21665D01*
X226935Y21622D01*
X227160Y21566D01*
X227392Y21503D01*
X227624Y21425D01*
X227843Y21327D01*
X228061Y21221D01*
X228258Y21095D01*
X228441Y20954D01*
X228455Y20947D01*
X228483Y20919D01*
X228525Y20869D01*
X228588Y20806D01*
X228659Y20729D01*
X228736Y20630D01*
X228821Y20518D01*
X228912Y20384D01*
X229004Y20243D01*
X229088Y20081D01*
X229172Y19906D01*
X229243Y19716D01*
X229313Y19511D01*
X229362Y19293D01*
X229398Y19061D01*
X229419Y18815D01*
X227456Y18730D01*
Y18738D01*
X227449Y18766D01*
X227442Y18801D01*
X227428Y18850D01*
X227414Y18914D01*
X227392Y18984D01*
X227371Y19061D01*
X227343Y19146D01*
X227266Y19322D01*
X227174Y19497D01*
X227055Y19666D01*
X226991Y19744D01*
X226914Y19807D01*
X226907Y19814D01*
X226893Y19821D01*
X226872Y19835D01*
X226836Y19856D01*
X226794Y19884D01*
X226738Y19913D01*
X226675Y19941D01*
X226604Y19976D01*
X226520Y20004D01*
X226429Y20032D01*
X226323Y20060D01*
X226210Y20089D01*
X226091Y20110D01*
X225964Y20124D01*
X225816Y20138D01*
X225584D01*
X225528Y20131D01*
X225457Y20124D01*
X225373Y20117D01*
X225282Y20110D01*
X225176Y20096D01*
X224965Y20053D01*
X224740Y19990D01*
X224627Y19948D01*
X224522Y19899D01*
X224423Y19842D01*
X224325Y19779D01*
X224311Y19772D01*
X224275Y19737D01*
X224226Y19687D01*
X224170Y19617D01*
X224114Y19533D01*
X224064Y19434D01*
X224029Y19315D01*
X224022Y19251D01*
X224015Y19181D01*
Y19174D01*
Y19167D01*
X224022Y19124D01*
X224029Y19061D01*
X224050Y18977D01*
X224086Y18885D01*
X224135Y18787D01*
X224205Y18688D01*
X224304Y18590D01*
X224311D01*
X224325Y18576D01*
X224346Y18562D01*
X224388Y18534D01*
X224437Y18505D01*
X224501Y18470D01*
X224578Y18435D01*
X224669Y18393D01*
X224782Y18344D01*
X224909Y18294D01*
X225056Y18238D01*
X225225Y18182D01*
X225415Y18118D01*
X225619Y18062D01*
X225859Y17999D01*
X226112Y17936D01*
X226119D01*
X226126Y17929D01*
X226147D01*
X226175Y17921D01*
X226245Y17900D01*
X226344Y17879D01*
X226464Y17844D01*
X226604Y17809D01*
X226752Y17767D01*
X226914Y17724D01*
X227083Y17668D01*
X227259Y17619D01*
X227610Y17499D01*
X227779Y17436D01*
X227941Y17366D01*
X228096Y17302D01*
X228230Y17232D01*
X228237Y17225D01*
X228258Y17218D01*
X228293Y17197D01*
X228342Y17169D01*
X228398Y17126D01*
X228469Y17084D01*
X228539Y17035D01*
X228624Y16972D01*
X228708Y16908D01*
X228792Y16831D01*
X228884Y16753D01*
X228975Y16662D01*
X229151Y16465D01*
X229229Y16352D01*
X229306Y16240D01*
X229313Y16233D01*
X229320Y16212D01*
X229341Y16177D01*
X229369Y16127D01*
X229398Y16064D01*
X229433Y15994D01*
X229468Y15909D01*
X229503Y15811D01*
X229538Y15705D01*
X229573Y15586D01*
X229609Y15459D01*
X229637Y15325D01*
X229665Y15178D01*
X229686Y15023D01*
X229693Y14861D01*
X229700Y14692D01*
Y14685D01*
Y14657D01*
Y14608D01*
X229693Y14551D01*
X229686Y14474D01*
X229672Y14389D01*
X229658Y14291D01*
X229644Y14185D01*
X229616Y14066D01*
X229587Y13939D01*
X229545Y13813D01*
X229503Y13679D01*
X229447Y13538D01*
X229384Y13397D01*
X229313Y13264D01*
X229229Y13123D01*
X229222Y13116D01*
X229208Y13095D01*
X229179Y13053D01*
X229144Y13003D01*
X229095Y12947D01*
X229039Y12877D01*
X228968Y12799D01*
X228891Y12715D01*
X228799Y12630D01*
X228701Y12539D01*
X228596Y12448D01*
X228476Y12363D01*
X228349Y12272D01*
X228216Y12187D01*
X228068Y12110D01*
X227913Y12040D01*
X227906Y12033D01*
X227878Y12025D01*
X227829Y12004D01*
X227758Y11983D01*
X227681Y11955D01*
X227582Y11927D01*
X227463Y11899D01*
X227336Y11864D01*
X227188Y11828D01*
X227027Y11800D01*
X226851Y11772D01*
X226668Y11744D01*
X226471Y11723D01*
X226260Y11702D01*
X226034Y11695D01*
X225802Y11688D01*
X225676D01*
X225626Y11695D01*
X225563D01*
X225500Y11702D01*
X225345Y11716D01*
X225162Y11730D01*
X224965Y11758D01*
X224754Y11793D01*
X224529Y11842D01*
X224297Y11899D01*
X224057Y11962D01*
X223825Y12047D01*
X223593Y12145D01*
X223368Y12258D01*
X223157Y12391D01*
X222960Y12539D01*
X222946Y12546D01*
X222918Y12581D01*
X222868Y12630D01*
X222805Y12701D01*
X222728Y12785D01*
X222636Y12898D01*
X222545Y13024D01*
X222446Y13172D01*
X222341Y13334D01*
X222242Y13524D01*
X222144Y13728D01*
X222052Y13946D01*
X221961Y14193D01*
X221890Y14453D01*
X221827Y14734D01*
X221785Y15030D01*
X223699Y15213D01*
Y15199D01*
X223706Y15170D01*
X223720Y15121D01*
X223734Y15058D01*
X223755Y14973D01*
X223783Y14882D01*
X223811Y14784D01*
X223846Y14678D01*
X223945Y14446D01*
X224001Y14326D01*
X224064Y14207D01*
X224135Y14094D01*
X224212Y13988D01*
X224304Y13890D01*
X224395Y13798D01*
X224402Y13791D01*
X224423Y13777D01*
X224451Y13756D01*
X224494Y13728D01*
X224543Y13693D01*
X224613Y13658D01*
X224684Y13615D01*
X224775Y13573D01*
X224867Y13531D01*
X224979Y13489D01*
X225092Y13454D01*
X225218Y13419D01*
X225359Y13390D01*
X225507Y13369D01*
X225662Y13355D01*
X225823Y13348D01*
X225915D01*
X225978Y13355D01*
X226056Y13362D01*
X226147Y13369D01*
X226253Y13383D01*
X226358Y13397D01*
X226590Y13447D01*
X226710Y13482D01*
X226829Y13517D01*
X226942Y13566D01*
X227055Y13615D01*
X227160Y13679D01*
X227252Y13749D01*
X227259Y13756D01*
X227273Y13770D01*
X227294Y13791D01*
X227329Y13820D01*
X227364Y13862D01*
X227406Y13904D01*
X227449Y13960D01*
X227498Y14017D01*
X227582Y14157D01*
X227660Y14312D01*
X227695Y14404D01*
X227716Y14488D01*
X227730Y14586D01*
X227737Y14685D01*
Y14692D01*
Y14699D01*
Y14741D01*
X227730Y14805D01*
X227709Y14889D01*
X227688Y14980D01*
X227653Y15079D01*
X227603Y15178D01*
X227533Y15269D01*
X227526Y15283D01*
X227491Y15311D01*
X227442Y15353D01*
X227371Y15417D01*
X227273Y15480D01*
X227146Y15557D01*
X226998Y15628D01*
X226914Y15663D01*
X226822Y15698D01*
X226815D01*
X226808Y15705D01*
X226780Y15712D01*
X226752Y15719D01*
X226703Y15733D01*
X226647Y15754D01*
X226576Y15776D01*
X226499Y15797D01*
X226400Y15825D01*
X226288Y15853D01*
X226161Y15888D01*
X226013Y15930D01*
X225851Y15972D01*
X225669Y16015D01*
X225464Y16064D01*
X225246Y16120D01*
X225239D01*
X225225Y16127D01*
X225204D01*
X225176Y16141D01*
X225141Y16148D01*
X225099Y16163D01*
X224993Y16191D01*
X224860Y16226D01*
X224712Y16275D01*
X224550Y16331D01*
X224381Y16388D01*
X224198Y16458D01*
X224015Y16528D01*
X223825Y16606D01*
X223649Y16690D01*
X223473Y16782D01*
X223312Y16880D01*
X223164Y16979D01*
X223030Y17084D01*
X223023Y17091D01*
X222995Y17119D01*
X222946Y17169D01*
X222889Y17225D01*
X222826Y17302D01*
X222749Y17401D01*
X222664Y17506D01*
X222587Y17633D01*
X222502Y17767D01*
X222418Y17914D01*
X222341Y18076D01*
X222277Y18245D01*
X222221Y18428D01*
X222172Y18625D01*
X222144Y18829D01*
X222137Y19040D01*
Y19047D01*
Y19075D01*
Y19110D01*
X222144Y19167D01*
X222151Y19230D01*
X222158Y19308D01*
X222172Y19399D01*
X222186Y19497D01*
X222214Y19596D01*
X222235Y19708D01*
X222270Y19821D01*
X222313Y19941D01*
X222362Y20067D01*
X222418Y20187D01*
X222481Y20314D01*
X222552Y20433D01*
X222559Y20440D01*
X222573Y20461D01*
X222594Y20496D01*
X222629Y20539D01*
X222671Y20595D01*
X222728Y20658D01*
X222791Y20722D01*
X222861Y20799D01*
X222946Y20877D01*
X223037Y20961D01*
X223136Y21038D01*
X223241Y21123D01*
X223361Y21200D01*
X223487Y21277D01*
X223621Y21355D01*
X223769Y21418D01*
X223776Y21425D01*
X223804Y21432D01*
X223853Y21453D01*
X223910Y21474D01*
X223987Y21496D01*
X224079Y21531D01*
X224184Y21559D01*
X224304Y21594D01*
X224437Y21622D01*
X224585Y21657D01*
X224740Y21686D01*
X224909Y21707D01*
X225092Y21735D01*
X225282Y21749D01*
X225479Y21756D01*
X225683Y21763D01*
X225809D01*
X225859Y21756D01*
D02*
G37*
G36*
X146368Y11864D02*
X144637D01*
Y12898D01*
X144630Y12891D01*
X144616Y12870D01*
X144595Y12842D01*
X144560Y12799D01*
X144518Y12750D01*
X144468Y12694D01*
X144412Y12630D01*
X144349Y12560D01*
X144194Y12412D01*
X144018Y12265D01*
X143821Y12124D01*
X143723Y12054D01*
X143610Y11997D01*
X143603D01*
X143582Y11983D01*
X143554Y11969D01*
X143511Y11948D01*
X143455Y11927D01*
X143392Y11906D01*
X143322Y11878D01*
X143244Y11849D01*
X143068Y11793D01*
X142864Y11751D01*
X142653Y11716D01*
X142428Y11702D01*
X142372D01*
X142308Y11709D01*
X142224Y11716D01*
X142119Y11730D01*
X141999Y11751D01*
X141858Y11786D01*
X141710Y11821D01*
X141556Y11878D01*
X141387Y11941D01*
X141211Y12018D01*
X141035Y12117D01*
X140859Y12229D01*
X140683Y12356D01*
X140514Y12511D01*
X140345Y12680D01*
X140338Y12694D01*
X140310Y12722D01*
X140268Y12785D01*
X140212Y12863D01*
X140148Y12961D01*
X140071Y13081D01*
X139994Y13221D01*
X139916Y13390D01*
X139832Y13573D01*
X139754Y13777D01*
X139684Y14002D01*
X139614Y14242D01*
X139557Y14509D01*
X139515Y14791D01*
X139487Y15093D01*
X139480Y15410D01*
Y15417D01*
Y15431D01*
Y15452D01*
Y15487D01*
Y15529D01*
X139487Y15579D01*
Y15642D01*
X139494Y15705D01*
X139508Y15853D01*
X139522Y16029D01*
X139550Y16219D01*
X139586Y16423D01*
X139628Y16641D01*
X139684Y16866D01*
X139754Y17091D01*
X139832Y17316D01*
X139930Y17542D01*
X140043Y17752D01*
X140169Y17957D01*
X140317Y18139D01*
X140324Y18154D01*
X140359Y18182D01*
X140402Y18224D01*
X140472Y18287D01*
X140549Y18358D01*
X140655Y18435D01*
X140768Y18519D01*
X140901Y18611D01*
X141049Y18695D01*
X141211Y18780D01*
X141387Y18857D01*
X141577Y18928D01*
X141781Y18991D01*
X141992Y19033D01*
X142217Y19068D01*
X142456Y19075D01*
X142505D01*
X142569Y19068D01*
X142653Y19061D01*
X142759Y19047D01*
X142878Y19026D01*
X143012Y18991D01*
X143153Y18956D01*
X143315Y18899D01*
X143476Y18836D01*
X143645Y18759D01*
X143821Y18660D01*
X143997Y18548D01*
X144166Y18414D01*
X144335Y18266D01*
X144504Y18090D01*
Y21601D01*
X146368D01*
Y11864D01*
D02*
G37*
G36*
X128230Y19068D02*
X128293Y19061D01*
X128364Y19054D01*
X128441Y19047D01*
X128617Y19019D01*
X128807Y18984D01*
X128997Y18928D01*
X129194Y18850D01*
X129201D01*
X129215Y18843D01*
X129243Y18829D01*
X129278Y18808D01*
X129320Y18787D01*
X129370Y18759D01*
X129482Y18695D01*
X129609Y18611D01*
X129735Y18512D01*
X129862Y18407D01*
X129968Y18280D01*
Y18273D01*
X129982Y18266D01*
X129996Y18245D01*
X130010Y18217D01*
X130059Y18147D01*
X130115Y18055D01*
X130179Y17936D01*
X130235Y17809D01*
X130291Y17661D01*
X130340Y17499D01*
Y17492D01*
X130348Y17478D01*
Y17457D01*
X130355Y17422D01*
X130369Y17373D01*
X130376Y17316D01*
X130383Y17253D01*
X130397Y17176D01*
X130404Y17091D01*
X130411Y17000D01*
X130425Y16894D01*
X130432Y16782D01*
X130439Y16662D01*
Y16528D01*
X130446Y16388D01*
Y16240D01*
Y11864D01*
X128582D01*
Y15459D01*
Y15473D01*
Y15508D01*
Y15564D01*
Y15642D01*
X128574Y15733D01*
Y15839D01*
Y15951D01*
X128567Y16071D01*
X128553Y16317D01*
X128539Y16444D01*
X128525Y16564D01*
X128511Y16676D01*
X128497Y16775D01*
X128476Y16866D01*
X128455Y16936D01*
Y16943D01*
X128448Y16951D01*
X128434Y16993D01*
X128406Y17056D01*
X128364Y17126D01*
X128307Y17211D01*
X128244Y17302D01*
X128159Y17380D01*
X128068Y17457D01*
X128054Y17464D01*
X128019Y17485D01*
X127962Y17520D01*
X127885Y17556D01*
X127794Y17584D01*
X127681Y17619D01*
X127554Y17640D01*
X127421Y17647D01*
X127371D01*
X127336Y17640D01*
X127294D01*
X127245Y17633D01*
X127125Y17612D01*
X126992Y17584D01*
X126844Y17534D01*
X126689Y17471D01*
X126541Y17380D01*
X126534D01*
X126527Y17366D01*
X126506Y17351D01*
X126478Y17330D01*
X126415Y17274D01*
X126330Y17190D01*
X126246Y17091D01*
X126154Y16964D01*
X126077Y16824D01*
X126013Y16669D01*
Y16662D01*
X126006Y16648D01*
X125999Y16620D01*
X125992Y16585D01*
X125978Y16535D01*
X125971Y16472D01*
X125957Y16395D01*
X125943Y16303D01*
X125929Y16198D01*
X125915Y16085D01*
X125908Y15951D01*
X125894Y15804D01*
X125887Y15642D01*
X125880Y15459D01*
X125873Y15262D01*
Y15051D01*
Y11864D01*
X124008D01*
Y18921D01*
X125739D01*
Y17879D01*
X125753Y17893D01*
X125781Y17928D01*
X125831Y17992D01*
X125908Y18069D01*
X125999Y18154D01*
X126105Y18259D01*
X126232Y18365D01*
X126379Y18477D01*
X126534Y18590D01*
X126710Y18695D01*
X126907Y18801D01*
X127111Y18885D01*
X127329Y18963D01*
X127561Y19026D01*
X127808Y19061D01*
X128068Y19075D01*
X128174D01*
X128230Y19068D01*
D02*
G37*
G36*
X107179D02*
X107298Y19061D01*
X107432Y19047D01*
X107587Y19033D01*
X107756Y19019D01*
X107924Y18991D01*
X108100Y18956D01*
X108283Y18921D01*
X108459Y18871D01*
X108635Y18822D01*
X108797Y18752D01*
X108952Y18681D01*
X109092Y18597D01*
X109100Y18590D01*
X109121Y18576D01*
X109163Y18548D01*
X109205Y18512D01*
X109261Y18456D01*
X109332Y18400D01*
X109402Y18329D01*
X109479Y18245D01*
X109557Y18154D01*
X109641Y18048D01*
X109719Y17936D01*
X109796Y17809D01*
X109873Y17675D01*
X109944Y17527D01*
X110007Y17373D01*
X110063Y17204D01*
X108304Y16880D01*
Y16887D01*
X108297Y16901D01*
X108290Y16922D01*
X108283Y16951D01*
X108248Y17021D01*
X108206Y17112D01*
X108143Y17211D01*
X108072Y17316D01*
X107981Y17415D01*
X107868Y17506D01*
X107854Y17513D01*
X107833Y17527D01*
X107812Y17542D01*
X107777Y17556D01*
X107741Y17577D01*
X107643Y17619D01*
X107516Y17661D01*
X107362Y17696D01*
X107179Y17724D01*
X106975Y17731D01*
X106855D01*
X106792Y17724D01*
X106721Y17717D01*
X106651D01*
X106567Y17703D01*
X106391Y17682D01*
X106215Y17640D01*
X106053Y17591D01*
X105983Y17556D01*
X105919Y17520D01*
X105912Y17513D01*
X105884Y17492D01*
X105856Y17464D01*
X105814Y17422D01*
X105779Y17366D01*
X105743Y17302D01*
X105715Y17225D01*
X105708Y17140D01*
Y17133D01*
Y17105D01*
X105715Y17070D01*
X105729Y17028D01*
X105750Y16972D01*
X105786Y16915D01*
X105828Y16859D01*
X105891Y16803D01*
X105905Y16796D01*
X105926Y16782D01*
X105954Y16767D01*
X105997Y16753D01*
X106053Y16725D01*
X106116Y16697D01*
X106201Y16669D01*
X106306Y16634D01*
X106426Y16599D01*
X106567Y16549D01*
X106728Y16507D01*
X106918Y16458D01*
X107129Y16402D01*
X107362Y16345D01*
X107495Y16310D01*
X107629Y16282D01*
X107636D01*
X107643Y16275D01*
X107664D01*
X107692Y16268D01*
X107770Y16247D01*
X107868Y16219D01*
X107995Y16191D01*
X108135Y16148D01*
X108283Y16106D01*
X108452Y16050D01*
X108790Y15930D01*
X108966Y15860D01*
X109135Y15790D01*
X109304Y15712D01*
X109451Y15628D01*
X109592Y15543D01*
X109712Y15452D01*
X109719Y15445D01*
X109740Y15431D01*
X109768Y15403D01*
X109803Y15360D01*
X109852Y15311D01*
X109902Y15248D01*
X109951Y15177D01*
X110007Y15093D01*
X110063Y14994D01*
X110113Y14896D01*
X110169Y14783D01*
X110211Y14657D01*
X110246Y14523D01*
X110274Y14382D01*
X110295Y14228D01*
X110303Y14066D01*
Y14052D01*
Y14024D01*
X110295Y13974D01*
X110288Y13904D01*
X110274Y13820D01*
X110260Y13721D01*
X110232Y13615D01*
X110204Y13496D01*
X110155Y13369D01*
X110106Y13236D01*
X110035Y13095D01*
X109958Y12954D01*
X109866Y12813D01*
X109754Y12673D01*
X109627Y12532D01*
X109486Y12398D01*
X109479Y12391D01*
X109451Y12370D01*
X109402Y12335D01*
X109339Y12293D01*
X109247Y12236D01*
X109149Y12180D01*
X109022Y12117D01*
X108881Y12054D01*
X108727Y11983D01*
X108544Y11920D01*
X108354Y11864D01*
X108135Y11814D01*
X107903Y11765D01*
X107650Y11730D01*
X107383Y11709D01*
X107094Y11702D01*
X107031D01*
X106953Y11709D01*
X106855D01*
X106735Y11723D01*
X106595Y11730D01*
X106440Y11751D01*
X106271Y11772D01*
X106088Y11807D01*
X105905Y11842D01*
X105715Y11892D01*
X105518Y11948D01*
X105335Y12018D01*
X105145Y12096D01*
X104969Y12180D01*
X104808Y12286D01*
X104801Y12293D01*
X104772Y12314D01*
X104730Y12349D01*
X104674Y12391D01*
X104604Y12455D01*
X104526Y12525D01*
X104449Y12609D01*
X104357Y12701D01*
X104266Y12813D01*
X104174Y12933D01*
X104083Y13060D01*
X103991Y13200D01*
X103914Y13355D01*
X103837Y13517D01*
X103773Y13693D01*
X103717Y13876D01*
X105589Y14164D01*
Y14157D01*
X105596Y14143D01*
X105603Y14115D01*
X105610Y14073D01*
X105624Y14031D01*
X105645Y13974D01*
X105694Y13855D01*
X105757Y13721D01*
X105835Y13580D01*
X105940Y13454D01*
X106067Y13334D01*
X106074D01*
X106081Y13320D01*
X106102Y13306D01*
X106137Y13292D01*
X106173Y13271D01*
X106215Y13243D01*
X106271Y13221D01*
X106334Y13193D01*
X106405Y13165D01*
X106482Y13144D01*
X106567Y13116D01*
X106658Y13095D01*
X106756Y13081D01*
X106862Y13067D01*
X106975Y13053D01*
X107165D01*
X107214Y13060D01*
X107277D01*
X107340Y13067D01*
X107418Y13074D01*
X107502Y13088D01*
X107678Y13116D01*
X107861Y13165D01*
X108030Y13228D01*
X108114Y13271D01*
X108185Y13313D01*
X108199Y13320D01*
X108227Y13348D01*
X108262Y13390D01*
X108311Y13447D01*
X108354Y13517D01*
X108396Y13601D01*
X108424Y13700D01*
X108431Y13813D01*
Y13820D01*
Y13848D01*
X108424Y13890D01*
X108417Y13939D01*
X108396Y13988D01*
X108375Y14052D01*
X108340Y14108D01*
X108297Y14164D01*
X108290Y14171D01*
X108269Y14185D01*
X108227Y14214D01*
X108164Y14249D01*
X108086Y14284D01*
X107974Y14326D01*
X107910Y14347D01*
X107840Y14368D01*
X107756Y14389D01*
X107671Y14411D01*
X107664D01*
X107643Y14418D01*
X107615Y14425D01*
X107573Y14432D01*
X107523Y14446D01*
X107460Y14460D01*
X107390Y14474D01*
X107312Y14495D01*
X107221Y14516D01*
X107129Y14537D01*
X106925Y14593D01*
X106700Y14650D01*
X106468Y14713D01*
X106222Y14776D01*
X105983Y14854D01*
X105743Y14924D01*
X105511Y15001D01*
X105300Y15086D01*
X105103Y15163D01*
X105019Y15199D01*
X104941Y15241D01*
X104871Y15283D01*
X104808Y15318D01*
X104801Y15325D01*
X104772Y15346D01*
X104730Y15374D01*
X104681Y15424D01*
X104618Y15480D01*
X104547Y15550D01*
X104470Y15635D01*
X104392Y15733D01*
X104315Y15839D01*
X104238Y15958D01*
X104167Y16085D01*
X104104Y16233D01*
X104055Y16381D01*
X104013Y16549D01*
X103984Y16725D01*
X103977Y16908D01*
Y16922D01*
Y16951D01*
X103984Y17000D01*
X103991Y17063D01*
X103998Y17140D01*
X104013Y17232D01*
X104041Y17330D01*
X104069Y17443D01*
X104104Y17563D01*
X104153Y17689D01*
X104210Y17816D01*
X104280Y17943D01*
X104364Y18076D01*
X104456Y18203D01*
X104568Y18329D01*
X104695Y18449D01*
X104702Y18456D01*
X104730Y18477D01*
X104772Y18505D01*
X104836Y18548D01*
X104913Y18597D01*
X105005Y18646D01*
X105117Y18702D01*
X105251Y18766D01*
X105399Y18822D01*
X105560Y18878D01*
X105743Y18928D01*
X105947Y18977D01*
X106166Y19019D01*
X106405Y19047D01*
X106665Y19068D01*
X106939Y19075D01*
X107080D01*
X107179Y19068D01*
D02*
G37*
G36*
X164176Y12124D02*
X163725Y10900D01*
Y10893D01*
X163711Y10872D01*
X163704Y10843D01*
X163683Y10801D01*
X163662Y10745D01*
X163634Y10689D01*
X163578Y10548D01*
X163500Y10400D01*
X163423Y10238D01*
X163338Y10091D01*
X163254Y9957D01*
X163247Y9943D01*
X163219Y9901D01*
X163170Y9844D01*
X163106Y9774D01*
X163036Y9689D01*
X162952Y9598D01*
X162853Y9514D01*
X162747Y9436D01*
X162733Y9429D01*
X162698Y9401D01*
X162635Y9366D01*
X162550Y9324D01*
X162445Y9267D01*
X162325Y9218D01*
X162192Y9169D01*
X162037Y9120D01*
X162030D01*
X162016Y9113D01*
X161995Y9106D01*
X161959Y9099D01*
X161924Y9092D01*
X161875Y9085D01*
X161819Y9070D01*
X161762Y9063D01*
X161615Y9035D01*
X161453Y9021D01*
X161277Y9007D01*
X161080Y9000D01*
X160989D01*
X160939Y9007D01*
X160820D01*
X160749Y9014D01*
X160587Y9028D01*
X160411Y9049D01*
X160222Y9077D01*
X160032Y9120D01*
X159863Y10576D01*
X159870D01*
X159884Y10569D01*
X159905D01*
X159940Y10562D01*
X159975Y10555D01*
X160018Y10548D01*
X160123Y10534D01*
X160250Y10513D01*
X160376Y10499D01*
X160517Y10492D01*
X160651Y10485D01*
X160714D01*
X160756Y10492D01*
X160813Y10499D01*
X160869Y10506D01*
X161017Y10534D01*
X161171Y10576D01*
X161326Y10646D01*
X161404Y10696D01*
X161481Y10745D01*
X161544Y10801D01*
X161608Y10872D01*
X161615Y10879D01*
X161622Y10893D01*
X161636Y10914D01*
X161657Y10942D01*
X161685Y10977D01*
X161713Y11026D01*
X161748Y11076D01*
X161784Y11139D01*
X161861Y11273D01*
X161945Y11442D01*
X162023Y11631D01*
X162086Y11842D01*
X159412Y18921D01*
X161397Y18921D01*
X163078Y13904D01*
X164732Y18921D01*
X166666D01*
X164176Y12124D01*
D02*
G37*
G36*
X189983Y16479D02*
Y16472D01*
Y16458D01*
Y16437D01*
Y16402D01*
Y16359D01*
Y16310D01*
Y16254D01*
Y16198D01*
X189976Y16050D01*
Y15888D01*
X189969Y15705D01*
X189962Y15515D01*
X189955Y15311D01*
X189941Y15107D01*
X189934Y14896D01*
X189913Y14692D01*
X189899Y14502D01*
X189877Y14319D01*
X189849Y14150D01*
X189821Y14002D01*
Y13995D01*
X189814Y13967D01*
X189807Y13932D01*
X189786Y13883D01*
X189772Y13820D01*
X189751Y13749D01*
X189723Y13665D01*
X189688Y13580D01*
X189603Y13383D01*
X189505Y13179D01*
X189378Y12975D01*
X189230Y12778D01*
X189223Y12771D01*
X189209Y12757D01*
X189188Y12729D01*
X189153Y12694D01*
X189111Y12659D01*
X189061Y12609D01*
X188998Y12553D01*
X188928Y12497D01*
X188850Y12434D01*
X188766Y12370D01*
X188674Y12307D01*
X188569Y12236D01*
X188463Y12173D01*
X188344Y12110D01*
X188224Y12047D01*
X188090Y11990D01*
X188083D01*
X188055Y11976D01*
X188020Y11962D01*
X187964Y11941D01*
X187886Y11920D01*
X187802Y11899D01*
X187703Y11871D01*
X187591Y11842D01*
X187457Y11814D01*
X187316Y11786D01*
X187162Y11765D01*
X187000Y11744D01*
X186817Y11723D01*
X186634Y11709D01*
X186430Y11702D01*
X186219Y11695D01*
X186085D01*
X185987Y11702D01*
X185874D01*
X185740Y11709D01*
X185593Y11723D01*
X185431Y11737D01*
X185262Y11751D01*
X185086Y11772D01*
X184734Y11828D01*
X184565Y11864D01*
X184397Y11906D01*
X184242Y11955D01*
X184101Y12011D01*
X184094Y12018D01*
X184073Y12025D01*
X184031Y12047D01*
X183981Y12068D01*
X183925Y12103D01*
X183855Y12138D01*
X183777Y12187D01*
X183693Y12236D01*
X183510Y12356D01*
X183320Y12504D01*
X183130Y12666D01*
X182961Y12849D01*
X182954Y12856D01*
X182940Y12870D01*
X182919Y12898D01*
X182898Y12940D01*
X182863Y12982D01*
X182821Y13039D01*
X182778Y13109D01*
X182736Y13179D01*
X182645Y13341D01*
X182553Y13524D01*
X182476Y13721D01*
X182412Y13932D01*
Y13939D01*
X182405Y13974D01*
X182398Y14024D01*
X182384Y14087D01*
X182370Y14178D01*
X182349Y14284D01*
X182335Y14411D01*
X182321Y14558D01*
X182300Y14720D01*
X182286Y14903D01*
X182265Y15107D01*
X182251Y15325D01*
X182244Y15564D01*
X182230Y15825D01*
X182222Y16106D01*
Y16402D01*
Y21601D01*
X184186D01*
Y16324D01*
Y16310D01*
Y16268D01*
Y16205D01*
Y16120D01*
Y16022D01*
X184193Y15909D01*
Y15783D01*
Y15649D01*
X184200Y15374D01*
X184207Y15234D01*
X184214Y15107D01*
X184221Y14980D01*
X184235Y14868D01*
X184242Y14769D01*
X184256Y14692D01*
Y14685D01*
X184263Y14664D01*
X184270Y14636D01*
X184284Y14593D01*
X184298Y14544D01*
X184319Y14481D01*
X184375Y14347D01*
X184460Y14193D01*
X184558Y14038D01*
X184622Y13960D01*
X184692Y13883D01*
X184769Y13806D01*
X184854Y13735D01*
X184861Y13728D01*
X184875Y13721D01*
X184903Y13700D01*
X184938Y13679D01*
X184988Y13651D01*
X185051Y13623D01*
X185114Y13587D01*
X185199Y13559D01*
X185283Y13524D01*
X185382Y13489D01*
X185487Y13461D01*
X185607Y13433D01*
X185733Y13412D01*
X185860Y13390D01*
X186008Y13383D01*
X186155Y13376D01*
X186233D01*
X186296Y13383D01*
X186360D01*
X186444Y13397D01*
X186528Y13404D01*
X186627Y13419D01*
X186831Y13461D01*
X187042Y13517D01*
X187239Y13601D01*
X187330Y13658D01*
X187415Y13714D01*
X187422Y13721D01*
X187436Y13728D01*
X187457Y13749D01*
X187485Y13777D01*
X187556Y13848D01*
X187640Y13946D01*
X187732Y14073D01*
X187816Y14214D01*
X187879Y14375D01*
X187907Y14460D01*
X187929Y14551D01*
Y14558D01*
X187936Y14572D01*
Y14608D01*
X187943Y14650D01*
X187950Y14706D01*
X187957Y14769D01*
X187964Y14854D01*
X187978Y14945D01*
X187985Y15058D01*
X187992Y15178D01*
X187999Y15311D01*
X188006Y15466D01*
X188013Y15628D01*
Y15811D01*
X188020Y16001D01*
Y16212D01*
Y21601D01*
X189983D01*
Y16479D01*
D02*
G37*
G36*
X220434Y19955D02*
X215178D01*
Y17795D01*
X220068D01*
Y16148D01*
X215178D01*
Y13510D01*
X220617D01*
Y11864D01*
X213215D01*
Y21601D01*
X220434D01*
Y19955D01*
D02*
G37*
G36*
X211365D02*
X206109D01*
Y17795D01*
X210999D01*
Y16148D01*
X206109D01*
Y13510D01*
X211548D01*
Y11864D01*
X204146D01*
Y21601D01*
X211365D01*
Y19955D01*
D02*
G37*
G36*
X199108D02*
X196224D01*
Y11864D01*
X194261D01*
Y19955D01*
X191369D01*
Y21601D01*
X199108D01*
Y19955D01*
D02*
G37*
G36*
X113806Y11864D02*
X111942D01*
Y18921D01*
X113806D01*
Y11864D01*
D02*
G37*
G36*
X90891Y21594D02*
X91010D01*
X91137Y21587D01*
X91278Y21580D01*
X91426Y21566D01*
X91573Y21552D01*
X91883Y21524D01*
X92031Y21503D01*
X92178Y21474D01*
X92312Y21446D01*
X92439Y21411D01*
X92446D01*
X92474Y21397D01*
X92523Y21383D01*
X92579Y21362D01*
X92657Y21334D01*
X92741Y21299D01*
X92840Y21256D01*
X92945Y21207D01*
X93058Y21144D01*
X93177Y21081D01*
X93297Y21003D01*
X93424Y20926D01*
X93543Y20834D01*
X93670Y20736D01*
X93790Y20630D01*
X93909Y20511D01*
X93916Y20503D01*
X93937Y20482D01*
X93965Y20447D01*
X94008Y20398D01*
X94064Y20335D01*
X94120Y20257D01*
X94184Y20173D01*
X94254Y20074D01*
X94331Y19962D01*
X94402Y19842D01*
X94479Y19715D01*
X94557Y19575D01*
X94634Y19427D01*
X94704Y19272D01*
X94775Y19103D01*
X94838Y18935D01*
X94845Y18928D01*
X94852Y18892D01*
X94866Y18843D01*
X94887Y18766D01*
X94915Y18674D01*
X94943Y18569D01*
X94972Y18442D01*
X95000Y18301D01*
X95028Y18139D01*
X95056Y17964D01*
X95084Y17774D01*
X95112Y17570D01*
X95133Y17358D01*
X95147Y17126D01*
X95162Y16887D01*
Y16634D01*
Y16620D01*
Y16578D01*
Y16514D01*
X95154Y16430D01*
Y16331D01*
X95147Y16205D01*
X95133Y16071D01*
X95126Y15923D01*
X95105Y15768D01*
X95091Y15600D01*
X95035Y15255D01*
X94958Y14903D01*
X94915Y14734D01*
X94859Y14565D01*
X94852Y14551D01*
X94845Y14516D01*
X94824Y14460D01*
X94789Y14389D01*
X94754Y14298D01*
X94711Y14192D01*
X94655Y14080D01*
X94592Y13953D01*
X94521Y13820D01*
X94444Y13679D01*
X94360Y13538D01*
X94268Y13390D01*
X94162Y13250D01*
X94057Y13109D01*
X93944Y12968D01*
X93818Y12842D01*
X93811Y12835D01*
X93797Y12820D01*
X93761Y12792D01*
X93726Y12757D01*
X93670Y12715D01*
X93607Y12673D01*
X93536Y12616D01*
X93452Y12560D01*
X93360Y12497D01*
X93255Y12434D01*
X93142Y12370D01*
X93023Y12307D01*
X92889Y12243D01*
X92748Y12180D01*
X92600Y12124D01*
X92439Y12068D01*
X92432D01*
X92410Y12061D01*
X92368Y12047D01*
X92319Y12040D01*
X92256Y12018D01*
X92171Y12004D01*
X92080Y11983D01*
X91974Y11969D01*
X91855Y11948D01*
X91728Y11927D01*
X91580Y11913D01*
X91426Y11899D01*
X91257Y11885D01*
X91081Y11871D01*
X90891Y11864D01*
X87000D01*
Y21601D01*
X90785D01*
X90891Y21594D01*
D02*
G37*
G36*
X153770Y18090D02*
X153777Y18104D01*
X153812Y18132D01*
X153854Y18182D01*
X153925Y18245D01*
X154002Y18322D01*
X154100Y18400D01*
X154220Y18491D01*
X154347Y18583D01*
X154487Y18674D01*
X154642Y18766D01*
X154811Y18850D01*
X154994Y18921D01*
X155184Y18984D01*
X155381Y19033D01*
X155592Y19061D01*
X155810Y19075D01*
X155866D01*
X155937Y19068D01*
X156028Y19061D01*
X156134Y19047D01*
X156267Y19026D01*
X156408Y18998D01*
X156563Y18956D01*
X156732Y18906D01*
X156901Y18850D01*
X157077Y18773D01*
X157260Y18681D01*
X157435Y18576D01*
X157618Y18449D01*
X157787Y18301D01*
X157949Y18139D01*
X157956Y18125D01*
X157984Y18097D01*
X158026Y18041D01*
X158083Y17964D01*
X158146Y17872D01*
X158216Y17752D01*
X158294Y17612D01*
X158371Y17457D01*
X158449Y17274D01*
X158526Y17077D01*
X158596Y16852D01*
X158660Y16613D01*
X158716Y16352D01*
X158758Y16078D01*
X158786Y15776D01*
X158793Y15459D01*
Y15452D01*
Y15438D01*
Y15417D01*
Y15381D01*
Y15339D01*
X158786Y15283D01*
Y15227D01*
X158779Y15163D01*
X158765Y15009D01*
X158751Y14833D01*
X158723Y14643D01*
X158688Y14432D01*
X158638Y14214D01*
X158582Y13981D01*
X158512Y13749D01*
X158427Y13524D01*
X158329Y13292D01*
X158216Y13074D01*
X158083Y12863D01*
X157928Y12673D01*
X157921Y12659D01*
X157886Y12630D01*
X157844Y12581D01*
X157773Y12518D01*
X157689Y12448D01*
X157590Y12363D01*
X157478Y12279D01*
X157344Y12187D01*
X157203Y12096D01*
X157041Y12011D01*
X156866Y11927D01*
X156683Y11856D01*
X156486Y11793D01*
X156281Y11744D01*
X156063Y11716D01*
X155838Y11702D01*
X155782D01*
X155733Y11709D01*
X155683D01*
X155613Y11716D01*
X155543Y11730D01*
X155465Y11737D01*
X155282Y11779D01*
X155078Y11828D01*
X154860Y11906D01*
X154755Y11948D01*
X154642Y12004D01*
X154635Y12011D01*
X154614Y12018D01*
X154586Y12040D01*
X154544Y12061D01*
X154494Y12096D01*
X154438Y12131D01*
X154368Y12180D01*
X154297Y12229D01*
X154143Y12356D01*
X153974Y12511D01*
X153798Y12687D01*
X153636Y12898D01*
Y11864D01*
X151905D01*
Y21601D01*
X153770D01*
Y18090D01*
D02*
G37*
G36*
X135132Y19068D02*
X135174D01*
X135287Y19061D01*
X135420Y19047D01*
X135568Y19019D01*
X135744Y18991D01*
X135927Y18949D01*
X136117Y18892D01*
X136321Y18822D01*
X136525Y18738D01*
X136736Y18639D01*
X136940Y18519D01*
X137137Y18379D01*
X137327Y18217D01*
X137503Y18034D01*
X137510Y18020D01*
X137545Y17985D01*
X137587Y17921D01*
X137644Y17837D01*
X137714Y17724D01*
X137791Y17591D01*
X137869Y17429D01*
X137953Y17246D01*
X138038Y17035D01*
X138122Y16796D01*
X138193Y16535D01*
X138263Y16247D01*
X138312Y15937D01*
X138354Y15600D01*
X138375Y15234D01*
X138383Y14847D01*
X133704D01*
Y14840D01*
Y14812D01*
X133711Y14769D01*
Y14713D01*
X133718Y14643D01*
X133732Y14558D01*
X133746Y14474D01*
X133767Y14375D01*
X133816Y14164D01*
X133851Y14059D01*
X133894Y13953D01*
X133950Y13848D01*
X134006Y13742D01*
X134069Y13644D01*
X134147Y13552D01*
X134154Y13545D01*
X134168Y13531D01*
X134189Y13510D01*
X134224Y13482D01*
X134267Y13447D01*
X134323Y13404D01*
X134379Y13369D01*
X134449Y13327D01*
X134520Y13278D01*
X134604Y13243D01*
X134787Y13165D01*
X134893Y13137D01*
X134998Y13116D01*
X135111Y13102D01*
X135230Y13095D01*
X135273D01*
X135308Y13102D01*
X135385Y13109D01*
X135491Y13123D01*
X135603Y13151D01*
X135730Y13193D01*
X135850Y13250D01*
X135969Y13327D01*
X135976D01*
X135983Y13341D01*
X136018Y13376D01*
X136075Y13433D01*
X136138Y13517D01*
X136215Y13622D01*
X136293Y13756D01*
X136363Y13911D01*
X136426Y14101D01*
X138284Y13791D01*
X138277Y13777D01*
X138270Y13749D01*
X138249Y13693D01*
X138214Y13622D01*
X138178Y13538D01*
X138129Y13440D01*
X138073Y13327D01*
X138003Y13214D01*
X137932Y13088D01*
X137848Y12961D01*
X137749Y12828D01*
X137651Y12701D01*
X137538Y12574D01*
X137418Y12448D01*
X137285Y12335D01*
X137144Y12229D01*
X137137Y12222D01*
X137109Y12208D01*
X137067Y12180D01*
X137003Y12145D01*
X136926Y12110D01*
X136842Y12061D01*
X136729Y12018D01*
X136609Y11969D01*
X136476Y11920D01*
X136335Y11871D01*
X136173Y11821D01*
X136004Y11786D01*
X135821Y11751D01*
X135624Y11723D01*
X135420Y11709D01*
X135209Y11702D01*
X135132D01*
X135083Y11709D01*
X135033D01*
X134977Y11716D01*
X134907Y11723D01*
X134752Y11737D01*
X134583Y11765D01*
X134386Y11800D01*
X134175Y11849D01*
X133957Y11913D01*
X133732Y11997D01*
X133507Y12089D01*
X133281Y12208D01*
X133063Y12342D01*
X132859Y12504D01*
X132662Y12687D01*
X132486Y12898D01*
X132479Y12912D01*
X132458Y12940D01*
X132423Y12996D01*
X132381Y13074D01*
X132325Y13165D01*
X132268Y13278D01*
X132205Y13412D01*
X132142Y13566D01*
X132071Y13735D01*
X132008Y13918D01*
X131952Y14115D01*
X131903Y14333D01*
X131853Y14558D01*
X131818Y14805D01*
X131797Y15065D01*
X131790Y15332D01*
Y15339D01*
Y15353D01*
Y15374D01*
Y15410D01*
X131797Y15452D01*
Y15501D01*
Y15557D01*
X131804Y15621D01*
X131818Y15768D01*
X131839Y15937D01*
X131867Y16127D01*
X131903Y16331D01*
X131952Y16549D01*
X132015Y16775D01*
X132085Y17000D01*
X132177Y17232D01*
X132282Y17457D01*
X132402Y17675D01*
X132543Y17879D01*
X132705Y18076D01*
X132719Y18090D01*
X132747Y18118D01*
X132796Y18168D01*
X132866Y18231D01*
X132958Y18308D01*
X133070Y18393D01*
X133197Y18484D01*
X133338Y18576D01*
X133500Y18667D01*
X133675Y18759D01*
X133865Y18843D01*
X134069Y18921D01*
X134288Y18984D01*
X134520Y19033D01*
X134766Y19061D01*
X135026Y19075D01*
X135097D01*
X135132Y19068D01*
D02*
G37*
G36*
X99608D02*
X99650D01*
X99763Y19061D01*
X99897Y19047D01*
X100044Y19019D01*
X100220Y18991D01*
X100403Y18949D01*
X100593Y18892D01*
X100797Y18822D01*
X101001Y18738D01*
X101212Y18639D01*
X101416Y18519D01*
X101613Y18379D01*
X101803Y18217D01*
X101979Y18034D01*
X101986Y18020D01*
X102021Y17985D01*
X102064Y17921D01*
X102120Y17837D01*
X102190Y17724D01*
X102268Y17591D01*
X102345Y17429D01*
X102430Y17246D01*
X102514Y17035D01*
X102598Y16796D01*
X102669Y16535D01*
X102739Y16247D01*
X102788Y15937D01*
X102831Y15600D01*
X102852Y15234D01*
X102859Y14847D01*
X98180D01*
Y14840D01*
Y14812D01*
X98187Y14769D01*
Y14713D01*
X98194Y14643D01*
X98208Y14558D01*
X98222Y14474D01*
X98243Y14375D01*
X98293Y14164D01*
X98328Y14059D01*
X98370Y13953D01*
X98426Y13848D01*
X98482Y13742D01*
X98546Y13644D01*
X98623Y13552D01*
X98630Y13545D01*
X98644Y13531D01*
X98665Y13510D01*
X98701Y13482D01*
X98743Y13447D01*
X98799Y13404D01*
X98855Y13369D01*
X98926Y13327D01*
X98996Y13278D01*
X99080Y13243D01*
X99263Y13165D01*
X99369Y13137D01*
X99474Y13116D01*
X99587Y13102D01*
X99707Y13095D01*
X99749D01*
X99784Y13102D01*
X99861Y13109D01*
X99967Y13123D01*
X100080Y13151D01*
X100206Y13193D01*
X100326Y13250D01*
X100445Y13327D01*
X100452D01*
X100459Y13341D01*
X100495Y13376D01*
X100551Y13433D01*
X100614Y13517D01*
X100692Y13622D01*
X100769Y13756D01*
X100839Y13911D01*
X100903Y14101D01*
X102760Y13791D01*
X102753Y13777D01*
X102746Y13749D01*
X102725Y13693D01*
X102690Y13622D01*
X102655Y13538D01*
X102605Y13440D01*
X102549Y13327D01*
X102479Y13214D01*
X102408Y13088D01*
X102324Y12961D01*
X102226Y12828D01*
X102127Y12701D01*
X102014Y12574D01*
X101895Y12448D01*
X101761Y12335D01*
X101620Y12229D01*
X101613Y12222D01*
X101585Y12208D01*
X101543Y12180D01*
X101480Y12145D01*
X101402Y12110D01*
X101318Y12061D01*
X101205Y12018D01*
X101086Y11969D01*
X100952Y11920D01*
X100811Y11871D01*
X100649Y11821D01*
X100481Y11786D01*
X100298Y11751D01*
X100101Y11723D01*
X99897Y11709D01*
X99686Y11702D01*
X99608D01*
X99559Y11709D01*
X99510D01*
X99453Y11716D01*
X99383Y11723D01*
X99228Y11737D01*
X99059Y11765D01*
X98862Y11800D01*
X98651Y11849D01*
X98433Y11913D01*
X98208Y11997D01*
X97983Y12089D01*
X97758Y12208D01*
X97540Y12342D01*
X97336Y12504D01*
X97139Y12687D01*
X96963Y12898D01*
X96956Y12912D01*
X96935Y12940D01*
X96899Y12996D01*
X96857Y13074D01*
X96801Y13165D01*
X96745Y13278D01*
X96681Y13412D01*
X96618Y13566D01*
X96548Y13735D01*
X96484Y13918D01*
X96428Y14115D01*
X96379Y14333D01*
X96329Y14558D01*
X96294Y14805D01*
X96273Y15065D01*
X96266Y15332D01*
Y15339D01*
Y15353D01*
Y15374D01*
Y15410D01*
X96273Y15452D01*
Y15501D01*
Y15557D01*
X96280Y15621D01*
X96294Y15768D01*
X96315Y15937D01*
X96343Y16127D01*
X96379Y16331D01*
X96428Y16549D01*
X96491Y16775D01*
X96562Y17000D01*
X96653Y17232D01*
X96759Y17457D01*
X96878Y17675D01*
X97019Y17879D01*
X97181Y18076D01*
X97195Y18090D01*
X97223Y18118D01*
X97272Y18168D01*
X97343Y18231D01*
X97434Y18308D01*
X97547Y18393D01*
X97673Y18484D01*
X97814Y18576D01*
X97976Y18667D01*
X98152Y18759D01*
X98342Y18843D01*
X98546Y18921D01*
X98764Y18984D01*
X98996Y19033D01*
X99242Y19061D01*
X99503Y19075D01*
X99573D01*
X99608Y19068D01*
D02*
G37*
G36*
X176137Y21756D02*
X176200D01*
X176270Y21749D01*
X176348Y21742D01*
X176432Y21735D01*
X176531Y21721D01*
X176636Y21707D01*
X176742Y21693D01*
X176974Y21650D01*
X177234Y21594D01*
X177502Y21524D01*
X177783Y21439D01*
X178064Y21334D01*
X178353Y21200D01*
X178634Y21052D01*
X178909Y20869D01*
X179042Y20771D01*
X179176Y20665D01*
X179303Y20553D01*
X179422Y20433D01*
X179429Y20426D01*
X179436Y20419D01*
X179457Y20398D01*
X179479Y20370D01*
X179507Y20335D01*
X179542Y20292D01*
X179577Y20243D01*
X179619Y20187D01*
X179669Y20124D01*
X179718Y20053D01*
X179767Y19976D01*
X179823Y19892D01*
X179880Y19793D01*
X179943Y19694D01*
X179999Y19589D01*
X180063Y19476D01*
X180175Y19223D01*
X180295Y18949D01*
X180400Y18639D01*
X180499Y18308D01*
X180576Y17957D01*
X180639Y17570D01*
X180682Y17162D01*
X180696Y16944D01*
Y16725D01*
Y16711D01*
Y16669D01*
Y16606D01*
X180689Y16514D01*
X180682Y16402D01*
X180675Y16275D01*
X180668Y16134D01*
X180653Y15979D01*
X180632Y15811D01*
X180611Y15628D01*
X180548Y15262D01*
X180506Y15072D01*
X180457Y14882D01*
X180400Y14692D01*
X180337Y14509D01*
Y14502D01*
X180323Y14474D01*
X180309Y14439D01*
X180288Y14382D01*
X180259Y14319D01*
X180224Y14242D01*
X180182Y14157D01*
X180133Y14059D01*
X180077Y13953D01*
X180013Y13841D01*
X179943Y13728D01*
X179865Y13601D01*
X179781Y13482D01*
X179690Y13355D01*
X179591Y13221D01*
X179486Y13095D01*
X179493Y13088D01*
X179521Y13074D01*
X179556Y13046D01*
X179612Y13010D01*
X179683Y12968D01*
X179760Y12912D01*
X179851Y12856D01*
X179957Y12799D01*
X180070Y12729D01*
X180189Y12666D01*
X180316Y12595D01*
X180457Y12525D01*
X180752Y12391D01*
X181062Y12272D01*
X180337Y10886D01*
X180330D01*
X180316Y10893D01*
X180295Y10900D01*
X180259Y10914D01*
X180217Y10921D01*
X180175Y10942D01*
X180063Y10984D01*
X179929Y11033D01*
X179781Y11097D01*
X179626Y11167D01*
X179464Y11251D01*
X179457Y11258D01*
X179450D01*
X179429Y11273D01*
X179408Y11287D01*
X179373Y11308D01*
X179324Y11343D01*
X179268Y11378D01*
X179197Y11427D01*
X179106Y11484D01*
X179000Y11554D01*
X178874Y11631D01*
X178726Y11730D01*
X178564Y11842D01*
X178374Y11969D01*
X178156Y12110D01*
X178142Y12103D01*
X178114Y12089D01*
X178057Y12075D01*
X177987Y12047D01*
X177896Y12011D01*
X177790Y11976D01*
X177670Y11941D01*
X177530Y11906D01*
X177382Y11864D01*
X177220Y11828D01*
X177044Y11793D01*
X176861Y11758D01*
X176664Y11730D01*
X176460Y11716D01*
X176256Y11702D01*
X176038Y11695D01*
X175940D01*
X175883Y11702D01*
X175820D01*
X175750Y11709D01*
X175665Y11716D01*
X175574Y11723D01*
X175482Y11737D01*
X175377Y11751D01*
X175264Y11765D01*
X175018Y11807D01*
X174757Y11857D01*
X174483Y11927D01*
X174195Y12018D01*
X173899Y12124D01*
X173611Y12251D01*
X173315Y12398D01*
X173034Y12574D01*
X172900Y12673D01*
X172766Y12778D01*
X172640Y12891D01*
X172520Y13010D01*
Y13017D01*
X172506Y13024D01*
X172492Y13046D01*
X172464Y13074D01*
X172436Y13109D01*
X172400Y13151D01*
X172365Y13200D01*
X172323Y13257D01*
X172274Y13320D01*
X172225Y13390D01*
X172175Y13468D01*
X172119Y13552D01*
X172063Y13651D01*
X172006Y13749D01*
X171943Y13855D01*
X171887Y13974D01*
X171767Y14221D01*
X171655Y14502D01*
X171549Y14805D01*
X171451Y15135D01*
X171373Y15494D01*
X171310Y15881D01*
X171268Y16289D01*
X171261Y16507D01*
X171254Y16725D01*
Y16732D01*
Y16753D01*
Y16789D01*
Y16831D01*
X171261Y16887D01*
Y16957D01*
X171268Y17035D01*
X171275Y17119D01*
X171282Y17218D01*
X171296Y17316D01*
X171303Y17429D01*
X171324Y17549D01*
X171359Y17809D01*
X171416Y18083D01*
X171479Y18379D01*
X171563Y18681D01*
X171669Y18984D01*
X171788Y19293D01*
X171936Y19603D01*
X172105Y19892D01*
X172302Y20173D01*
X172415Y20307D01*
X172527Y20433D01*
X172534Y20440D01*
X172541Y20447D01*
X172562Y20468D01*
X172584Y20489D01*
X172619Y20518D01*
X172661Y20553D01*
X172703Y20595D01*
X172759Y20644D01*
X172893Y20743D01*
X173048Y20855D01*
X173231Y20975D01*
X173435Y21102D01*
X173674Y21221D01*
X173934Y21341D01*
X174216Y21453D01*
X174525Y21559D01*
X174856Y21643D01*
X175215Y21707D01*
X175588Y21749D01*
X175785Y21756D01*
X175989Y21763D01*
X176087D01*
X176137Y21756D01*
D02*
G37*
G36*
X118401Y19068D02*
X118492Y19054D01*
X118605Y19040D01*
X118731Y19012D01*
X118879Y18977D01*
X119034Y18935D01*
X119203Y18871D01*
X119379Y18794D01*
X119555Y18702D01*
X119738Y18590D01*
X119921Y18456D01*
X120096Y18301D01*
X120272Y18125D01*
X120434Y17921D01*
Y18921D01*
X122179D01*
Y12581D01*
Y12567D01*
Y12525D01*
Y12462D01*
Y12377D01*
X122172Y12279D01*
X122165Y12159D01*
Y12025D01*
X122151Y11885D01*
X122144Y11737D01*
X122130Y11582D01*
X122087Y11273D01*
X122066Y11125D01*
X122038Y10984D01*
X122003Y10843D01*
X121968Y10724D01*
Y10717D01*
X121961Y10696D01*
X121947Y10668D01*
X121933Y10625D01*
X121912Y10569D01*
X121883Y10513D01*
X121820Y10372D01*
X121736Y10217D01*
X121637Y10055D01*
X121525Y9894D01*
X121391Y9753D01*
X121384Y9746D01*
X121377Y9739D01*
X121356Y9718D01*
X121321Y9697D01*
X121285Y9668D01*
X121243Y9633D01*
X121187Y9591D01*
X121124Y9556D01*
X121060Y9507D01*
X120983Y9464D01*
X120814Y9373D01*
X120617Y9281D01*
X120392Y9204D01*
X120385D01*
X120364Y9197D01*
X120329Y9183D01*
X120279Y9176D01*
X120223Y9155D01*
X120146Y9141D01*
X120061Y9120D01*
X119963Y9105D01*
X119857Y9084D01*
X119738Y9063D01*
X119611Y9049D01*
X119470Y9035D01*
X119323Y9021D01*
X119161Y9007D01*
X118999Y9000D01*
X118703D01*
X118654Y9007D01*
X118534D01*
X118387Y9021D01*
X118218Y9035D01*
X118028Y9049D01*
X117831Y9077D01*
X117627Y9113D01*
X117416Y9155D01*
X117198Y9204D01*
X116994Y9260D01*
X116790Y9331D01*
X116600Y9415D01*
X116431Y9514D01*
X116276Y9619D01*
X116269Y9626D01*
X116241Y9647D01*
X116206Y9682D01*
X116156Y9732D01*
X116100Y9795D01*
X116037Y9865D01*
X115973Y9950D01*
X115903Y10048D01*
X115833Y10154D01*
X115769Y10273D01*
X115706Y10400D01*
X115650Y10541D01*
X115601Y10689D01*
X115565Y10843D01*
X115537Y11005D01*
X115530Y11181D01*
Y11188D01*
Y11202D01*
Y11216D01*
Y11244D01*
Y11315D01*
X115537Y11406D01*
X117669Y11146D01*
Y11139D01*
Y11132D01*
X117683Y11083D01*
X117697Y11019D01*
X117718Y10942D01*
X117753Y10857D01*
X117796Y10773D01*
X117845Y10696D01*
X117915Y10632D01*
X117929Y10625D01*
X117965Y10604D01*
X118028Y10569D01*
X118119Y10534D01*
X118232Y10492D01*
X118302Y10477D01*
X118380Y10464D01*
X118464Y10449D01*
X118548Y10435D01*
X118647Y10428D01*
X118823D01*
X118872Y10435D01*
X118935D01*
X119006Y10442D01*
X119083Y10449D01*
X119168Y10456D01*
X119344Y10485D01*
X119527Y10527D01*
X119695Y10576D01*
X119780Y10611D01*
X119850Y10653D01*
X119864Y10661D01*
X119892Y10682D01*
X119935Y10717D01*
X119991Y10766D01*
X120047Y10836D01*
X120111Y10914D01*
X120174Y11012D01*
X120223Y11125D01*
X120230Y11139D01*
X120237Y11174D01*
X120251Y11230D01*
X120258Y11273D01*
X120272Y11322D01*
X120279Y11371D01*
X120286Y11434D01*
X120293Y11505D01*
X120300Y11582D01*
X120308Y11667D01*
Y11765D01*
X120315Y11864D01*
Y11976D01*
X120322Y13010D01*
X120315Y12996D01*
X120286Y12961D01*
X120237Y12905D01*
X120167Y12835D01*
X120089Y12743D01*
X119984Y12645D01*
X119871Y12546D01*
X119738Y12441D01*
X119590Y12328D01*
X119435Y12229D01*
X119259Y12131D01*
X119069Y12047D01*
X118865Y11969D01*
X118654Y11913D01*
X118429Y11878D01*
X118197Y11864D01*
X118133D01*
X118063Y11871D01*
X117965Y11885D01*
X117845Y11899D01*
X117704Y11927D01*
X117549Y11962D01*
X117381Y12011D01*
X117205Y12075D01*
X117022Y12159D01*
X116839Y12250D01*
X116649Y12370D01*
X116459Y12504D01*
X116283Y12666D01*
X116107Y12849D01*
X115945Y13060D01*
X115938Y13074D01*
X115917Y13102D01*
X115889Y13158D01*
X115847Y13228D01*
X115798Y13320D01*
X115741Y13433D01*
X115685Y13566D01*
X115622Y13714D01*
X115558Y13876D01*
X115502Y14052D01*
X115446Y14249D01*
X115396Y14460D01*
X115361Y14678D01*
X115326Y14917D01*
X115305Y15163D01*
X115298Y15424D01*
Y15431D01*
Y15445D01*
Y15466D01*
Y15501D01*
Y15543D01*
X115305Y15593D01*
Y15649D01*
X115312Y15712D01*
X115326Y15867D01*
X115340Y16036D01*
X115368Y16226D01*
X115403Y16430D01*
X115453Y16641D01*
X115509Y16866D01*
X115572Y17091D01*
X115657Y17316D01*
X115755Y17534D01*
X115868Y17745D01*
X116002Y17950D01*
X116149Y18132D01*
X116156Y18147D01*
X116192Y18175D01*
X116234Y18217D01*
X116304Y18280D01*
X116389Y18351D01*
X116487Y18428D01*
X116600Y18519D01*
X116733Y18604D01*
X116881Y18695D01*
X117043Y18780D01*
X117219Y18857D01*
X117402Y18928D01*
X117606Y18991D01*
X117817Y19033D01*
X118042Y19068D01*
X118274Y19075D01*
X118330D01*
X118401Y19068D01*
D02*
G37*
G36*
X144433Y54828D02*
X145643D01*
Y53196D01*
X144433D01*
Y51240D01*
X142625D01*
Y53196D01*
X138643D01*
Y54821D01*
X142864Y61013D01*
X144433D01*
Y54828D01*
D02*
G37*
G36*
X134752Y61006D02*
X134850Y60999D01*
X134970Y60992D01*
X135111Y60971D01*
X135266Y60949D01*
X135434Y60914D01*
X135610Y60872D01*
X135800Y60823D01*
X135990Y60759D01*
X136173Y60682D01*
X136363Y60591D01*
X136546Y60492D01*
X136715Y60373D01*
X136877Y60232D01*
X136884Y60225D01*
X136912Y60197D01*
X136954Y60154D01*
X137003Y60091D01*
X137067Y60014D01*
X137137Y59929D01*
X137214Y59817D01*
X137292Y59697D01*
X137369Y59563D01*
X137447Y59423D01*
X137517Y59261D01*
X137580Y59092D01*
X137629Y58909D01*
X137672Y58712D01*
X137700Y58508D01*
X137707Y58297D01*
Y58290D01*
Y58269D01*
Y58234D01*
Y58184D01*
X137700Y58128D01*
X137693Y58058D01*
X137686Y57980D01*
X137679Y57896D01*
X137651Y57706D01*
X137608Y57495D01*
X137545Y57270D01*
X137468Y57045D01*
Y57038D01*
X137454Y57016D01*
X137440Y56988D01*
X137425Y56939D01*
X137397Y56890D01*
X137362Y56826D01*
X137327Y56749D01*
X137285Y56672D01*
X137235Y56580D01*
X137179Y56482D01*
X137053Y56271D01*
X136898Y56045D01*
X136722Y55806D01*
X136715Y55799D01*
X136708Y55785D01*
X136687Y55764D01*
X136659Y55729D01*
X136616Y55680D01*
X136567Y55623D01*
X136511Y55560D01*
X136440Y55490D01*
X136363Y55405D01*
X136272Y55314D01*
X136173Y55208D01*
X136060Y55096D01*
X135941Y54976D01*
X135807Y54849D01*
X135660Y54709D01*
X135498Y54561D01*
X135491Y54554D01*
X135463Y54526D01*
X135413Y54483D01*
X135357Y54427D01*
X135287Y54364D01*
X135202Y54293D01*
X135118Y54209D01*
X135026Y54125D01*
X134836Y53942D01*
X134646Y53766D01*
X134562Y53681D01*
X134492Y53611D01*
X134421Y53541D01*
X134372Y53484D01*
X134365Y53470D01*
X134337Y53442D01*
X134288Y53386D01*
X134238Y53323D01*
X134175Y53245D01*
X134112Y53154D01*
X134048Y53062D01*
X133992Y52971D01*
X137707D01*
Y51240D01*
X131164D01*
Y51254D01*
X131171Y51282D01*
X131178Y51339D01*
X131192Y51409D01*
X131206Y51493D01*
X131227Y51599D01*
X131248Y51711D01*
X131283Y51838D01*
X131318Y51979D01*
X131368Y52126D01*
X131417Y52274D01*
X131473Y52436D01*
X131544Y52598D01*
X131621Y52767D01*
X131705Y52929D01*
X131797Y53098D01*
X131804Y53105D01*
X131825Y53140D01*
X131860Y53189D01*
X131902Y53259D01*
X131966Y53344D01*
X132050Y53449D01*
X132149Y53576D01*
X132261Y53717D01*
X132395Y53878D01*
X132543Y54054D01*
X132718Y54244D01*
X132908Y54455D01*
X133127Y54681D01*
X133359Y54913D01*
X133619Y55166D01*
X133900Y55433D01*
X133908Y55440D01*
X133915Y55447D01*
X133957Y55483D01*
X134020Y55546D01*
X134105Y55623D01*
X134203Y55722D01*
X134316Y55827D01*
X134435Y55947D01*
X134569Y56074D01*
X134829Y56341D01*
X134963Y56468D01*
X135083Y56601D01*
X135202Y56721D01*
X135301Y56834D01*
X135385Y56939D01*
X135448Y57023D01*
X135456Y57031D01*
X135463Y57052D01*
X135484Y57080D01*
X135512Y57122D01*
X135540Y57178D01*
X135568Y57235D01*
X135603Y57305D01*
X135645Y57382D01*
X135716Y57558D01*
X135772Y57748D01*
X135821Y57959D01*
X135828Y58065D01*
X135835Y58170D01*
Y58177D01*
Y58198D01*
Y58227D01*
X135828Y58276D01*
Y58325D01*
X135821Y58381D01*
X135793Y58522D01*
X135751Y58677D01*
X135695Y58839D01*
X135610Y58986D01*
X135554Y59064D01*
X135498Y59127D01*
X135491Y59134D01*
X135484Y59141D01*
X135463Y59155D01*
X135434Y59183D01*
X135399Y59205D01*
X135357Y59233D01*
X135308Y59268D01*
X135259Y59296D01*
X135125Y59359D01*
X134963Y59416D01*
X134780Y59451D01*
X134675Y59458D01*
X134569Y59465D01*
X134513D01*
X134470Y59458D01*
X134421D01*
X134365Y59444D01*
X134231Y59423D01*
X134083Y59380D01*
X133922Y59317D01*
X133851Y59275D01*
X133774Y59233D01*
X133703Y59176D01*
X133633Y59113D01*
X133626Y59106D01*
X133619Y59099D01*
X133598Y59078D01*
X133577Y59043D01*
X133549Y59008D01*
X133521Y58958D01*
X133492Y58902D01*
X133457Y58839D01*
X133422Y58761D01*
X133387Y58677D01*
X133352Y58578D01*
X133324Y58473D01*
X133295Y58353D01*
X133267Y58227D01*
X133253Y58093D01*
X133239Y57945D01*
X131382Y58128D01*
Y58135D01*
Y58149D01*
X131389Y58170D01*
Y58198D01*
X131396Y58234D01*
X131403Y58276D01*
X131424Y58381D01*
X131445Y58508D01*
X131480Y58649D01*
X131522Y58811D01*
X131572Y58979D01*
X131635Y59162D01*
X131705Y59345D01*
X131790Y59528D01*
X131888Y59711D01*
X131994Y59887D01*
X132121Y60049D01*
X132261Y60204D01*
X132416Y60337D01*
X132423Y60344D01*
X132458Y60365D01*
X132507Y60401D01*
X132571Y60443D01*
X132662Y60492D01*
X132761Y60548D01*
X132887Y60612D01*
X133021Y60675D01*
X133169Y60738D01*
X133338Y60802D01*
X133521Y60858D01*
X133711Y60907D01*
X133922Y60949D01*
X134140Y60985D01*
X134372Y61006D01*
X134611Y61013D01*
X134675D01*
X134752Y61006D01*
D02*
G37*
G36*
X126330Y60971D02*
X126492D01*
X126668Y60964D01*
X126858Y60956D01*
X127252Y60942D01*
X127449Y60928D01*
X127639Y60914D01*
X127815Y60900D01*
X127976Y60879D01*
X128117Y60858D01*
X128173Y60844D01*
X128230Y60830D01*
X128237D01*
X128265Y60816D01*
X128314Y60802D01*
X128370Y60788D01*
X128441Y60759D01*
X128525Y60724D01*
X128617Y60682D01*
X128722Y60626D01*
X128828Y60570D01*
X128940Y60499D01*
X129053Y60422D01*
X129172Y60337D01*
X129292Y60239D01*
X129412Y60126D01*
X129524Y60007D01*
X129630Y59873D01*
X129637Y59866D01*
X129658Y59838D01*
X129686Y59795D01*
X129721Y59739D01*
X129763Y59669D01*
X129813Y59577D01*
X129862Y59479D01*
X129918Y59359D01*
X129967Y59233D01*
X130017Y59092D01*
X130066Y58937D01*
X130108Y58768D01*
X130150Y58585D01*
X130179Y58395D01*
X130193Y58191D01*
X130200Y57980D01*
Y57973D01*
Y57938D01*
Y57896D01*
X130193Y57832D01*
Y57755D01*
X130186Y57664D01*
X130172Y57565D01*
X130157Y57453D01*
X130143Y57340D01*
X130122Y57213D01*
X130059Y56960D01*
X129982Y56707D01*
X129925Y56587D01*
X129869Y56468D01*
X129862Y56461D01*
X129855Y56439D01*
X129834Y56411D01*
X129813Y56369D01*
X129778Y56320D01*
X129742Y56256D01*
X129644Y56123D01*
X129524Y55968D01*
X129384Y55806D01*
X129222Y55651D01*
X129046Y55511D01*
X129039Y55504D01*
X129025Y55497D01*
X128997Y55476D01*
X128961Y55454D01*
X128912Y55426D01*
X128863Y55391D01*
X128800Y55356D01*
X128729Y55321D01*
X128574Y55243D01*
X128406Y55166D01*
X128223Y55096D01*
X128026Y55046D01*
X128019D01*
X127991Y55039D01*
X127955Y55032D01*
X127892Y55025D01*
X127822Y55018D01*
X127730Y55004D01*
X127632Y54990D01*
X127505Y54983D01*
X127371Y54969D01*
X127224Y54955D01*
X127055Y54941D01*
X126872Y54934D01*
X126675Y54927D01*
X126464Y54920D01*
X126231Y54913D01*
X124712D01*
Y51240D01*
X122749D01*
Y60978D01*
X126182D01*
X126330Y60971D01*
D02*
G37*
G36*
X121489Y59331D02*
X118605D01*
Y51240D01*
X116642D01*
Y59331D01*
X113750D01*
Y60978D01*
X121489D01*
Y59331D01*
D02*
G37*
G36*
X143452Y142214D02*
X143543Y142207D01*
X143663Y142193D01*
X143796Y142172D01*
X143944Y142151D01*
X144106Y142109D01*
X144282Y142067D01*
X144458Y142010D01*
X144641Y141933D01*
X144824Y141849D01*
X145007Y141750D01*
X145190Y141631D01*
X145358Y141497D01*
X145520Y141342D01*
X145527Y141335D01*
X145548Y141307D01*
X145583Y141272D01*
X145626Y141215D01*
X145682Y141145D01*
X145738Y141068D01*
X145802Y140976D01*
X145865Y140871D01*
X145928Y140758D01*
X145992Y140632D01*
X146048Y140498D01*
X146104Y140357D01*
X146146Y140209D01*
X146182Y140055D01*
X146203Y139893D01*
X146210Y139724D01*
Y139710D01*
Y139668D01*
X146203Y139604D01*
X146189Y139513D01*
X146167Y139400D01*
X146132Y139281D01*
X146090Y139140D01*
X146034Y138985D01*
X145956Y138830D01*
X145865Y138661D01*
X145752Y138493D01*
X145619Y138317D01*
X145457Y138148D01*
X145365Y138063D01*
X145267Y137986D01*
X145161Y137902D01*
X145049Y137824D01*
X144929Y137747D01*
X144803Y137676D01*
X144810D01*
X144838Y137669D01*
X144880Y137655D01*
X144943Y137641D01*
X145014Y137620D01*
X145091Y137585D01*
X145183Y137550D01*
X145281Y137508D01*
X145386Y137458D01*
X145499Y137402D01*
X145612Y137339D01*
X145717Y137261D01*
X145830Y137184D01*
X145935Y137086D01*
X146041Y136987D01*
X146139Y136874D01*
X146146Y136867D01*
X146160Y136846D01*
X146189Y136811D01*
X146217Y136762D01*
X146252Y136706D01*
X146294Y136628D01*
X146343Y136544D01*
X146393Y136452D01*
X146435Y136347D01*
X146484Y136234D01*
X146526Y136108D01*
X146561Y135974D01*
X146590Y135833D01*
X146618Y135685D01*
X146632Y135531D01*
X146639Y135369D01*
Y135355D01*
Y135312D01*
X146632Y135242D01*
X146625Y135151D01*
X146611Y135045D01*
X146590Y134911D01*
X146561Y134771D01*
X146519Y134616D01*
X146470Y134447D01*
X146407Y134271D01*
X146329Y134088D01*
X146245Y133905D01*
X146132Y133715D01*
X146006Y133532D01*
X145865Y133357D01*
X145696Y133181D01*
X145682Y133174D01*
X145654Y133145D01*
X145598Y133096D01*
X145527Y133040D01*
X145436Y132970D01*
X145330Y132899D01*
X145197Y132815D01*
X145056Y132730D01*
X144894Y132646D01*
X144718Y132569D01*
X144528Y132491D01*
X144317Y132421D01*
X144099Y132364D01*
X143867Y132322D01*
X143621Y132287D01*
X143367Y132280D01*
X143311D01*
X143241Y132287D01*
X143149Y132294D01*
X143037Y132301D01*
X142903Y132322D01*
X142762Y132343D01*
X142600Y132379D01*
X142431Y132414D01*
X142256Y132463D01*
X142073Y132526D01*
X141890Y132604D01*
X141707Y132688D01*
X141524Y132787D01*
X141348Y132906D01*
X141179Y133040D01*
X141172Y133047D01*
X141144Y133075D01*
X141095Y133117D01*
X141038Y133181D01*
X140975Y133251D01*
X140898Y133342D01*
X140813Y133455D01*
X140729Y133575D01*
X140637Y133708D01*
X140553Y133856D01*
X140469Y134025D01*
X140384Y134201D01*
X140314Y134384D01*
X140257Y134588D01*
X140208Y134799D01*
X140173Y135024D01*
X141981Y135249D01*
Y135242D01*
X141988Y135221D01*
Y135186D01*
X142002Y135136D01*
X142009Y135073D01*
X142030Y135010D01*
X142044Y134932D01*
X142073Y134855D01*
X142129Y134686D01*
X142213Y134510D01*
X142312Y134334D01*
X142375Y134257D01*
X142438Y134187D01*
X142446Y134180D01*
X142460Y134173D01*
X142481Y134151D01*
X142509Y134130D01*
X142544Y134102D01*
X142586Y134074D01*
X142699Y134011D01*
X142832Y133940D01*
X142987Y133884D01*
X143163Y133842D01*
X143255Y133835D01*
X143353Y133828D01*
X143410D01*
X143452Y133835D01*
X143501Y133842D01*
X143557Y133849D01*
X143691Y133884D01*
X143846Y133933D01*
X143923Y133969D01*
X144008Y134011D01*
X144092Y134060D01*
X144169Y134123D01*
X144247Y134187D01*
X144324Y134264D01*
X144331Y134271D01*
X144338Y134285D01*
X144359Y134306D01*
X144387Y134341D01*
X144416Y134391D01*
X144451Y134440D01*
X144486Y134503D01*
X144528Y134574D01*
X144563Y134658D01*
X144599Y134742D01*
X144634Y134841D01*
X144662Y134947D01*
X144690Y135059D01*
X144711Y135179D01*
X144718Y135312D01*
X144725Y135446D01*
Y135453D01*
Y135474D01*
Y135517D01*
X144718Y135566D01*
X144711Y135622D01*
X144704Y135692D01*
X144697Y135770D01*
X144676Y135847D01*
X144634Y136030D01*
X144563Y136213D01*
X144521Y136305D01*
X144472Y136396D01*
X144416Y136487D01*
X144345Y136565D01*
X144338Y136572D01*
X144331Y136586D01*
X144310Y136600D01*
X144275Y136628D01*
X144240Y136663D01*
X144198Y136699D01*
X144085Y136776D01*
X143951Y136846D01*
X143796Y136917D01*
X143712Y136945D01*
X143621Y136959D01*
X143522Y136973D01*
X143424Y136980D01*
X143360D01*
X143325Y136973D01*
X143283D01*
X143184Y136966D01*
X143058Y136945D01*
X142910Y136924D01*
X142748Y136888D01*
X142572Y136839D01*
X142776Y138359D01*
X142903D01*
X142966Y138366D01*
X143037Y138373D01*
X143121Y138380D01*
X143205Y138394D01*
X143395Y138429D01*
X143585Y138486D01*
X143684Y138528D01*
X143775Y138570D01*
X143860Y138619D01*
X143937Y138683D01*
X143944Y138690D01*
X143951Y138697D01*
X143972Y138718D01*
X144001Y138746D01*
X144029Y138781D01*
X144064Y138823D01*
X144099Y138872D01*
X144141Y138929D01*
X144212Y139062D01*
X144275Y139224D01*
X144303Y139309D01*
X144324Y139407D01*
X144331Y139506D01*
X144338Y139611D01*
Y139618D01*
Y139632D01*
Y139661D01*
X144331Y139696D01*
Y139738D01*
X144324Y139780D01*
X144303Y139893D01*
X144268Y140019D01*
X144212Y140146D01*
X144141Y140273D01*
X144043Y140392D01*
X144029Y140406D01*
X143986Y140442D01*
X143923Y140484D01*
X143832Y140540D01*
X143719Y140596D01*
X143585Y140639D01*
X143438Y140674D01*
X143262Y140688D01*
X143212D01*
X143184Y140681D01*
X143142D01*
X143093Y140674D01*
X142980Y140646D01*
X142854Y140603D01*
X142713Y140547D01*
X142572Y140463D01*
X142502Y140406D01*
X142438Y140350D01*
X142431Y140343D01*
X142424Y140336D01*
X142410Y140315D01*
X142382Y140287D01*
X142361Y140252D01*
X142326Y140209D01*
X142298Y140160D01*
X142263Y140104D01*
X142227Y140041D01*
X142192Y139970D01*
X142157Y139893D01*
X142122Y139801D01*
X142094Y139710D01*
X142066Y139611D01*
X142044Y139499D01*
X142030Y139386D01*
X140314Y139675D01*
Y139682D01*
X140321Y139717D01*
X140335Y139759D01*
X140349Y139822D01*
X140363Y139900D01*
X140391Y139984D01*
X140412Y140083D01*
X140447Y140181D01*
X140525Y140406D01*
X140616Y140646D01*
X140722Y140878D01*
X140785Y140983D01*
X140848Y141089D01*
X140856Y141096D01*
X140863Y141110D01*
X140884Y141138D01*
X140919Y141173D01*
X140954Y141222D01*
X140996Y141272D01*
X141053Y141328D01*
X141116Y141391D01*
X141179Y141455D01*
X141257Y141525D01*
X141341Y141595D01*
X141432Y141659D01*
X141531Y141729D01*
X141629Y141799D01*
X141862Y141919D01*
X141869Y141926D01*
X141890Y141933D01*
X141925Y141947D01*
X141974Y141968D01*
X142037Y141989D01*
X142108Y142017D01*
X142192Y142046D01*
X142284Y142074D01*
X142389Y142102D01*
X142502Y142123D01*
X142621Y142151D01*
X142748Y142172D01*
X143022Y142207D01*
X143170Y142222D01*
X143381D01*
X143452Y142214D01*
D02*
G37*
G36*
X136022D02*
X136120Y142207D01*
X136240Y142200D01*
X136381Y142179D01*
X136536Y142158D01*
X136704Y142123D01*
X136880Y142081D01*
X137070Y142032D01*
X137260Y141968D01*
X137443Y141891D01*
X137633Y141799D01*
X137816Y141701D01*
X137985Y141581D01*
X138147Y141441D01*
X138154Y141434D01*
X138182Y141405D01*
X138224Y141363D01*
X138273Y141300D01*
X138337Y141222D01*
X138407Y141138D01*
X138484Y141025D01*
X138562Y140906D01*
X138639Y140772D01*
X138717Y140632D01*
X138787Y140470D01*
X138850Y140301D01*
X138899Y140118D01*
X138942Y139921D01*
X138970Y139717D01*
X138977Y139506D01*
Y139499D01*
Y139478D01*
Y139442D01*
Y139393D01*
X138970Y139337D01*
X138963Y139267D01*
X138956Y139189D01*
X138949Y139105D01*
X138921Y138915D01*
X138878Y138704D01*
X138815Y138478D01*
X138738Y138253D01*
Y138246D01*
X138724Y138225D01*
X138710Y138197D01*
X138695Y138148D01*
X138667Y138099D01*
X138632Y138035D01*
X138597Y137958D01*
X138555Y137880D01*
X138505Y137789D01*
X138449Y137690D01*
X138323Y137479D01*
X138168Y137254D01*
X137992Y137015D01*
X137985Y137008D01*
X137978Y136994D01*
X137957Y136973D01*
X137929Y136938D01*
X137886Y136888D01*
X137837Y136832D01*
X137781Y136769D01*
X137711Y136699D01*
X137633Y136614D01*
X137542Y136523D01*
X137443Y136417D01*
X137331Y136305D01*
X137211Y136185D01*
X137077Y136058D01*
X136930Y135918D01*
X136768Y135770D01*
X136761Y135763D01*
X136733Y135735D01*
X136683Y135692D01*
X136627Y135636D01*
X136557Y135573D01*
X136472Y135502D01*
X136388Y135418D01*
X136296Y135333D01*
X136106Y135151D01*
X135916Y134975D01*
X135832Y134890D01*
X135762Y134820D01*
X135691Y134750D01*
X135642Y134693D01*
X135635Y134679D01*
X135607Y134651D01*
X135557Y134595D01*
X135508Y134531D01*
X135445Y134454D01*
X135382Y134363D01*
X135318Y134271D01*
X135262Y134180D01*
X138977D01*
Y132449D01*
X132434D01*
Y132463D01*
X132441Y132491D01*
X132448Y132547D01*
X132462Y132618D01*
X132476Y132702D01*
X132497Y132808D01*
X132518Y132920D01*
X132553Y133047D01*
X132588Y133188D01*
X132638Y133335D01*
X132687Y133483D01*
X132743Y133645D01*
X132814Y133807D01*
X132891Y133976D01*
X132975Y134137D01*
X133067Y134306D01*
X133074Y134313D01*
X133095Y134348D01*
X133130Y134398D01*
X133172Y134468D01*
X133236Y134553D01*
X133320Y134658D01*
X133419Y134785D01*
X133531Y134925D01*
X133665Y135087D01*
X133813Y135263D01*
X133989Y135453D01*
X134178Y135664D01*
X134397Y135889D01*
X134629Y136122D01*
X134889Y136375D01*
X135170Y136642D01*
X135178Y136649D01*
X135185Y136656D01*
X135227Y136691D01*
X135290Y136755D01*
X135375Y136832D01*
X135473Y136931D01*
X135586Y137036D01*
X135705Y137156D01*
X135839Y137282D01*
X136099Y137550D01*
X136233Y137676D01*
X136353Y137810D01*
X136472Y137930D01*
X136571Y138042D01*
X136655Y138148D01*
X136718Y138232D01*
X136726Y138239D01*
X136733Y138260D01*
X136754Y138289D01*
X136782Y138331D01*
X136810Y138387D01*
X136838Y138443D01*
X136873Y138514D01*
X136915Y138591D01*
X136986Y138767D01*
X137042Y138957D01*
X137091Y139168D01*
X137098Y139274D01*
X137105Y139379D01*
Y139386D01*
Y139407D01*
Y139435D01*
X137098Y139485D01*
Y139534D01*
X137091Y139590D01*
X137063Y139731D01*
X137021Y139886D01*
X136965Y140048D01*
X136880Y140195D01*
X136824Y140273D01*
X136768Y140336D01*
X136761Y140343D01*
X136754Y140350D01*
X136733Y140364D01*
X136704Y140392D01*
X136669Y140413D01*
X136627Y140442D01*
X136578Y140477D01*
X136529Y140505D01*
X136395Y140568D01*
X136233Y140625D01*
X136050Y140660D01*
X135944Y140667D01*
X135839Y140674D01*
X135783D01*
X135740Y140667D01*
X135691D01*
X135635Y140653D01*
X135501Y140632D01*
X135353Y140589D01*
X135192Y140526D01*
X135121Y140484D01*
X135044Y140442D01*
X134973Y140385D01*
X134903Y140322D01*
X134896Y140315D01*
X134889Y140308D01*
X134868Y140287D01*
X134847Y140252D01*
X134819Y140216D01*
X134791Y140167D01*
X134762Y140111D01*
X134727Y140048D01*
X134692Y139970D01*
X134657Y139886D01*
X134622Y139787D01*
X134594Y139682D01*
X134565Y139562D01*
X134537Y139435D01*
X134523Y139302D01*
X134509Y139154D01*
X132652Y139337D01*
Y139344D01*
Y139358D01*
X132659Y139379D01*
Y139407D01*
X132666Y139442D01*
X132673Y139485D01*
X132694Y139590D01*
X132715Y139717D01*
X132750Y139858D01*
X132792Y140019D01*
X132842Y140188D01*
X132905Y140371D01*
X132975Y140554D01*
X133060Y140737D01*
X133158Y140920D01*
X133264Y141096D01*
X133391Y141258D01*
X133531Y141412D01*
X133686Y141546D01*
X133693Y141553D01*
X133728Y141574D01*
X133778Y141609D01*
X133841Y141652D01*
X133932Y141701D01*
X134031Y141757D01*
X134157Y141820D01*
X134291Y141884D01*
X134439Y141947D01*
X134608Y142010D01*
X134791Y142067D01*
X134981Y142116D01*
X135192Y142158D01*
X135410Y142193D01*
X135642Y142214D01*
X135881Y142222D01*
X135944D01*
X136022Y142214D01*
D02*
G37*
G36*
X127600Y142179D02*
X127762D01*
X127938Y142172D01*
X128128Y142165D01*
X128522Y142151D01*
X128719Y142137D01*
X128909Y142123D01*
X129085Y142109D01*
X129246Y142088D01*
X129387Y142067D01*
X129443Y142053D01*
X129500Y142039D01*
X129507D01*
X129535Y142025D01*
X129584Y142010D01*
X129640Y141996D01*
X129711Y141968D01*
X129795Y141933D01*
X129887Y141891D01*
X129992Y141835D01*
X130098Y141778D01*
X130210Y141708D01*
X130323Y141631D01*
X130442Y141546D01*
X130562Y141448D01*
X130682Y141335D01*
X130794Y141215D01*
X130900Y141082D01*
X130907Y141075D01*
X130928Y141047D01*
X130956Y141004D01*
X130991Y140948D01*
X131033Y140878D01*
X131083Y140786D01*
X131132Y140688D01*
X131188Y140568D01*
X131237Y140442D01*
X131287Y140301D01*
X131336Y140146D01*
X131378Y139977D01*
X131420Y139794D01*
X131449Y139604D01*
X131463Y139400D01*
X131470Y139189D01*
Y139182D01*
Y139147D01*
Y139105D01*
X131463Y139041D01*
Y138964D01*
X131456Y138872D01*
X131442Y138774D01*
X131427Y138661D01*
X131413Y138549D01*
X131392Y138422D01*
X131329Y138169D01*
X131252Y137916D01*
X131195Y137796D01*
X131139Y137676D01*
X131132Y137669D01*
X131125Y137648D01*
X131104Y137620D01*
X131083Y137578D01*
X131048Y137529D01*
X131012Y137465D01*
X130914Y137332D01*
X130794Y137177D01*
X130654Y137015D01*
X130492Y136860D01*
X130316Y136720D01*
X130309Y136713D01*
X130295Y136706D01*
X130267Y136684D01*
X130231Y136663D01*
X130182Y136635D01*
X130133Y136600D01*
X130070Y136565D01*
X129999Y136530D01*
X129844Y136452D01*
X129676Y136375D01*
X129493Y136305D01*
X129296Y136255D01*
X129289D01*
X129261Y136248D01*
X129225Y136241D01*
X129162Y136234D01*
X129092Y136227D01*
X129000Y136213D01*
X128902Y136199D01*
X128775Y136192D01*
X128641Y136178D01*
X128494Y136164D01*
X128325Y136150D01*
X128142Y136143D01*
X127945Y136136D01*
X127734Y136129D01*
X127501Y136122D01*
X125982D01*
Y132449D01*
X124019D01*
Y142186D01*
X127452D01*
X127600Y142179D01*
D02*
G37*
G36*
X122759Y140540D02*
X119875D01*
Y132449D01*
X117912D01*
Y140540D01*
X115020D01*
Y142186D01*
X122759D01*
Y140540D01*
D02*
G37*
G36*
X236770Y259088D02*
X237980D01*
Y257456D01*
X236770D01*
Y255500D01*
X234961D01*
Y257456D01*
X230979D01*
Y259081D01*
X235201Y265273D01*
X236770D01*
Y259088D01*
D02*
G37*
G36*
X227088Y265266D02*
X227187Y265259D01*
X227306Y265252D01*
X227447Y265231D01*
X227602Y265209D01*
X227771Y265174D01*
X227947Y265132D01*
X228137Y265083D01*
X228326Y265019D01*
X228510Y264942D01*
X228699Y264851D01*
X228882Y264752D01*
X229051Y264632D01*
X229213Y264492D01*
X229220Y264485D01*
X229248Y264457D01*
X229290Y264414D01*
X229340Y264351D01*
X229403Y264274D01*
X229473Y264189D01*
X229551Y264077D01*
X229628Y263957D01*
X229706Y263823D01*
X229783Y263683D01*
X229853Y263521D01*
X229917Y263352D01*
X229966Y263169D01*
X230008Y262972D01*
X230036Y262768D01*
X230043Y262557D01*
Y262550D01*
Y262529D01*
Y262494D01*
Y262444D01*
X230036Y262388D01*
X230029Y262318D01*
X230022Y262240D01*
X230015Y262156D01*
X229987Y261966D01*
X229945Y261755D01*
X229881Y261530D01*
X229804Y261304D01*
Y261297D01*
X229790Y261276D01*
X229776Y261248D01*
X229762Y261199D01*
X229734Y261150D01*
X229699Y261086D01*
X229663Y261009D01*
X229621Y260932D01*
X229572Y260840D01*
X229516Y260742D01*
X229389Y260531D01*
X229234Y260305D01*
X229058Y260066D01*
X229051Y260059D01*
X229044Y260045D01*
X229023Y260024D01*
X228995Y259989D01*
X228953Y259940D01*
X228904Y259883D01*
X228847Y259820D01*
X228777Y259750D01*
X228699Y259665D01*
X228608Y259574D01*
X228510Y259468D01*
X228397Y259356D01*
X228277Y259236D01*
X228144Y259109D01*
X227996Y258969D01*
X227834Y258821D01*
X227827Y258814D01*
X227799Y258786D01*
X227750Y258743D01*
X227693Y258687D01*
X227623Y258624D01*
X227539Y258554D01*
X227454Y258469D01*
X227363Y258385D01*
X227173Y258202D01*
X226983Y258026D01*
X226898Y257941D01*
X226828Y257871D01*
X226758Y257801D01*
X226708Y257744D01*
X226701Y257730D01*
X226673Y257702D01*
X226624Y257646D01*
X226575Y257583D01*
X226511Y257505D01*
X226448Y257414D01*
X226385Y257322D01*
X226328Y257231D01*
X230043D01*
Y255500D01*
X223500D01*
Y255514D01*
X223507Y255542D01*
X223514Y255599D01*
X223528Y255669D01*
X223542Y255753D01*
X223563Y255859D01*
X223584Y255971D01*
X223620Y256098D01*
X223655Y256239D01*
X223704Y256387D01*
X223753Y256534D01*
X223810Y256696D01*
X223880Y256858D01*
X223957Y257027D01*
X224042Y257189D01*
X224133Y257357D01*
X224140Y257365D01*
X224161Y257400D01*
X224196Y257449D01*
X224239Y257519D01*
X224302Y257604D01*
X224387Y257709D01*
X224485Y257836D01*
X224598Y257977D01*
X224731Y258138D01*
X224879Y258314D01*
X225055Y258504D01*
X225245Y258715D01*
X225463Y258941D01*
X225695Y259173D01*
X225956Y259426D01*
X226237Y259693D01*
X226244Y259700D01*
X226251Y259707D01*
X226293Y259743D01*
X226357Y259806D01*
X226441Y259883D01*
X226539Y259982D01*
X226652Y260087D01*
X226772Y260207D01*
X226905Y260334D01*
X227166Y260601D01*
X227299Y260728D01*
X227419Y260861D01*
X227539Y260981D01*
X227637Y261094D01*
X227722Y261199D01*
X227785Y261283D01*
X227792Y261290D01*
X227799Y261312D01*
X227820Y261340D01*
X227848Y261382D01*
X227876Y261438D01*
X227904Y261495D01*
X227940Y261565D01*
X227982Y261642D01*
X228052Y261818D01*
X228108Y262008D01*
X228158Y262219D01*
X228165Y262325D01*
X228172Y262430D01*
Y262437D01*
Y262458D01*
Y262486D01*
X228165Y262536D01*
Y262585D01*
X228158Y262641D01*
X228130Y262782D01*
X228087Y262937D01*
X228031Y263099D01*
X227947Y263246D01*
X227890Y263324D01*
X227834Y263387D01*
X227827Y263394D01*
X227820Y263401D01*
X227799Y263415D01*
X227771Y263443D01*
X227736Y263465D01*
X227693Y263493D01*
X227644Y263528D01*
X227595Y263556D01*
X227461Y263619D01*
X227299Y263676D01*
X227116Y263711D01*
X227011Y263718D01*
X226905Y263725D01*
X226849D01*
X226807Y263718D01*
X226758D01*
X226701Y263704D01*
X226568Y263683D01*
X226420Y263640D01*
X226258Y263577D01*
X226188Y263535D01*
X226110Y263493D01*
X226040Y263436D01*
X225970Y263373D01*
X225963Y263366D01*
X225956Y263359D01*
X225934Y263338D01*
X225913Y263303D01*
X225885Y263267D01*
X225857Y263218D01*
X225829Y263162D01*
X225794Y263099D01*
X225758Y263021D01*
X225723Y262937D01*
X225688Y262838D01*
X225660Y262733D01*
X225632Y262613D01*
X225604Y262486D01*
X225590Y262353D01*
X225576Y262205D01*
X223718Y262388D01*
Y262395D01*
Y262409D01*
X223725Y262430D01*
Y262458D01*
X223732Y262494D01*
X223739Y262536D01*
X223760Y262641D01*
X223781Y262768D01*
X223817Y262909D01*
X223859Y263071D01*
X223908Y263239D01*
X223971Y263422D01*
X224042Y263605D01*
X224126Y263788D01*
X224225Y263971D01*
X224330Y264147D01*
X224457Y264309D01*
X224598Y264464D01*
X224752Y264597D01*
X224759Y264604D01*
X224795Y264625D01*
X224844Y264661D01*
X224907Y264703D01*
X224999Y264752D01*
X225097Y264808D01*
X225224Y264872D01*
X225357Y264935D01*
X225505Y264998D01*
X225674Y265062D01*
X225857Y265118D01*
X226047Y265167D01*
X226258Y265209D01*
X226476Y265245D01*
X226708Y265266D01*
X226947Y265273D01*
X227011D01*
X227088Y265266D01*
D02*
G37*
G36*
X393928Y254510D02*
X392063D01*
Y261539D01*
X392049Y261525D01*
X392014Y261497D01*
X391958Y261448D01*
X391880Y261384D01*
X391782Y261307D01*
X391662Y261215D01*
X391529Y261110D01*
X391374Y261004D01*
X391205Y260892D01*
X391022Y260772D01*
X390825Y260653D01*
X390614Y260540D01*
X390389Y260427D01*
X390149Y260315D01*
X389903Y260216D01*
X389650Y260125D01*
Y261821D01*
X389657D01*
X389685Y261835D01*
X389720Y261849D01*
X389777Y261870D01*
X389847Y261898D01*
X389924Y261926D01*
X390016Y261968D01*
X390121Y262017D01*
X390234Y262081D01*
X390354Y262144D01*
X390487Y262215D01*
X390621Y262299D01*
X390769Y262390D01*
X390916Y262489D01*
X391071Y262602D01*
X391233Y262721D01*
X391240Y262728D01*
X391268Y262749D01*
X391317Y262791D01*
X391374Y262841D01*
X391444Y262904D01*
X391521Y262981D01*
X391606Y263066D01*
X391704Y263164D01*
X391796Y263277D01*
X391894Y263396D01*
X391993Y263523D01*
X392091Y263664D01*
X392183Y263805D01*
X392267Y263959D01*
X392345Y264121D01*
X392408Y264283D01*
X393928D01*
Y254510D01*
D02*
G37*
G36*
X525580Y131010D02*
X523716D01*
Y138039D01*
X523702Y138025D01*
X523666Y137997D01*
X523610Y137947D01*
X523533Y137884D01*
X523434Y137807D01*
X523315Y137715D01*
X523181Y137610D01*
X523026Y137504D01*
X522857Y137392D01*
X522674Y137272D01*
X522477Y137152D01*
X522266Y137040D01*
X522041Y136927D01*
X521802Y136814D01*
X521556Y136716D01*
X521302Y136625D01*
Y138320D01*
X521309D01*
X521338Y138334D01*
X521373Y138348D01*
X521429Y138369D01*
X521499Y138398D01*
X521577Y138426D01*
X521668Y138468D01*
X521774Y138517D01*
X521886Y138581D01*
X522006Y138644D01*
X522140Y138714D01*
X522273Y138799D01*
X522421Y138890D01*
X522569Y138989D01*
X522724Y139101D01*
X522885Y139221D01*
X522892Y139228D01*
X522921Y139249D01*
X522970Y139291D01*
X523026Y139340D01*
X523097Y139404D01*
X523174Y139481D01*
X523258Y139565D01*
X523357Y139664D01*
X523448Y139777D01*
X523547Y139896D01*
X523645Y140023D01*
X523744Y140164D01*
X523835Y140304D01*
X523920Y140459D01*
X523997Y140621D01*
X524060Y140783D01*
X525580D01*
Y131010D01*
D02*
G37*
G36*
X515730Y140740D02*
X515892D01*
X516068Y140733D01*
X516258Y140726D01*
X516652Y140712D01*
X516849Y140698D01*
X517039Y140684D01*
X517215Y140670D01*
X517376Y140649D01*
X517517Y140628D01*
X517573Y140614D01*
X517630Y140600D01*
X517637D01*
X517665Y140586D01*
X517714Y140572D01*
X517770Y140558D01*
X517841Y140529D01*
X517925Y140494D01*
X518017Y140452D01*
X518122Y140396D01*
X518228Y140339D01*
X518340Y140269D01*
X518453Y140192D01*
X518573Y140107D01*
X518692Y140009D01*
X518812Y139896D01*
X518924Y139777D01*
X519030Y139643D01*
X519037Y139636D01*
X519058Y139608D01*
X519086Y139565D01*
X519121Y139509D01*
X519164Y139439D01*
X519213Y139347D01*
X519262Y139249D01*
X519318Y139129D01*
X519367Y139003D01*
X519417Y138862D01*
X519466Y138707D01*
X519508Y138538D01*
X519550Y138355D01*
X519579Y138165D01*
X519593Y137961D01*
X519600Y137750D01*
Y137743D01*
Y137708D01*
Y137666D01*
X519593Y137603D01*
Y137525D01*
X519586Y137434D01*
X519572Y137335D01*
X519557Y137223D01*
X519543Y137110D01*
X519522Y136983D01*
X519459Y136730D01*
X519382Y136477D01*
X519325Y136357D01*
X519269Y136238D01*
X519262Y136231D01*
X519255Y136209D01*
X519234Y136181D01*
X519213Y136139D01*
X519178Y136090D01*
X519142Y136026D01*
X519044Y135893D01*
X518924Y135738D01*
X518783Y135576D01*
X518622Y135421D01*
X518446Y135281D01*
X518439Y135274D01*
X518425Y135267D01*
X518397Y135246D01*
X518361Y135224D01*
X518312Y135196D01*
X518263Y135161D01*
X518200Y135126D01*
X518129Y135091D01*
X517974Y135013D01*
X517806Y134936D01*
X517623Y134866D01*
X517426Y134816D01*
X517419D01*
X517391Y134809D01*
X517355Y134802D01*
X517292Y134795D01*
X517222Y134788D01*
X517130Y134774D01*
X517032Y134760D01*
X516905Y134753D01*
X516771Y134739D01*
X516624Y134725D01*
X516455Y134711D01*
X516272Y134704D01*
X516075Y134697D01*
X515864Y134690D01*
X515631Y134683D01*
X514112D01*
Y131010D01*
X512149D01*
Y140747D01*
X515582D01*
X515730Y140740D01*
D02*
G37*
G36*
X510889Y139101D02*
X508005D01*
Y131010D01*
X506042D01*
Y139101D01*
X503150D01*
Y140747D01*
X510889D01*
Y139101D01*
D02*
G37*
G36*
X522882Y59736D02*
X522980Y59729D01*
X523100Y59722D01*
X523241Y59700D01*
X523396Y59679D01*
X523564Y59644D01*
X523740Y59602D01*
X523930Y59553D01*
X524120Y59489D01*
X524303Y59412D01*
X524493Y59321D01*
X524676Y59222D01*
X524845Y59103D01*
X525007Y58962D01*
X525014Y58955D01*
X525042Y58927D01*
X525084Y58884D01*
X525133Y58821D01*
X525197Y58744D01*
X525267Y58659D01*
X525344Y58547D01*
X525422Y58427D01*
X525499Y58293D01*
X525577Y58153D01*
X525647Y57991D01*
X525710Y57822D01*
X525760Y57639D01*
X525802Y57442D01*
X525830Y57238D01*
X525837Y57027D01*
Y57020D01*
Y56999D01*
Y56964D01*
Y56914D01*
X525830Y56858D01*
X525823Y56788D01*
X525816Y56710D01*
X525809Y56626D01*
X525781Y56436D01*
X525738Y56225D01*
X525675Y56000D01*
X525598Y55774D01*
Y55767D01*
X525584Y55746D01*
X525569Y55718D01*
X525555Y55669D01*
X525527Y55620D01*
X525492Y55556D01*
X525457Y55479D01*
X525415Y55402D01*
X525365Y55310D01*
X525309Y55212D01*
X525183Y55001D01*
X525028Y54776D01*
X524852Y54536D01*
X524845Y54529D01*
X524838Y54515D01*
X524817Y54494D01*
X524789Y54459D01*
X524746Y54410D01*
X524697Y54353D01*
X524641Y54290D01*
X524571Y54220D01*
X524493Y54135D01*
X524402Y54044D01*
X524303Y53938D01*
X524190Y53826D01*
X524071Y53706D01*
X523937Y53579D01*
X523789Y53439D01*
X523628Y53291D01*
X523621Y53284D01*
X523592Y53256D01*
X523543Y53214D01*
X523487Y53157D01*
X523417Y53094D01*
X523332Y53024D01*
X523248Y52939D01*
X523156Y52855D01*
X522966Y52672D01*
X522776Y52496D01*
X522692Y52411D01*
X522621Y52341D01*
X522551Y52271D01*
X522502Y52214D01*
X522495Y52200D01*
X522467Y52172D01*
X522417Y52116D01*
X522368Y52053D01*
X522305Y51975D01*
X522242Y51884D01*
X522178Y51792D01*
X522122Y51701D01*
X525837D01*
Y49970D01*
X519294D01*
Y49984D01*
X519301Y50012D01*
X519308Y50068D01*
X519322Y50139D01*
X519336Y50223D01*
X519357Y50329D01*
X519378Y50441D01*
X519413Y50568D01*
X519448Y50709D01*
X519498Y50856D01*
X519547Y51004D01*
X519603Y51166D01*
X519674Y51328D01*
X519751Y51497D01*
X519835Y51659D01*
X519927Y51828D01*
X519934Y51835D01*
X519955Y51870D01*
X519990Y51919D01*
X520032Y51989D01*
X520096Y52074D01*
X520180Y52179D01*
X520279Y52306D01*
X520391Y52447D01*
X520525Y52608D01*
X520673Y52784D01*
X520849Y52974D01*
X521039Y53185D01*
X521257Y53411D01*
X521489Y53643D01*
X521749Y53896D01*
X522030Y54163D01*
X522038Y54170D01*
X522045Y54177D01*
X522087Y54213D01*
X522150Y54276D01*
X522235Y54353D01*
X522333Y54452D01*
X522446Y54557D01*
X522565Y54677D01*
X522699Y54804D01*
X522959Y55071D01*
X523093Y55198D01*
X523213Y55331D01*
X523332Y55451D01*
X523431Y55564D01*
X523515Y55669D01*
X523578Y55753D01*
X523585Y55760D01*
X523592Y55782D01*
X523614Y55810D01*
X523642Y55852D01*
X523670Y55908D01*
X523698Y55964D01*
X523733Y56035D01*
X523775Y56112D01*
X523846Y56288D01*
X523902Y56478D01*
X523951Y56689D01*
X523958Y56795D01*
X523965Y56900D01*
Y56907D01*
Y56928D01*
Y56957D01*
X523958Y57006D01*
Y57055D01*
X523951Y57111D01*
X523923Y57252D01*
X523881Y57407D01*
X523825Y57569D01*
X523740Y57716D01*
X523684Y57794D01*
X523628Y57857D01*
X523621Y57864D01*
X523614Y57871D01*
X523592Y57885D01*
X523564Y57913D01*
X523529Y57934D01*
X523487Y57963D01*
X523438Y57998D01*
X523388Y58026D01*
X523255Y58089D01*
X523093Y58146D01*
X522910Y58181D01*
X522804Y58188D01*
X522699Y58195D01*
X522643D01*
X522600Y58188D01*
X522551D01*
X522495Y58174D01*
X522361Y58153D01*
X522214Y58110D01*
X522052Y58047D01*
X521981Y58005D01*
X521904Y57963D01*
X521833Y57906D01*
X521763Y57843D01*
X521756Y57836D01*
X521749Y57829D01*
X521728Y57808D01*
X521707Y57773D01*
X521679Y57737D01*
X521651Y57688D01*
X521623Y57632D01*
X521587Y57569D01*
X521552Y57491D01*
X521517Y57407D01*
X521482Y57308D01*
X521454Y57203D01*
X521425Y57083D01*
X521397Y56957D01*
X521383Y56823D01*
X521369Y56675D01*
X519512Y56858D01*
Y56865D01*
Y56879D01*
X519519Y56900D01*
Y56928D01*
X519526Y56964D01*
X519533Y57006D01*
X519554Y57111D01*
X519575Y57238D01*
X519610Y57379D01*
X519652Y57540D01*
X519702Y57709D01*
X519765Y57892D01*
X519835Y58075D01*
X519920Y58258D01*
X520018Y58441D01*
X520124Y58617D01*
X520251Y58779D01*
X520391Y58934D01*
X520546Y59067D01*
X520553Y59074D01*
X520588Y59095D01*
X520637Y59131D01*
X520701Y59173D01*
X520792Y59222D01*
X520891Y59278D01*
X521017Y59342D01*
X521151Y59405D01*
X521299Y59468D01*
X521468Y59532D01*
X521651Y59588D01*
X521841Y59637D01*
X522052Y59679D01*
X522270Y59715D01*
X522502Y59736D01*
X522741Y59743D01*
X522804D01*
X522882Y59736D01*
D02*
G37*
G36*
X514460Y59700D02*
X514622D01*
X514798Y59693D01*
X514988Y59686D01*
X515382Y59672D01*
X515579Y59658D01*
X515769Y59644D01*
X515945Y59630D01*
X516106Y59609D01*
X516247Y59588D01*
X516303Y59574D01*
X516360Y59560D01*
X516367D01*
X516395Y59546D01*
X516444Y59532D01*
X516500Y59518D01*
X516571Y59489D01*
X516655Y59454D01*
X516747Y59412D01*
X516852Y59356D01*
X516958Y59300D01*
X517070Y59229D01*
X517183Y59152D01*
X517303Y59067D01*
X517422Y58969D01*
X517542Y58856D01*
X517654Y58737D01*
X517760Y58603D01*
X517767Y58596D01*
X517788Y58568D01*
X517816Y58526D01*
X517851Y58469D01*
X517893Y58399D01*
X517943Y58307D01*
X517992Y58209D01*
X518048Y58089D01*
X518097Y57963D01*
X518147Y57822D01*
X518196Y57667D01*
X518238Y57498D01*
X518280Y57315D01*
X518309Y57125D01*
X518323Y56921D01*
X518330Y56710D01*
Y56703D01*
Y56668D01*
Y56626D01*
X518323Y56562D01*
Y56485D01*
X518316Y56394D01*
X518302Y56295D01*
X518288Y56183D01*
X518273Y56070D01*
X518252Y55943D01*
X518189Y55690D01*
X518112Y55437D01*
X518055Y55317D01*
X517999Y55198D01*
X517992Y55191D01*
X517985Y55170D01*
X517964Y55141D01*
X517943Y55099D01*
X517907Y55050D01*
X517872Y54987D01*
X517774Y54853D01*
X517654Y54698D01*
X517514Y54536D01*
X517352Y54381D01*
X517176Y54241D01*
X517169Y54234D01*
X517155Y54227D01*
X517127Y54206D01*
X517091Y54184D01*
X517042Y54156D01*
X516993Y54121D01*
X516930Y54086D01*
X516859Y54051D01*
X516704Y53973D01*
X516536Y53896D01*
X516353Y53826D01*
X516156Y53776D01*
X516149D01*
X516120Y53769D01*
X516085Y53762D01*
X516022Y53755D01*
X515952Y53748D01*
X515860Y53734D01*
X515762Y53720D01*
X515635Y53713D01*
X515501Y53699D01*
X515354Y53685D01*
X515185Y53671D01*
X515002Y53664D01*
X514805Y53657D01*
X514594Y53650D01*
X514361Y53643D01*
X512842D01*
Y49970D01*
X510879D01*
Y59708D01*
X514312D01*
X514460Y59700D01*
D02*
G37*
G36*
X509619Y58061D02*
X506735D01*
Y49970D01*
X504772D01*
Y58061D01*
X501880D01*
Y59708D01*
X509619D01*
Y58061D01*
D02*
G37*
%LPC*%
G36*
X142949Y17647D02*
X142885D01*
X142836Y17640D01*
X142780Y17633D01*
X142717Y17619D01*
X142639Y17605D01*
X142562Y17584D01*
X142477Y17556D01*
X142386Y17513D01*
X142294Y17471D01*
X142203Y17422D01*
X142104Y17358D01*
X142013Y17288D01*
X141922Y17204D01*
X141837Y17112D01*
X141830Y17105D01*
X141816Y17091D01*
X141795Y17056D01*
X141767Y17014D01*
X141732Y16957D01*
X141696Y16887D01*
X141654Y16810D01*
X141619Y16718D01*
X141577Y16613D01*
X141535Y16493D01*
X141499Y16366D01*
X141464Y16226D01*
X141436Y16071D01*
X141415Y15902D01*
X141401Y15726D01*
X141394Y15536D01*
Y15522D01*
Y15487D01*
Y15431D01*
X141401Y15353D01*
Y15262D01*
X141408Y15156D01*
X141422Y15037D01*
X141436Y14910D01*
X141471Y14643D01*
X141528Y14375D01*
X141563Y14242D01*
X141605Y14122D01*
X141647Y14009D01*
X141703Y13904D01*
X141710Y13897D01*
X141725Y13876D01*
X141753Y13841D01*
X141788Y13791D01*
X141830Y13735D01*
X141886Y13672D01*
X141957Y13608D01*
X142027Y13545D01*
X142111Y13475D01*
X142210Y13412D01*
X142316Y13348D01*
X142428Y13292D01*
X142548Y13250D01*
X142674Y13207D01*
X142815Y13186D01*
X142963Y13179D01*
X142991D01*
X143026Y13186D01*
X143068D01*
X143125Y13193D01*
X143188Y13207D01*
X143258Y13221D01*
X143343Y13250D01*
X143420Y13278D01*
X143511Y13313D01*
X143603Y13355D01*
X143694Y13412D01*
X143786Y13468D01*
X143877Y13545D01*
X143969Y13622D01*
X144053Y13721D01*
X144060Y13728D01*
X144074Y13749D01*
X144095Y13777D01*
X144124Y13827D01*
X144159Y13883D01*
X144201Y13953D01*
X144236Y14038D01*
X144285Y14129D01*
X144328Y14242D01*
X144363Y14361D01*
X144405Y14495D01*
X144440Y14643D01*
X144468Y14805D01*
X144489Y14980D01*
X144504Y15163D01*
X144511Y15360D01*
Y15367D01*
Y15374D01*
Y15417D01*
Y15473D01*
X144504Y15557D01*
X144497Y15656D01*
X144489Y15776D01*
X144475Y15902D01*
X144454Y16036D01*
X144405Y16324D01*
X144370Y16472D01*
X144321Y16613D01*
X144271Y16753D01*
X144215Y16887D01*
X144145Y17007D01*
X144067Y17112D01*
X144060Y17119D01*
X144046Y17133D01*
X144025Y17162D01*
X143990Y17197D01*
X143948Y17239D01*
X143891Y17281D01*
X143835Y17330D01*
X143765Y17380D01*
X143687Y17429D01*
X143603Y17478D01*
X143511Y17520D01*
X143413Y17563D01*
X143308Y17598D01*
X143195Y17626D01*
X143075Y17640D01*
X142949Y17647D01*
D02*
G37*
G36*
X90061Y19955D02*
X88963D01*
Y13510D01*
X90638D01*
X90715Y13517D01*
X90799D01*
X90891Y13524D01*
X91088Y13531D01*
X91285Y13552D01*
X91468Y13573D01*
X91552Y13587D01*
X91622Y13601D01*
X91630D01*
X91644Y13608D01*
X91672Y13615D01*
X91700Y13622D01*
X91742Y13637D01*
X91791Y13658D01*
X91904Y13700D01*
X92031Y13749D01*
X92157Y13820D01*
X92291Y13904D01*
X92418Y14002D01*
X92425Y14009D01*
X92432Y14016D01*
X92446Y14031D01*
X92474Y14059D01*
X92495Y14087D01*
X92530Y14129D01*
X92565Y14171D01*
X92600Y14228D01*
X92643Y14291D01*
X92685Y14361D01*
X92727Y14439D01*
X92769Y14523D01*
X92812Y14615D01*
X92854Y14720D01*
X92896Y14826D01*
X92931Y14945D01*
Y14952D01*
X92938Y14973D01*
X92952Y15016D01*
X92966Y15065D01*
X92980Y15128D01*
X92994Y15213D01*
X93016Y15304D01*
X93037Y15417D01*
X93051Y15536D01*
X93072Y15670D01*
X93086Y15811D01*
X93107Y15972D01*
X93114Y16141D01*
X93128Y16324D01*
X93135Y16521D01*
Y16725D01*
Y16739D01*
Y16775D01*
Y16831D01*
Y16908D01*
X93128Y17007D01*
Y17112D01*
X93121Y17232D01*
X93107Y17366D01*
X93100Y17499D01*
X93086Y17640D01*
X93051Y17928D01*
X93023Y18069D01*
X93001Y18210D01*
X92966Y18336D01*
X92931Y18456D01*
Y18463D01*
X92924Y18484D01*
X92910Y18512D01*
X92896Y18555D01*
X92875Y18604D01*
X92847Y18667D01*
X92790Y18801D01*
X92706Y18956D01*
X92615Y19110D01*
X92502Y19258D01*
X92375Y19399D01*
X92368Y19406D01*
X92361Y19413D01*
X92340Y19434D01*
X92312Y19455D01*
X92277Y19483D01*
X92235Y19511D01*
X92129Y19582D01*
X91995Y19659D01*
X91841Y19737D01*
X91658Y19800D01*
X91461Y19856D01*
X91454D01*
X91440Y19863D01*
X91412D01*
X91376Y19870D01*
X91327Y19877D01*
X91264Y19884D01*
X91193Y19899D01*
X91102Y19906D01*
X91003Y19913D01*
X90884Y19927D01*
X90750Y19934D01*
X90602Y19941D01*
X90441Y19948D01*
X90258D01*
X90061Y19955D01*
D02*
G37*
G36*
X155318Y17647D02*
X155254D01*
X155205Y17640D01*
X155149Y17633D01*
X155078Y17619D01*
X155008Y17605D01*
X154924Y17584D01*
X154839Y17556D01*
X154748Y17520D01*
X154656Y17478D01*
X154558Y17422D01*
X154466Y17366D01*
X154375Y17295D01*
X154283Y17211D01*
X154199Y17119D01*
X154192Y17112D01*
X154178Y17098D01*
X154157Y17063D01*
X154129Y17021D01*
X154093Y16964D01*
X154058Y16901D01*
X154016Y16817D01*
X153981Y16725D01*
X153939Y16620D01*
X153896Y16507D01*
X153861Y16373D01*
X153826Y16233D01*
X153798Y16078D01*
X153777Y15909D01*
X153763Y15726D01*
X153756Y15536D01*
Y15522D01*
Y15487D01*
Y15431D01*
X153763Y15360D01*
X153770Y15269D01*
X153777Y15163D01*
X153784Y15051D01*
X153798Y14924D01*
X153840Y14664D01*
X153903Y14397D01*
X153939Y14263D01*
X153988Y14136D01*
X154037Y14024D01*
X154100Y13918D01*
X154108Y13911D01*
X154122Y13890D01*
X154150Y13848D01*
X154192Y13806D01*
X154241Y13749D01*
X154297Y13686D01*
X154368Y13615D01*
X154445Y13552D01*
X154530Y13482D01*
X154628Y13412D01*
X154734Y13348D01*
X154846Y13292D01*
X154973Y13250D01*
X155099Y13214D01*
X155240Y13186D01*
X155388Y13179D01*
X155416D01*
X155451Y13186D01*
X155493D01*
X155543Y13193D01*
X155606Y13207D01*
X155676Y13221D01*
X155754Y13243D01*
X155831Y13271D01*
X155916Y13306D01*
X156007Y13348D01*
X156092Y13404D01*
X156183Y13461D01*
X156274Y13531D01*
X156359Y13615D01*
X156443Y13707D01*
X156450Y13714D01*
X156465Y13735D01*
X156486Y13763D01*
X156514Y13806D01*
X156542Y13862D01*
X156584Y13932D01*
X156619Y14016D01*
X156662Y14115D01*
X156704Y14221D01*
X156739Y14347D01*
X156781Y14481D01*
X156809Y14629D01*
X156837Y14791D01*
X156859Y14973D01*
X156873Y15163D01*
X156880Y15367D01*
Y15374D01*
Y15381D01*
Y15424D01*
Y15480D01*
X156873Y15564D01*
X156866Y15663D01*
X156859Y15776D01*
X156844Y15902D01*
X156823Y16043D01*
X156774Y16324D01*
X156739Y16472D01*
X156690Y16613D01*
X156640Y16753D01*
X156584Y16887D01*
X156514Y17007D01*
X156436Y17112D01*
X156429Y17119D01*
X156415Y17133D01*
X156394Y17162D01*
X156359Y17197D01*
X156317Y17239D01*
X156260Y17281D01*
X156204Y17330D01*
X156134Y17380D01*
X156056Y17429D01*
X155972Y17478D01*
X155880Y17520D01*
X155782Y17563D01*
X155676Y17598D01*
X155564Y17626D01*
X155444Y17640D01*
X155318Y17647D01*
D02*
G37*
G36*
X135139D02*
X135083D01*
X135040Y17640D01*
X134984Y17633D01*
X134921Y17626D01*
X134858Y17612D01*
X134780Y17591D01*
X134625Y17534D01*
X134541Y17499D01*
X134457Y17457D01*
X134365Y17408D01*
X134288Y17344D01*
X134203Y17274D01*
X134126Y17197D01*
X134119Y17190D01*
X134112Y17176D01*
X134091Y17148D01*
X134062Y17112D01*
X134034Y17070D01*
X133999Y17014D01*
X133964Y16951D01*
X133929Y16880D01*
X133887Y16796D01*
X133851Y16704D01*
X133823Y16606D01*
X133788Y16500D01*
X133767Y16381D01*
X133746Y16261D01*
X133732Y16127D01*
Y15987D01*
X136532D01*
Y15994D01*
Y16022D01*
X136525Y16064D01*
Y16120D01*
X136518Y16191D01*
X136504Y16268D01*
X136490Y16352D01*
X136469Y16444D01*
X136419Y16641D01*
X136342Y16845D01*
X136300Y16951D01*
X136244Y17042D01*
X136180Y17133D01*
X136110Y17218D01*
X136103Y17225D01*
X136089Y17239D01*
X136068Y17260D01*
X136039Y17288D01*
X135997Y17316D01*
X135955Y17351D01*
X135899Y17394D01*
X135836Y17436D01*
X135695Y17513D01*
X135533Y17584D01*
X135442Y17605D01*
X135343Y17626D01*
X135245Y17640D01*
X135139Y17647D01*
D02*
G37*
G36*
X99615D02*
X99559D01*
X99517Y17640D01*
X99460Y17633D01*
X99397Y17626D01*
X99334Y17612D01*
X99256Y17591D01*
X99102Y17534D01*
X99017Y17499D01*
X98933Y17457D01*
X98841Y17408D01*
X98764Y17344D01*
X98679Y17274D01*
X98602Y17197D01*
X98595Y17190D01*
X98588Y17176D01*
X98567Y17148D01*
X98539Y17112D01*
X98511Y17070D01*
X98475Y17014D01*
X98440Y16951D01*
X98405Y16880D01*
X98363Y16796D01*
X98328Y16704D01*
X98300Y16606D01*
X98264Y16500D01*
X98243Y16381D01*
X98222Y16261D01*
X98208Y16127D01*
Y15987D01*
X101008D01*
Y15994D01*
Y16022D01*
X101001Y16064D01*
Y16120D01*
X100994Y16191D01*
X100980Y16268D01*
X100966Y16352D01*
X100945Y16444D01*
X100896Y16641D01*
X100818Y16845D01*
X100776Y16951D01*
X100720Y17042D01*
X100656Y17133D01*
X100586Y17218D01*
X100579Y17225D01*
X100565Y17239D01*
X100544Y17260D01*
X100516Y17288D01*
X100474Y17316D01*
X100431Y17351D01*
X100375Y17394D01*
X100312Y17436D01*
X100171Y17513D01*
X100009Y17584D01*
X99918Y17605D01*
X99819Y17626D01*
X99721Y17640D01*
X99615Y17647D01*
D02*
G37*
G36*
X175975Y20081D02*
X175918D01*
X175862Y20074D01*
X175778Y20067D01*
X175672Y20053D01*
X175553Y20039D01*
X175426Y20011D01*
X175278Y19976D01*
X175130Y19934D01*
X174969Y19877D01*
X174807Y19807D01*
X174645Y19730D01*
X174483Y19631D01*
X174321Y19519D01*
X174174Y19392D01*
X174026Y19244D01*
X174019Y19237D01*
X173991Y19202D01*
X173955Y19153D01*
X173906Y19089D01*
X173850Y18998D01*
X173787Y18892D01*
X173723Y18766D01*
X173653Y18618D01*
X173583Y18449D01*
X173519Y18259D01*
X173456Y18055D01*
X173400Y17830D01*
X173350Y17584D01*
X173315Y17316D01*
X173287Y17028D01*
X173280Y16725D01*
Y16718D01*
Y16704D01*
Y16683D01*
Y16648D01*
Y16613D01*
X173287Y16564D01*
Y16507D01*
X173294Y16444D01*
X173301Y16303D01*
X173322Y16141D01*
X173343Y15958D01*
X173372Y15769D01*
X173414Y15564D01*
X173463Y15353D01*
X173519Y15135D01*
X173597Y14924D01*
X173681Y14720D01*
X173780Y14523D01*
X173892Y14340D01*
X174026Y14171D01*
X174033Y14164D01*
X174061Y14136D01*
X174103Y14094D01*
X174160Y14038D01*
X174237Y13974D01*
X174321Y13904D01*
X174427Y13827D01*
X174539Y13749D01*
X174673Y13672D01*
X174814Y13594D01*
X174969Y13524D01*
X175138Y13461D01*
X175313Y13404D01*
X175503Y13362D01*
X175700Y13334D01*
X175911Y13327D01*
X175982D01*
X176024Y13334D01*
X176066D01*
X176172Y13341D01*
X176291Y13362D01*
X176425Y13383D01*
X176573Y13419D01*
X176714Y13461D01*
X176707Y13468D01*
X176685Y13482D01*
X176657Y13496D01*
X176608Y13524D01*
X176559Y13559D01*
X176495Y13594D01*
X176418Y13637D01*
X176341Y13686D01*
X176249Y13735D01*
X176158Y13784D01*
X175954Y13890D01*
X175728Y13988D01*
X175503Y14080D01*
X176052Y15206D01*
X176066Y15199D01*
X176094Y15192D01*
X176151Y15170D01*
X176221Y15142D01*
X176305Y15107D01*
X176404Y15065D01*
X176523Y15016D01*
X176650Y14952D01*
X176784Y14889D01*
X176932Y14812D01*
X177086Y14727D01*
X177241Y14636D01*
X177403Y14544D01*
X177572Y14432D01*
X177734Y14319D01*
X177903Y14200D01*
X177910Y14207D01*
X177917Y14221D01*
X177938Y14249D01*
X177966Y14277D01*
X177994Y14326D01*
X178036Y14375D01*
X178071Y14439D01*
X178114Y14502D01*
X178163Y14579D01*
X178212Y14664D01*
X178304Y14847D01*
X178395Y15051D01*
X178472Y15276D01*
Y15283D01*
X178479Y15304D01*
X178493Y15339D01*
X178501Y15388D01*
X178522Y15445D01*
X178536Y15522D01*
X178550Y15600D01*
X178571Y15698D01*
X178592Y15797D01*
X178606Y15909D01*
X178627Y16029D01*
X178641Y16155D01*
X178662Y16430D01*
X178669Y16725D01*
Y16732D01*
Y16746D01*
Y16768D01*
Y16803D01*
Y16838D01*
X178662Y16887D01*
Y16944D01*
X178655Y17000D01*
X178648Y17141D01*
X178627Y17302D01*
X178606Y17485D01*
X178578Y17675D01*
X178536Y17872D01*
X178486Y18083D01*
X178430Y18294D01*
X178353Y18498D01*
X178268Y18702D01*
X178170Y18899D01*
X178057Y19082D01*
X177924Y19244D01*
X177917Y19251D01*
X177889Y19279D01*
X177846Y19322D01*
X177790Y19378D01*
X177713Y19441D01*
X177621Y19511D01*
X177523Y19582D01*
X177403Y19666D01*
X177269Y19744D01*
X177122Y19814D01*
X176960Y19884D01*
X176784Y19948D01*
X176601Y20004D01*
X176404Y20046D01*
X176193Y20074D01*
X175975Y20081D01*
D02*
G37*
G36*
X118745Y17647D02*
X118682D01*
X118633Y17640D01*
X118577Y17633D01*
X118513Y17619D01*
X118436Y17605D01*
X118359Y17584D01*
X118274Y17556D01*
X118183Y17520D01*
X118091Y17478D01*
X118000Y17422D01*
X117908Y17366D01*
X117817Y17295D01*
X117725Y17211D01*
X117641Y17119D01*
X117634Y17112D01*
X117620Y17098D01*
X117599Y17063D01*
X117578Y17021D01*
X117542Y16964D01*
X117507Y16901D01*
X117465Y16817D01*
X117430Y16725D01*
X117388Y16620D01*
X117345Y16500D01*
X117310Y16373D01*
X117282Y16226D01*
X117254Y16071D01*
X117233Y15902D01*
X117219Y15726D01*
X117212Y15529D01*
Y15515D01*
Y15480D01*
Y15424D01*
X117219Y15346D01*
X117226Y15255D01*
X117233Y15149D01*
X117247Y15030D01*
X117268Y14903D01*
X117317Y14636D01*
X117352Y14502D01*
X117395Y14368D01*
X117444Y14235D01*
X117500Y14108D01*
X117563Y13995D01*
X117641Y13890D01*
X117648Y13883D01*
X117662Y13869D01*
X117683Y13841D01*
X117718Y13806D01*
X117760Y13770D01*
X117810Y13728D01*
X117873Y13679D01*
X117936Y13630D01*
X118014Y13580D01*
X118098Y13531D01*
X118281Y13454D01*
X118380Y13419D01*
X118485Y13390D01*
X118598Y13376D01*
X118717Y13369D01*
X118745D01*
X118781Y13376D01*
X118830D01*
X118893Y13383D01*
X118957Y13397D01*
X119034Y13412D01*
X119118Y13440D01*
X119210Y13468D01*
X119301Y13503D01*
X119393Y13545D01*
X119491Y13594D01*
X119590Y13658D01*
X119688Y13728D01*
X119780Y13813D01*
X119871Y13904D01*
X119878Y13911D01*
X119892Y13932D01*
X119914Y13960D01*
X119949Y14002D01*
X119984Y14059D01*
X120019Y14129D01*
X120061Y14207D01*
X120111Y14305D01*
X120153Y14411D01*
X120195Y14523D01*
X120230Y14657D01*
X120272Y14798D01*
X120300Y14952D01*
X120322Y15121D01*
X120336Y15297D01*
X120343Y15487D01*
Y15501D01*
Y15536D01*
Y15593D01*
X120336Y15663D01*
X120329Y15754D01*
X120322Y15860D01*
X120308Y15972D01*
X120286Y16099D01*
X120230Y16366D01*
X120195Y16500D01*
X120153Y16634D01*
X120096Y16760D01*
X120033Y16887D01*
X119963Y17007D01*
X119885Y17112D01*
X119878Y17119D01*
X119864Y17133D01*
X119836Y17162D01*
X119808Y17197D01*
X119759Y17239D01*
X119709Y17281D01*
X119646Y17330D01*
X119576Y17380D01*
X119498Y17429D01*
X119407Y17478D01*
X119315Y17520D01*
X119217Y17563D01*
X119104Y17598D01*
X118992Y17626D01*
X118872Y17640D01*
X118745Y17647D01*
D02*
G37*
G36*
X142625Y58149D02*
X140388Y54828D01*
X142625D01*
Y58149D01*
D02*
G37*
G36*
X126020Y59331D02*
X124712D01*
Y56559D01*
X125971D01*
X126063Y56566D01*
X126168D01*
X126288Y56573D01*
X126407Y56580D01*
X126668Y56594D01*
X126921Y56622D01*
X127041Y56637D01*
X127153Y56658D01*
X127245Y56679D01*
X127329Y56707D01*
X127336D01*
X127350Y56714D01*
X127364Y56721D01*
X127392Y56735D01*
X127463Y56770D01*
X127554Y56826D01*
X127653Y56890D01*
X127758Y56974D01*
X127857Y57073D01*
X127948Y57185D01*
Y57192D01*
X127955Y57199D01*
X127969Y57220D01*
X127983Y57242D01*
X128019Y57312D01*
X128061Y57403D01*
X128103Y57516D01*
X128138Y57643D01*
X128166Y57790D01*
X128173Y57945D01*
Y57952D01*
Y57966D01*
Y57994D01*
X128166Y58037D01*
Y58079D01*
X128159Y58135D01*
X128131Y58255D01*
X128096Y58395D01*
X128040Y58543D01*
X127962Y58691D01*
X127913Y58761D01*
X127857Y58825D01*
Y58832D01*
X127843Y58839D01*
X127801Y58881D01*
X127737Y58937D01*
X127646Y59015D01*
X127526Y59085D01*
X127392Y59155D01*
X127238Y59219D01*
X127069Y59261D01*
X127055D01*
X127027Y59268D01*
X126998Y59275D01*
X126956D01*
X126900Y59282D01*
X126837Y59289D01*
X126759Y59296D01*
X126668Y59303D01*
X126569Y59310D01*
X126457Y59317D01*
X126323D01*
X126182Y59324D01*
X126020Y59331D01*
D02*
G37*
G36*
X127290Y140540D02*
X125982D01*
Y137768D01*
X127241D01*
X127333Y137775D01*
X127438D01*
X127558Y137782D01*
X127677Y137789D01*
X127938Y137803D01*
X128191Y137831D01*
X128311Y137845D01*
X128423Y137866D01*
X128515Y137887D01*
X128599Y137916D01*
X128606D01*
X128620Y137923D01*
X128634Y137930D01*
X128662Y137944D01*
X128733Y137979D01*
X128824Y138035D01*
X128923Y138099D01*
X129028Y138183D01*
X129127Y138281D01*
X129218Y138394D01*
Y138401D01*
X129225Y138408D01*
X129239Y138429D01*
X129253Y138450D01*
X129289Y138521D01*
X129331Y138612D01*
X129373Y138725D01*
X129408Y138851D01*
X129436Y138999D01*
X129443Y139154D01*
Y139161D01*
Y139175D01*
Y139203D01*
X129436Y139245D01*
Y139288D01*
X129429Y139344D01*
X129401Y139464D01*
X129366Y139604D01*
X129310Y139752D01*
X129232Y139900D01*
X129183Y139970D01*
X129127Y140034D01*
Y140041D01*
X129113Y140048D01*
X129071Y140090D01*
X129007Y140146D01*
X128916Y140223D01*
X128796Y140294D01*
X128662Y140364D01*
X128508Y140428D01*
X128339Y140470D01*
X128325D01*
X128297Y140477D01*
X128268Y140484D01*
X128226D01*
X128170Y140491D01*
X128107Y140498D01*
X128029Y140505D01*
X127938Y140512D01*
X127839Y140519D01*
X127727Y140526D01*
X127593D01*
X127452Y140533D01*
X127290Y140540D01*
D02*
G37*
G36*
X234961Y262409D02*
X232724Y259088D01*
X234961D01*
Y262409D01*
D02*
G37*
G36*
X515420Y139101D02*
X514112D01*
Y136329D01*
X515371D01*
X515463Y136336D01*
X515568D01*
X515688Y136343D01*
X515807Y136350D01*
X516068Y136364D01*
X516321Y136392D01*
X516441Y136406D01*
X516553Y136428D01*
X516645Y136449D01*
X516729Y136477D01*
X516736D01*
X516750Y136484D01*
X516764Y136491D01*
X516792Y136505D01*
X516863Y136540D01*
X516954Y136596D01*
X517053Y136660D01*
X517158Y136744D01*
X517257Y136843D01*
X517348Y136955D01*
Y136962D01*
X517355Y136969D01*
X517369Y136990D01*
X517383Y137011D01*
X517419Y137082D01*
X517461Y137173D01*
X517503Y137286D01*
X517538Y137413D01*
X517566Y137560D01*
X517573Y137715D01*
Y137722D01*
Y137736D01*
Y137764D01*
X517566Y137807D01*
Y137849D01*
X517559Y137905D01*
X517531Y138025D01*
X517496Y138165D01*
X517440Y138313D01*
X517362Y138461D01*
X517313Y138531D01*
X517257Y138595D01*
Y138602D01*
X517243Y138609D01*
X517201Y138651D01*
X517137Y138707D01*
X517046Y138785D01*
X516926Y138855D01*
X516792Y138925D01*
X516638Y138989D01*
X516469Y139031D01*
X516455D01*
X516427Y139038D01*
X516398Y139045D01*
X516356D01*
X516300Y139052D01*
X516237Y139059D01*
X516159Y139066D01*
X516068Y139073D01*
X515969Y139080D01*
X515857Y139087D01*
X515723D01*
X515582Y139094D01*
X515420Y139101D01*
D02*
G37*
G36*
X514150Y58061D02*
X512842D01*
Y55289D01*
X514101D01*
X514193Y55296D01*
X514298D01*
X514418Y55303D01*
X514537Y55310D01*
X514798Y55324D01*
X515051Y55352D01*
X515171Y55367D01*
X515283Y55388D01*
X515375Y55409D01*
X515459Y55437D01*
X515466D01*
X515480Y55444D01*
X515494Y55451D01*
X515522Y55465D01*
X515593Y55500D01*
X515684Y55556D01*
X515783Y55620D01*
X515888Y55704D01*
X515987Y55803D01*
X516078Y55915D01*
Y55922D01*
X516085Y55929D01*
X516099Y55950D01*
X516113Y55971D01*
X516149Y56042D01*
X516191Y56133D01*
X516233Y56246D01*
X516268Y56373D01*
X516296Y56520D01*
X516303Y56675D01*
Y56682D01*
Y56696D01*
Y56724D01*
X516296Y56767D01*
Y56809D01*
X516289Y56865D01*
X516261Y56985D01*
X516226Y57125D01*
X516170Y57273D01*
X516092Y57421D01*
X516043Y57491D01*
X515987Y57555D01*
Y57562D01*
X515973Y57569D01*
X515930Y57611D01*
X515867Y57667D01*
X515776Y57745D01*
X515656Y57815D01*
X515522Y57885D01*
X515368Y57949D01*
X515199Y57991D01*
X515185D01*
X515157Y57998D01*
X515128Y58005D01*
X515086D01*
X515030Y58012D01*
X514967Y58019D01*
X514889Y58026D01*
X514798Y58033D01*
X514699Y58040D01*
X514587Y58047D01*
X514453D01*
X514312Y58054D01*
X514150Y58061D01*
D02*
G37*
%LPD*%
D10*
X371750Y249000D02*
G03*
X371750Y249000I-750J0D01*
G01*
D11*
X250500Y291250D02*
X375500D01*
X383750Y261500D02*
Y279000D01*
X376000Y261500D02*
X383750D01*
X376000Y257750D02*
Y261500D01*
Y257750D02*
X380500D01*
Y252750D02*
Y257750D01*
X245500Y252750D02*
X380500D01*
X245500D02*
Y257750D01*
X250000D01*
Y261500D01*
X242250D02*
X250000D01*
X242250D02*
Y279000D01*
M02*
