G04*
G04 #@! TF.GenerationSoftware,Altium Limited,Altium Designer,24.6.1 (21)*
G04*
G04 Layer_Color=8388736*
%FSLAX44Y44*%
%MOMM*%
G71*
G04*
G04 #@! TF.SameCoordinates,242C2DEC-31A4-4C5B-8B2D-05B0778E2342*
G04*
G04*
G04 #@! TF.FilePolarity,Negative*
G04*
G01*
G75*
%ADD14R,0.5032X1.0032*%
%ADD15R,0.6032X1.0032*%
%ADD16C,4.7032*%
%ADD17C,2.0032*%
%ADD18C,0.8032*%
D14*
X255500Y261000D02*
D03*
X260500D02*
D03*
X265500D02*
D03*
X280500D02*
D03*
X285500D02*
D03*
X290500D02*
D03*
X300500D02*
D03*
X305500D02*
D03*
X310500D02*
D03*
X315500D02*
D03*
X370500D02*
D03*
X365500D02*
D03*
X360500D02*
D03*
X355500D02*
D03*
X350500D02*
D03*
X345500D02*
D03*
X340500D02*
D03*
X335500D02*
D03*
X330500D02*
D03*
X325500D02*
D03*
X320500D02*
D03*
X295500D02*
D03*
X275500D02*
D03*
X270500D02*
D03*
D15*
X380500Y286000D02*
D03*
X245500D02*
D03*
D16*
X40000Y40000D02*
D03*
X580000D02*
D03*
X40000Y260000D02*
D03*
X578000Y256000D02*
D03*
D17*
X444500Y116000D02*
D03*
X479500D02*
D03*
X409500D02*
D03*
X374500D02*
D03*
X339500D02*
D03*
X129500D02*
D03*
Y76000D02*
D03*
X164500Y116000D02*
D03*
Y76000D02*
D03*
X199500Y116000D02*
D03*
Y76000D02*
D03*
X234500Y116000D02*
D03*
Y76000D02*
D03*
X269500Y116000D02*
D03*
Y76000D02*
D03*
X304500D02*
D03*
Y116000D02*
D03*
X479500Y76000D02*
D03*
X444500D02*
D03*
X409500D02*
D03*
X374500D02*
D03*
X339500D02*
D03*
X514500Y116000D02*
D03*
Y76000D02*
D03*
D18*
X79000Y27000D02*
D03*
X65000Y283000D02*
D03*
X491000Y268000D02*
D03*
X593000Y198000D02*
D03*
X544000Y212000D02*
D03*
X146000Y278000D02*
D03*
X555000Y151000D02*
D03*
X97000Y239000D02*
D03*
X96000Y164000D02*
D03*
Y93000D02*
D03*
X30000Y219000D02*
D03*
Y162000D02*
D03*
Y105000D02*
D03*
X546000Y34000D02*
D03*
X441000Y31000D02*
D03*
X331000Y42000D02*
D03*
X155000Y56000D02*
D03*
X592000Y88000D02*
D03*
X69000Y130000D02*
D03*
X238000Y27000D02*
D03*
X68000Y213000D02*
D03*
M02*
