M48
;Layer_Color=9474304
;FILE_FORMAT=4:4
METRIC,LZ
;TYPE=PLATED
T01F00S00C0.4000
T02F00S00C1.4000
T03F00S00C3.0000
%
T01
X00079Y00027
X00096Y00093
X00069Y0013
X00096Y00164
X0003Y00162
Y00105
X00155Y00056
X00238Y00027
X00331Y00042
X00441Y00031
X00546Y00034
X00592Y00088
X00555Y00151
X00544Y00212
X00593Y00198
X00491Y00268
X00146Y00278
X00065Y00283
X00068Y00213
X0003Y00219
X00097Y00239
T02
X001295Y00076
Y00116
X001645
X001995
X002345
X002695
X003045
X003395
X003745
X004095
X004445
X004795
X005145
Y00076
X004795
X004445
X004095
X003745
X003395
X003045
X002695
X002345
X001995
X001645
T03
X0004Y0004
X0058
X00578Y00256
X0004Y0026
M30
